<?xml version="1.0" encoding="utf-8" ?>
<svg baseProfile="full" height="390" version="1.1" width="390" xmlns="http://www.w3.org/2000/svg" xmlns:ev="http://www.w3.org/2001/xml-events" xmlns:xlink="http://www.w3.org/1999/xlink"><defs /><rect fill="rgb(150,150,150)" height="100%" width="100%" x="0" y="0" /><polygon fill="lightgreen" points="55.98076211353316,55.98076211353316 30.000000000000004,70.98076211353316 4.01923788646684,55.98076211353316 4.019237886466843,25.980762113533157 29.999999999999993,10.98076211353316 55.98076211353315,25.980762113533146" stroke="black" /><text font-size="6.0" style="font-size:10px; font-family:Arial; font-weight:bold;" transform="rotate(-30, 30, 40.98076211353316)" x="12.0" y="46.98076211353316">a</text><text font-size="6.0" transform="rotate(-30, 30, 40.98076211353316)" x="12.0" y="34.98076211353316">row: 0 col: 0</text><polygon fill="aquamarine" points="115.98076211353316,55.98076211353316 90.0,70.98076211353316 64.01923788646684,55.98076211353316 64.01923788646684,25.980762113533157 90.0,10.98076211353316 115.98076211353316,25.980762113533146" stroke="black" /><text font-size="6.0" style="font-size:10px; font-family:Arial; font-weight:bold;" transform="rotate(-30, 90, 40.98076211353316)" x="72.0" y="46.98076211353316">b</text><text font-size="6.0" transform="rotate(-30, 90, 40.98076211353316)" x="72.0" y="34.98076211353316">row: 0 col: 1</text><polygon fill="tomato" points="175.98076211353316,55.98076211353316 150.0,70.98076211353316 124.01923788646684,55.98076211353316 124.01923788646684,25.980762113533157 150.0,10.98076211353316 175.98076211353316,25.980762113533146" stroke="black" /><text font-size="6.0" style="font-size:10px; font-family:Arial; font-weight:bold;" transform="rotate(-30, 150, 40.98076211353316)" x="132.0" y="46.98076211353316">c</text><text font-size="6.0" transform="rotate(-30, 150, 40.98076211353316)" x="132.0" y="34.98076211353316">row: 0 col: 2</text><polygon fill="tomato" points="235.98076211353316,55.98076211353316 210.0,70.98076211353316 184.01923788646684,55.98076211353316 184.01923788646684,25.980762113533157 210.0,10.98076211353316 235.98076211353316,25.980762113533146" stroke="black" /><text font-size="6.0" style="font-size:10px; font-family:Arial; font-weight:bold;" transform="rotate(-30, 210, 40.98076211353316)" x="192.0" y="46.98076211353316">d</text><text font-size="6.0" transform="rotate(-30, 210, 40.98076211353316)" x="192.0" y="34.98076211353316">row: 0 col: 3</text><polygon fill="lightgreen" points="295.98076211353316,55.98076211353316 270.0,70.98076211353316 244.01923788646684,55.98076211353316 244.01923788646684,25.980762113533157 270.0,10.98076211353316 295.98076211353316,25.980762113533146" stroke="black" /><text font-size="6.0" style="font-size:10px; font-family:Arial; font-weight:bold;" transform="rotate(-30, 270, 40.98076211353316)" x="252.0" y="46.98076211353316">e</text><text font-size="6.0" transform="rotate(-30, 270, 40.98076211353316)" x="252.0" y="34.98076211353316">row: 0 col: 4</text><polygon fill="aquamarine" points="355.98076211353316,55.98076211353316 330.0,70.98076211353316 304.01923788646684,55.98076211353316 304.01923788646684,25.980762113533157 330.0,10.98076211353316 355.98076211353316,25.980762113533146" stroke="black" /><text font-size="6.0" style="font-size:10px; font-family:Arial; font-weight:bold;" transform="rotate(-30, 330, 40.98076211353316)" x="312.0" y="46.98076211353316">f</text><text font-size="6.0" transform="rotate(-30, 330, 40.98076211353316)" x="312.0" y="34.98076211353316">row: 0 col: 5</text><polygon fill="lightgreen" points="85.98076211353316,107.94228634059948 60.0,122.94228634059948 34.01923788646684,107.94228634059948 34.01923788646684,77.94228634059948 59.99999999999999,62.94228634059948 85.98076211353316,77.94228634059947" stroke="black" /><text font-size="6.0" style="font-size:10px; font-family:Arial; font-weight:bold;" transform="rotate(-30, 60, 92.94228634059948)" x="42.0" y="98.94228634059948">g</text><text font-size="6.0" transform="rotate(-30, 60, 92.94228634059948)" x="42.0" y="86.94228634059948">row: 1 col: 0</text><polygon fill="lightblue" points="145.98076211353316,107.94228634059948 120.0,122.94228634059948 94.01923788646684,107.94228634059948 94.01923788646684,77.94228634059948 120.0,62.94228634059948 145.98076211353316,77.94228634059947" stroke="black" /><text font-size="6.0" style="font-size:10px; font-family:Arial; font-weight:bold;" transform="rotate(-30, 120, 92.94228634059948)" x="102.0" y="98.94228634059948">h</text><text font-size="6.0" transform="rotate(-30, 120, 92.94228634059948)" x="102.0" y="86.94228634059948">row: 1 col: 1</text><polygon fill="lightblue" points="205.98076211353316,107.94228634059948 180.0,122.94228634059948 154.01923788646684,107.94228634059948 154.01923788646684,77.94228634059948 180.0,62.94228634059948 205.98076211353316,77.94228634059947" stroke="black" /><text font-size="6.0" style="font-size:10px; font-family:Arial; font-weight:bold;" transform="rotate(-30, 180, 92.94228634059948)" x="162.0" y="98.94228634059948">i</text><text font-size="6.0" transform="rotate(-30, 180, 92.94228634059948)" x="162.0" y="86.94228634059948">row: 1 col: 2</text><polygon fill="blue" points="265.98076211353316,107.94228634059948 240.0,122.94228634059948 214.01923788646684,107.94228634059948 214.01923788646684,77.94228634059948 240.0,62.94228634059948 265.98076211353316,77.94228634059947" stroke="black" /><text font-size="6.0" style="font-size:10px; font-family:Arial; font-weight:bold;" transform="rotate(-30, 240, 92.94228634059948)" x="222.0" y="98.94228634059948">j</text><text font-size="6.0" transform="rotate(-30, 240, 92.94228634059948)" x="222.0" y="86.94228634059948">row: 1 col: 3</text><polygon fill="blue" points="325.98076211353316,107.94228634059948 300.0,122.94228634059948 274.01923788646684,107.94228634059948 274.01923788646684,77.94228634059948 300.0,62.94228634059948 325.98076211353316,77.94228634059947" stroke="black" /><text font-size="6.0" style="font-size:10px; font-family:Arial; font-weight:bold;" transform="rotate(-30, 300, 92.94228634059948)" x="282.0" y="98.94228634059948">k</text><text font-size="6.0" transform="rotate(-30, 300, 92.94228634059948)" x="282.0" y="86.94228634059948">row: 1 col: 4</text><polygon fill="lightgreen" points="385.98076211353316,107.94228634059948 360.0,122.94228634059948 334.01923788646684,107.94228634059948 334.01923788646684,77.94228634059948 360.0,62.94228634059948 385.98076211353316,77.94228634059947" stroke="black" /><text font-size="6.0" style="font-size:10px; font-family:Arial; font-weight:bold;" transform="rotate(-30, 360, 92.94228634059948)" x="342.0" y="98.94228634059948">l</text><text font-size="6.0" transform="rotate(-30, 360, 92.94228634059948)" x="342.0" y="86.94228634059948">row: 1 col: 5</text><polygon fill="lightblue" points="55.98076211353316,159.90381056766577 30.000000000000004,174.90381056766577 4.01923788646684,159.90381056766577 4.019237886466843,129.90381056766577 29.999999999999993,114.90381056766577 55.98076211353315,129.90381056766574" stroke="black" /><text font-size="6.0" style="font-size:10px; font-family:Arial; font-weight:bold;" transform="rotate(-30, 30, 144.90381056766577)" x="12.0" y="150.90381056766577">m</text><text font-size="6.0" transform="rotate(-30, 30, 144.90381056766577)" x="12.0" y="138.90381056766577">row: 2 col: 0</text><polygon fill="lightblue" points="115.98076211353316,159.90381056766577 90.0,174.90381056766577 64.01923788646684,159.90381056766577 64.01923788646684,129.90381056766577 90.0,114.90381056766577 115.98076211353316,129.90381056766574" stroke="black" /><text font-size="6.0" style="font-size:10px; font-family:Arial; font-weight:bold;" transform="rotate(-30, 90, 144.90381056766577)" x="72.0" y="150.90381056766577">n</text><text font-size="6.0" transform="rotate(-30, 90, 144.90381056766577)" x="72.0" y="138.90381056766577">row: 2 col: 1</text><polygon fill="lightblue" points="175.98076211353316,159.90381056766577 150.0,174.90381056766577 124.01923788646684,159.90381056766577 124.01923788646684,129.90381056766577 150.0,114.90381056766577 175.98076211353316,129.90381056766574" stroke="black" /><text font-size="6.0" style="font-size:10px; font-family:Arial; font-weight:bold;" transform="rotate(-30, 150, 144.90381056766577)" x="132.0" y="150.90381056766577">o</text><text font-size="6.0" transform="rotate(-30, 150, 144.90381056766577)" x="132.0" y="138.90381056766577">row: 2 col: 2</text><polygon fill="blue" points="235.98076211353316,159.90381056766577 210.0,174.90381056766577 184.01923788646684,159.90381056766577 184.01923788646684,129.90381056766577 210.0,114.90381056766577 235.98076211353316,129.90381056766574" stroke="black" /><text font-size="6.0" style="font-size:10px; font-family:Arial; font-weight:bold;" transform="rotate(-30, 210, 144.90381056766577)" x="192.0" y="150.90381056766577">p</text><text font-size="6.0" transform="rotate(-30, 210, 144.90381056766577)" x="192.0" y="138.90381056766577">row: 2 col: 3</text><polygon fill="red" points="295.98076211353316,159.90381056766577 270.0,174.90381056766577 244.01923788646684,159.90381056766577 244.01923788646684,129.90381056766577 270.0,114.90381056766577 295.98076211353316,129.90381056766574" stroke="black" /><text font-size="6.0" style="font-size:10px; font-family:Arial; font-weight:bold;" transform="rotate(-30, 270, 144.90381056766577)" x="252.0" y="150.90381056766577">q</text><text font-size="6.0" transform="rotate(-30, 270, 144.90381056766577)" x="252.0" y="138.90381056766577">row: 2 col: 4</text><polygon fill="blue" points="355.98076211353316,159.90381056766577 330.0,174.90381056766577 304.01923788646684,159.90381056766577 304.01923788646684,129.90381056766577 330.0,114.90381056766577 355.98076211353316,129.90381056766574" stroke="black" /><text font-size="6.0" style="font-size:10px; font-family:Arial; font-weight:bold;" transform="rotate(-30, 330, 144.90381056766577)" x="312.0" y="150.90381056766577">r</text><text font-size="6.0" transform="rotate(-30, 330, 144.90381056766577)" x="312.0" y="138.90381056766577">row: 2 col: 5</text><polygon fill="lightgreen" points="85.98076211353316,211.86533479473212 60.0,226.86533479473212 34.01923788646684,211.86533479473212 34.01923788646684,181.86533479473212 59.99999999999999,166.86533479473212 85.98076211353316,181.86533479473212" stroke="black" /><text font-size="6.0" style="font-size:10px; font-family:Arial; font-weight:bold;" transform="rotate(-30, 60, 196.86533479473212)" x="42.0" y="202.86533479473212">s</text><text font-size="6.0" transform="rotate(-30, 60, 196.86533479473212)" x="42.0" y="190.86533479473212">row: 3 col: 0</text><polygon fill="tomato" points="145.98076211353316,211.86533479473212 120.0,226.86533479473212 94.01923788646684,211.86533479473212 94.01923788646684,181.86533479473212 120.0,166.86533479473212 145.98076211353316,181.86533479473212" stroke="black" /><text font-size="6.0" style="font-size:10px; font-family:Arial; font-weight:bold;" transform="rotate(-30, 120, 196.86533479473212)" x="102.0" y="202.86533479473212">t</text><text font-size="6.0" transform="rotate(-30, 120, 196.86533479473212)" x="102.0" y="190.86533479473212">row: 3 col: 1</text><polygon fill="aquamarine" points="205.98076211353316,211.86533479473212 180.0,226.86533479473212 154.01923788646684,211.86533479473212 154.01923788646684,181.86533479473212 180.0,166.86533479473212 205.98076211353316,181.86533479473212" stroke="black" /><text font-size="6.0" style="font-size:10px; font-family:Arial; font-weight:bold;" transform="rotate(-30, 180, 196.86533479473212)" x="162.0" y="202.86533479473212">u</text><text font-size="6.0" transform="rotate(-30, 180, 196.86533479473212)" x="162.0" y="190.86533479473212">row: 3 col: 2</text><polygon fill="blue" points="265.98076211353316,211.86533479473212 240.0,226.86533479473212 214.01923788646684,211.86533479473212 214.01923788646684,181.86533479473212 240.0,166.86533479473212 265.98076211353316,181.86533479473212" stroke="black" /><text font-size="6.0" style="font-size:10px; font-family:Arial; font-weight:bold;" transform="rotate(-30, 240, 196.86533479473212)" x="222.0" y="202.86533479473212">v</text><text font-size="6.0" transform="rotate(-30, 240, 196.86533479473212)" x="222.0" y="190.86533479473212">row: 3 col: 3</text><polygon fill="blue" points="325.98076211353316,211.86533479473212 300.0,226.86533479473212 274.01923788646684,211.86533479473212 274.01923788646684,181.86533479473212 300.0,166.86533479473212 325.98076211353316,181.86533479473212" stroke="black" /><text font-size="6.0" style="font-size:10px; font-family:Arial; font-weight:bold;" transform="rotate(-30, 300, 196.86533479473212)" x="282.0" y="202.86533479473212">w</text><text font-size="6.0" transform="rotate(-30, 300, 196.86533479473212)" x="282.0" y="190.86533479473212">row: 3 col: 4</text><polygon fill="lightblue" points="385.98076211353316,211.86533479473212 360.0,226.86533479473212 334.01923788646684,211.86533479473212 334.01923788646684,181.86533479473212 360.0,166.86533479473212 385.98076211353316,181.86533479473212" stroke="black" /><text font-size="6.0" style="font-size:10px; font-family:Arial; font-weight:bold;" transform="rotate(-30, 360, 196.86533479473212)" x="342.0" y="202.86533479473212">x</text><text font-size="6.0" transform="rotate(-30, 360, 196.86533479473212)" x="342.0" y="190.86533479473212">row: 3 col: 5</text><polygon fill="lightblue" points="55.98076211353316,263.82685902179844 30.000000000000004,278.82685902179844 4.01923788646684,263.82685902179844 4.019237886466843,233.82685902179844 29.999999999999993,218.82685902179844 55.98076211353315,233.82685902179844" stroke="black" /><text font-size="6.0" style="font-size:10px; font-family:Arial; font-weight:bold;" transform="rotate(-30, 30, 248.82685902179844)" x="12.0" y="254.82685902179844">y</text><text font-size="6.0" transform="rotate(-30, 30, 248.82685902179844)" x="12.0" y="242.82685902179844">row: 4 col: 0</text><polygon fill="lightblue" points="115.98076211353316,263.82685902179844 90.0,278.82685902179844 64.01923788646684,263.82685902179844 64.01923788646684,233.82685902179844 90.0,218.82685902179844 115.98076211353316,233.82685902179844" stroke="black" /><text font-size="6.0" style="font-size:10px; font-family:Arial; font-weight:bold;" transform="rotate(-30, 90, 248.82685902179844)" x="72.0" y="254.82685902179844">z</text><text font-size="6.0" transform="rotate(-30, 90, 248.82685902179844)" x="72.0" y="242.82685902179844">row: 4 col: 1</text><polygon fill="aquamarine" points="175.98076211353316,263.82685902179844 150.0,278.82685902179844 124.01923788646684,263.82685902179844 124.01923788646684,233.82685902179844 150.0,218.82685902179844 175.98076211353316,233.82685902179844" stroke="black" /><text font-size="6.0" style="font-size:10px; font-family:Arial; font-weight:bold;" transform="rotate(-30, 150, 248.82685902179844)" x="132.0" y="254.82685902179844">aa</text><text font-size="6.0" transform="rotate(-30, 150, 248.82685902179844)" x="132.0" y="242.82685902179844">row: 4 col: 2</text><polygon fill="lightblue" points="235.98076211353316,263.82685902179844 210.0,278.82685902179844 184.01923788646684,263.82685902179844 184.01923788646684,233.82685902179844 210.0,218.82685902179844 235.98076211353316,233.82685902179844" stroke="black" /><text font-size="6.0" style="font-size:10px; font-family:Arial; font-weight:bold;" transform="rotate(-30, 210, 248.82685902179844)" x="192.0" y="254.82685902179844">bb</text><text font-size="6.0" transform="rotate(-30, 210, 248.82685902179844)" x="192.0" y="242.82685902179844">row: 4 col: 3</text><polygon fill="lightgreen" points="295.98076211353316,263.82685902179844 270.0,278.82685902179844 244.01923788646684,263.82685902179844 244.01923788646684,233.82685902179844 270.0,218.82685902179844 295.98076211353316,233.82685902179844" stroke="black" /><text font-size="6.0" style="font-size:10px; font-family:Arial; font-weight:bold;" transform="rotate(-30, 270, 248.82685902179844)" x="252.0" y="254.82685902179844">cc</text><text font-size="6.0" transform="rotate(-30, 270, 248.82685902179844)" x="252.0" y="242.82685902179844">row: 4 col: 4</text><polygon fill="tomato" points="355.98076211353316,263.82685902179844 330.0,278.82685902179844 304.01923788646684,263.82685902179844 304.01923788646684,233.82685902179844 330.0,218.82685902179844 355.98076211353316,233.82685902179844" stroke="black" /><text font-size="6.0" style="font-size:10px; font-family:Arial; font-weight:bold;" transform="rotate(-30, 330, 248.82685902179844)" x="312.0" y="254.82685902179844">dd</text><text font-size="6.0" transform="rotate(-30, 330, 248.82685902179844)" x="312.0" y="242.82685902179844">row: 4 col: 5</text><polygon fill="tomato" points="85.98076211353316,315.78838324886476 60.0,330.78838324886476 34.01923788646684,315.78838324886476 34.01923788646684,285.78838324886476 59.99999999999999,270.78838324886476 85.98076211353316,285.78838324886476" stroke="black" /><text font-size="6.0" style="font-size:10px; font-family:Arial; font-weight:bold;" transform="rotate(-30, 60, 300.78838324886476)" x="42.0" y="306.78838324886476">ee</text><text font-size="6.0" transform="rotate(-30, 60, 300.78838324886476)" x="42.0" y="294.78838324886476">row: 5 col: 0</text><polygon fill="tomato" points="145.98076211353316,315.78838324886476 120.0,330.78838324886476 94.01923788646684,315.78838324886476 94.01923788646684,285.78838324886476 120.0,270.78838324886476 145.98076211353316,285.78838324886476" stroke="black" /><text font-size="6.0" style="font-size:10px; font-family:Arial; font-weight:bold;" transform="rotate(-30, 120, 300.78838324886476)" x="102.0" y="306.78838324886476">ff</text><text font-size="6.0" transform="rotate(-30, 120, 300.78838324886476)" x="102.0" y="294.78838324886476">row: 5 col: 1</text><polygon fill="lightblue" points="205.98076211353316,315.78838324886476 180.0,330.78838324886476 154.01923788646684,315.78838324886476 154.01923788646684,285.78838324886476 180.0,270.78838324886476 205.98076211353316,285.78838324886476" stroke="black" /><text font-size="6.0" style="font-size:10px; font-family:Arial; font-weight:bold;" transform="rotate(-30, 180, 300.78838324886476)" x="162.0" y="306.78838324886476">gg</text><text font-size="6.0" transform="rotate(-30, 180, 300.78838324886476)" x="162.0" y="294.78838324886476">row: 5 col: 2</text><polygon fill="lightgreen" points="265.98076211353316,315.78838324886476 240.0,330.78838324886476 214.01923788646684,315.78838324886476 214.01923788646684,285.78838324886476 240.0,270.78838324886476 265.98076211353316,285.78838324886476" stroke="black" /><text font-size="6.0" style="font-size:10px; font-family:Arial; font-weight:bold;" transform="rotate(-30, 240, 300.78838324886476)" x="222.0" y="306.78838324886476">hh</text><text font-size="6.0" transform="rotate(-30, 240, 300.78838324886476)" x="222.0" y="294.78838324886476">row: 5 col: 3</text><polygon fill="aquamarine" points="325.98076211353316,315.78838324886476 300.0,330.78838324886476 274.01923788646684,315.78838324886476 274.01923788646684,285.78838324886476 300.0,270.78838324886476 325.98076211353316,285.78838324886476" stroke="black" /><text font-size="6.0" style="font-size:10px; font-family:Arial; font-weight:bold;" transform="rotate(-30, 300, 300.78838324886476)" x="282.0" y="306.78838324886476">ii</text><text font-size="6.0" transform="rotate(-30, 300, 300.78838324886476)" x="282.0" y="294.78838324886476">row: 5 col: 4</text><polygon fill="tomato" points="385.98076211353316,315.78838324886476 360.0,330.78838324886476 334.01923788646684,315.78838324886476 334.01923788646684,285.78838324886476 360.0,270.78838324886476 385.98076211353316,285.78838324886476" stroke="black" /><text font-size="6.0" style="font-size:10px; font-family:Arial; font-weight:bold;" transform="rotate(-30, 360, 300.78838324886476)" x="342.0" y="306.78838324886476">jj</text><text font-size="6.0" transform="rotate(-30, 360, 300.78838324886476)" x="342.0" y="294.78838324886476">row: 5 col: 5</text><polygon fill="lightblue" points="55.98076211353316,367.7499074759311 30.000000000000004,382.7499074759311 4.01923788646684,367.7499074759311 4.019237886466843,337.7499074759311 29.999999999999993,322.7499074759311 55.98076211353315,337.7499074759311" stroke="black" /><text font-size="6.0" style="font-size:10px; font-family:Arial; font-weight:bold;" transform="rotate(-30, 30, 352.7499074759311)" x="12.0" y="358.7499074759311">kk</text><text font-size="6.0" transform="rotate(-30, 30, 352.7499074759311)" x="12.0" y="346.7499074759311">row: 6 col: 0</text><polygon fill="tomato" points="115.98076211353316,367.7499074759311 90.0,382.7499074759311 64.01923788646684,367.7499074759311 64.01923788646684,337.7499074759311 90.0,322.7499074759311 115.98076211353316,337.7499074759311" stroke="black" /><text font-size="6.0" style="font-size:10px; font-family:Arial; font-weight:bold;" transform="rotate(-30, 90, 352.7499074759311)" x="72.0" y="358.7499074759311">ll</text><text font-size="6.0" transform="rotate(-30, 90, 352.7499074759311)" x="72.0" y="346.7499074759311">row: 6 col: 1</text><polygon fill="tomato" points="175.98076211353316,367.7499074759311 150.0,382.7499074759311 124.01923788646684,367.7499074759311 124.01923788646684,337.7499074759311 150.0,322.7499074759311 175.98076211353316,337.7499074759311" stroke="black" /><text font-size="6.0" style="font-size:10px; font-family:Arial; font-weight:bold;" transform="rotate(-30, 150, 352.7499074759311)" x="132.0" y="358.7499074759311">mm</text><text font-size="6.0" transform="rotate(-30, 150, 352.7499074759311)" x="132.0" y="346.7499074759311">row: 6 col: 2</text><polygon fill="aquamarine" points="235.98076211353316,367.7499074759311 210.0,382.7499074759311 184.01923788646684,367.7499074759311 184.01923788646684,337.7499074759311 210.0,322.7499074759311 235.98076211353316,337.7499074759311" stroke="black" /><text font-size="6.0" style="font-size:10px; font-family:Arial; font-weight:bold;" transform="rotate(-30, 210, 352.7499074759311)" x="192.0" y="358.7499074759311">nn</text><text font-size="6.0" transform="rotate(-30, 210, 352.7499074759311)" x="192.0" y="346.7499074759311">row: 6 col: 3</text><polygon fill="lightgreen" points="295.98076211353316,367.7499074759311 270.0,382.7499074759311 244.01923788646684,367.7499074759311 244.01923788646684,337.7499074759311 270.0,322.7499074759311 295.98076211353316,337.7499074759311" stroke="black" /><text font-size="6.0" style="font-size:10px; font-family:Arial; font-weight:bold;" transform="rotate(-30, 270, 352.7499074759311)" x="252.0" y="358.7499074759311">oo</text><text font-size="6.0" transform="rotate(-30, 270, 352.7499074759311)" x="252.0" y="346.7499074759311">row: 6 col: 4</text><polygon fill="lightgreen" points="355.98076211353316,367.7499074759311 330.0,382.7499074759311 304.01923788646684,367.7499074759311 304.01923788646684,337.7499074759311 330.0,322.7499074759311 355.98076211353316,337.7499074759311" stroke="black" /><text font-size="6.0" style="font-size:10px; font-family:Arial; font-weight:bold;" transform="rotate(-30, 330, 352.7499074759311)" x="312.0" y="358.7499074759311">pp</text><text font-size="6.0" transform="rotate(-30, 330, 352.7499074759311)" x="312.0" y="346.7499074759311">row: 6 col: 5</text><polygon fill="tomato" points="85.98076211353316,419.7114317029974 60.0,434.7114317029974 34.01923788646684,419.7114317029974 34.01923788646684,389.7114317029974 59.99999999999999,374.7114317029974 85.98076211353316,389.7114317029974" stroke="black" /><text font-size="6.0" style="font-size:10px; font-family:Arial; font-weight:bold;" transform="rotate(-30, 60, 404.7114317029974)" x="42.0" y="410.7114317029974">qq</text><text font-size="6.0" transform="rotate(-30, 60, 404.7114317029974)" x="42.0" y="398.7114317029974">row: 7 col: 0</text></svg>