solid OpenSCAD_Model
  facet normal 0 0 -1
    outer loop
      vertex 74.2063 -16.8541 0
      vertex 108.5 4.8 0
      vertex 108.5 -55 0
    endloop
  endfacet
  facet normal 0 0 -1
    outer loop
      vertex 108.5 4.8 0
      vertex 74.4671 -15.6272 0
      vertex 74.5 -15 0
    endloop
  endfacet
  facet normal 0 0 -1
    outer loop
      vertex 108.5 4.8 0
      vertex 74.3689 -16.2475 0
      vertex 74.4671 -15.6272 0
    endloop
  endfacet
  facet normal 0 0 -1
    outer loop
      vertex 108.5 4.8 0
      vertex 74.2063 -16.8541 0
      vertex 74.3689 -16.2475 0
    endloop
  endfacet
  facet normal 0 0 -1
    outer loop
      vertex 108.5 -55 0
      vertex 73.9813 -17.4404 0
      vertex 74.2063 -16.8541 0
    endloop
  endfacet
  facet normal 0 0 -1
    outer loop
      vertex 108.5 -55 0
      vertex 73.6962 -18 0
      vertex 73.9813 -17.4404 0
    endloop
  endfacet
  facet normal 0 0 -1
    outer loop
      vertex 108.5 -55 0
      vertex 73.3541 -18.5267 0
      vertex 73.6962 -18 0
    endloop
  endfacet
  facet normal 0 0 -1
    outer loop
      vertex 108.5 -55 0
      vertex 72.9589 -19.0148 0
      vertex 73.3541 -18.5267 0
    endloop
  endfacet
  facet normal 0 0 -1
    outer loop
      vertex 108.5 -55 0
      vertex 72.5148 -19.4589 0
      vertex 72.9589 -19.0148 0
    endloop
  endfacet
  facet normal 0 0 -1
    outer loop
      vertex 108.5 -55 0
      vertex 72.0267 -19.8541 0
      vertex 72.5148 -19.4589 0
    endloop
  endfacet
  facet normal 0 0 -1
    outer loop
      vertex 108.5 -55 0
      vertex 71.5 -20.1962 0
      vertex 72.0267 -19.8541 0
    endloop
  endfacet
  facet normal 0 0 -1
    outer loop
      vertex 108.5 -55 0
      vertex 70.9404 -20.4813 0
      vertex 71.5 -20.1962 0
    endloop
  endfacet
  facet normal 0 0 -1
    outer loop
      vertex 108.5 -55 0
      vertex 70.3541 -20.7063 0
      vertex 70.9404 -20.4813 0
    endloop
  endfacet
  facet normal 0 0 -1
    outer loop
      vertex 108.5 -55 0
      vertex 69.7475 -20.8689 0
      vertex 70.3541 -20.7063 0
    endloop
  endfacet
  facet normal 0 0 -1
    outer loop
      vertex 108.5 -55 0
      vertex 69.1272 -20.9671 0
      vertex 69.7475 -20.8689 0
    endloop
  endfacet
  facet normal 0 0 -1
    outer loop
      vertex 108.5 -55 0
      vertex 68.5 -21 0
      vertex 69.1272 -20.9671 0
    endloop
  endfacet
  facet normal 0 0 -1
    outer loop
      vertex 108.5 -55 0
      vertex 48.5 -21 0
      vertex 68.5 -21 0
    endloop
  endfacet
  facet normal 0 0 -1
    outer loop
      vertex 108.5 -55 0
      vertex 47.8728 -20.9671 0
      vertex 48.5 -21 0
    endloop
  endfacet
  facet normal 0 0 -1
    outer loop
      vertex 108.5 -55 0
      vertex 47.2525 -20.8689 0
      vertex 47.8728 -20.9671 0
    endloop
  endfacet
  facet normal 0 0 -1
    outer loop
      vertex 108.5 -55 0
      vertex 46.6459 -20.7063 0
      vertex 47.2525 -20.8689 0
    endloop
  endfacet
  facet normal 0 0 -1
    outer loop
      vertex -108.5 -55 0
      vertex 46.6459 -20.7063 0
      vertex 108.5 -55 0
    endloop
  endfacet
  facet normal -0 0 -1
    outer loop
      vertex 46.6459 -20.7063 0
      vertex -108.5 -55 0
      vertex 46.0596 -20.4813 0
    endloop
  endfacet
  facet normal 0 0 -1
    outer loop
      vertex 42.5329 -15.6272 0
      vertex -58.3 4.8 0
      vertex 42.5 -15 0
    endloop
  endfacet
  facet normal 0 0 -1
    outer loop
      vertex 42.6311 -16.2475 0
      vertex -58.3 4.8 0
      vertex 42.5329 -15.6272 0
    endloop
  endfacet
  facet normal 0 0 -1
    outer loop
      vertex 42.7937 -16.8541 0
      vertex -58.3 4.8 0
      vertex 42.6311 -16.2475 0
    endloop
  endfacet
  facet normal 0 0 -1
    outer loop
      vertex 43.0187 -17.4404 0
      vertex -58.3 4.8 0
      vertex 42.7937 -16.8541 0
    endloop
  endfacet
  facet normal 0 0 -1
    outer loop
      vertex 43.3038 -18 0
      vertex -58.3 4.8 0
      vertex 43.0187 -17.4404 0
    endloop
  endfacet
  facet normal 0 0 -1
    outer loop
      vertex 43.6459 -18.5267 0
      vertex -58.3 4.8 0
      vertex 43.3038 -18 0
    endloop
  endfacet
  facet normal 0 0 -1
    outer loop
      vertex 44.0411 -19.0148 0
      vertex -58.3 4.8 0
      vertex 43.6459 -18.5267 0
    endloop
  endfacet
  facet normal 0 0 -1
    outer loop
      vertex -108.5 -55 0
      vertex 44.0411 -19.0148 0
      vertex 44.4852 -19.4589 0
    endloop
  endfacet
  facet normal 0 0 -1
    outer loop
      vertex -108.5 -55 0
      vertex 44.4852 -19.4589 0
      vertex 44.9733 -19.8541 0
    endloop
  endfacet
  facet normal 0 0 -1
    outer loop
      vertex -108.5 -55 0
      vertex 44.9733 -19.8541 0
      vertex 45.5 -20.1962 0
    endloop
  endfacet
  facet normal -0 0 -1
    outer loop
      vertex 46.0596 -20.4813 0
      vertex -108.5 -55 0
      vertex 45.5 -20.1962 0
    endloop
  endfacet
  facet normal -0 0 -1
    outer loop
      vertex 44.0411 -19.0148 0
      vertex -108.5 -55 0
      vertex -58.3 4.8 0
    endloop
  endfacet
  facet normal -0 0 -1
    outer loop
      vertex -58.3 4.8 0
      vertex -108.5 -55 0
      vertex -108.5 4.8 0
    endloop
  endfacet
  facet normal 0 0 -1
    outer loop
      vertex 74.4671 -14.3728 0
      vertex 108.5 4.8 0
      vertex 74.5 -15 0
    endloop
  endfacet
  facet normal 0 0 -1
    outer loop
      vertex 74.3689 -13.7525 0
      vertex 108.5 4.8 0
      vertex 74.4671 -14.3728 0
    endloop
  endfacet
  facet normal 0 0 -1
    outer loop
      vertex 74.2063 -13.1459 0
      vertex 108.5 4.8 0
      vertex 74.3689 -13.7525 0
    endloop
  endfacet
  facet normal 0 0 -1
    outer loop
      vertex 73.9813 -12.5596 0
      vertex 108.5 4.8 0
      vertex 74.2063 -13.1459 0
    endloop
  endfacet
  facet normal 0 0 -1
    outer loop
      vertex 73.6962 -12 0
      vertex 108.5 4.8 0
      vertex 73.9813 -12.5596 0
    endloop
  endfacet
  facet normal 0 0 -1
    outer loop
      vertex 73.3541 -11.4733 0
      vertex 108.5 4.8 0
      vertex 73.6962 -12 0
    endloop
  endfacet
  facet normal 0 0 -1
    outer loop
      vertex 72.9589 -10.9852 0
      vertex 108.5 4.8 0
      vertex 73.3541 -11.4733 0
    endloop
  endfacet
  facet normal 0 0 -1
    outer loop
      vertex 72.5148 -10.5411 0
      vertex 108.5 4.8 0
      vertex 72.9589 -10.9852 0
    endloop
  endfacet
  facet normal 0 0 -1
    outer loop
      vertex 72.0267 -10.1459 0
      vertex 108.5 4.8 0
      vertex 72.5148 -10.5411 0
    endloop
  endfacet
  facet normal 0 0 -1
    outer loop
      vertex 71.5 -9.80385 0
      vertex 108.5 4.8 0
      vertex 72.0267 -10.1459 0
    endloop
  endfacet
  facet normal 0 0 -1
    outer loop
      vertex 70.9404 -9.51873 0
      vertex 108.5 4.8 0
      vertex 71.5 -9.80385 0
    endloop
  endfacet
  facet normal 0 0 -1
    outer loop
      vertex 58.3 4.8 0
      vertex 70.9404 -9.51873 0
      vertex 70.3541 -9.29366 0
    endloop
  endfacet
  facet normal 0 0 -1
    outer loop
      vertex 58.3 4.8 0
      vertex 70.3541 -9.29366 0
      vertex 69.7475 -9.13111 0
    endloop
  endfacet
  facet normal 0 0 -1
    outer loop
      vertex 58.3 4.8 0
      vertex 69.7475 -9.13111 0
      vertex 69.1272 -9.03287 0
    endloop
  endfacet
  facet normal 0 0 -1
    outer loop
      vertex 58.3 4.8 0
      vertex 69.1272 -9.03287 0
      vertex 68.5 -9 0
    endloop
  endfacet
  facet normal 0 0 -1
    outer loop
      vertex 70.9404 -9.51873 0
      vertex 58.3 4.8 0
      vertex 108.5 4.8 0
    endloop
  endfacet
  facet normal 0 0 -1
    outer loop
      vertex 47.8728 -9.03287 0
      vertex 58.3 4.8 0
      vertex 48.5 -9 0
    endloop
  endfacet
  facet normal 0 0 -1
    outer loop
      vertex 48.5 -9 0
      vertex 58.3 4.8 0
      vertex 68.5 -9 0
    endloop
  endfacet
  facet normal 0 0 -1
    outer loop
      vertex 58.3 15.2 0
      vertex 108.5 48.3538 0
      vertex 108.5 15.2 0
    endloop
  endfacet
  facet normal 0 0 -1
    outer loop
      vertex 47.2525 -9.13111 0
      vertex 58.3 4.8 0
      vertex 47.8728 -9.03287 0
    endloop
  endfacet
  facet normal 0 0 -1
    outer loop
      vertex 46.6459 -9.29366 0
      vertex 58.3 4.8 0
      vertex 47.2525 -9.13111 0
    endloop
  endfacet
  facet normal 0 0 -1
    outer loop
      vertex 46.0596 -9.51873 0
      vertex 58.3 4.8 0
      vertex 46.6459 -9.29366 0
    endloop
  endfacet
  facet normal -0 0 -1
    outer loop
      vertex 58.3 4.8 0
      vertex 46.0596 -9.51873 0
      vertex 58.3 15.2 0
    endloop
  endfacet
  facet normal 0 0 -1
    outer loop
      vertex 45.5 -9.80385 0
      vertex 58.3 15.2 0
      vertex 46.0596 -9.51873 0
    endloop
  endfacet
  facet normal 0 0 -1
    outer loop
      vertex 44.9733 -10.1459 0
      vertex 58.3 15.2 0
      vertex 45.5 -9.80385 0
    endloop
  endfacet
  facet normal 0 0 -1
    outer loop
      vertex 44.4852 -10.5411 0
      vertex 58.3 15.2 0
      vertex 44.9733 -10.1459 0
    endloop
  endfacet
  facet normal 0 0 -1
    outer loop
      vertex 44.0411 -10.9852 0
      vertex 58.3 15.2 0
      vertex 44.4852 -10.5411 0
    endloop
  endfacet
  facet normal 0 0 -1
    outer loop
      vertex -58.3 15.2 0
      vertex 44.0411 -10.9852 0
      vertex 43.6459 -11.4733 0
    endloop
  endfacet
  facet normal 0 0 -1
    outer loop
      vertex -58.3 15.2 0
      vertex 43.6459 -11.4733 0
      vertex 43.3038 -12 0
    endloop
  endfacet
  facet normal 0 0 -1
    outer loop
      vertex -58.3 4.8 0
      vertex 42.5329 -14.3728 0
      vertex 42.5 -15 0
    endloop
  endfacet
  facet normal 0 0 -1
    outer loop
      vertex -58.3 4.8 0
      vertex 42.6311 -13.7525 0
      vertex 42.5329 -14.3728 0
    endloop
  endfacet
  facet normal 0 0 -1
    outer loop
      vertex -58.3 4.8 0
      vertex 42.7937 -13.1459 0
      vertex 42.6311 -13.7525 0
    endloop
  endfacet
  facet normal 0 0 -1
    outer loop
      vertex -58.3 4.8 0
      vertex 43.0187 -12.5596 0
      vertex 42.7937 -13.1459 0
    endloop
  endfacet
  facet normal 0 0 -1
    outer loop
      vertex -58.3 15.2 0
      vertex 43.0187 -12.5596 0
      vertex -58.3 4.8 0
    endloop
  endfacet
  facet normal 0 0 -1
    outer loop
      vertex 43.0187 -12.5596 0
      vertex -58.3 15.2 0
      vertex 43.3038 -12 0
    endloop
  endfacet
  facet normal 0 0 -1
    outer loop
      vertex 44.0411 -10.9852 0
      vertex -58.3 15.2 0
      vertex 58.3 15.2 0
    endloop
  endfacet
  facet normal 0 0 -1
    outer loop
      vertex 58.3 15.2 0
      vertex -58.3 15.2 0
      vertex 108.5 48.3538 0
    endloop
  endfacet
  facet normal 0 0 -1
    outer loop
      vertex -108.5 35 0
      vertex -58.3 15.2 0
      vertex -108.5 15.2 0
    endloop
  endfacet
  facet normal 0 0 -1
    outer loop
      vertex -58.3 15.2 0
      vertex -108.5 35 0
      vertex 108.5 48.3538 0
    endloop
  endfacet
  facet normal 0 0 1
    outer loop
      vertex 108.5 48.3538 0.599999
      vertex 58.3 15.2 0.599999
      vertex 108.5 15.2 0.599999
    endloop
  endfacet
  facet normal 0 0 1
    outer loop
      vertex 46.0596 -9.51873 0.599999
      vertex 58.3 4.8 0.599999
      vertex 58.3 15.2 0.599999
    endloop
  endfacet
  facet normal 0 0 1
    outer loop
      vertex 58.3 4.8 0.599999
      vertex 47.8728 -9.03287 0.599999
      vertex 48.5 -9 0.599999
    endloop
  endfacet
  facet normal 0 0 1
    outer loop
      vertex 58.3 4.8 0.599999
      vertex 47.2525 -9.13111 0.599999
      vertex 47.8728 -9.03287 0.599999
    endloop
  endfacet
  facet normal 0 0 1
    outer loop
      vertex 58.3 4.8 0.599999
      vertex 46.6459 -9.29366 0.599999
      vertex 47.2525 -9.13111 0.599999
    endloop
  endfacet
  facet normal 0 0 1
    outer loop
      vertex 58.3 4.8 0.599999
      vertex 46.0596 -9.51873 0.599999
      vertex 46.6459 -9.29366 0.599999
    endloop
  endfacet
  facet normal 0 0 1
    outer loop
      vertex 58.3 15.2 0.599999
      vertex 45.5 -9.80385 0.599999
      vertex 46.0596 -9.51873 0.599999
    endloop
  endfacet
  facet normal 0 0 1
    outer loop
      vertex 58.3 15.2 0.599999
      vertex 44.9733 -10.1459 0.599999
      vertex 45.5 -9.80385 0.599999
    endloop
  endfacet
  facet normal 0 0 1
    outer loop
      vertex 58.3 15.2 0.599999
      vertex 44.4852 -10.5411 0.599999
      vertex 44.9733 -10.1459 0.599999
    endloop
  endfacet
  facet normal 0 0 1
    outer loop
      vertex 58.3 15.2 0.599999
      vertex 44.0411 -10.9852 0.599999
      vertex 44.4852 -10.5411 0.599999
    endloop
  endfacet
  facet normal -0 0 1
    outer loop
      vertex -58.3 15.2 0.599999
      vertex 44.0411 -10.9852 0.599999
      vertex 58.3 15.2 0.599999
    endloop
  endfacet
  facet normal 0 0 1
    outer loop
      vertex 44.0411 -10.9852 0.599999
      vertex -58.3 15.2 0.599999
      vertex 43.6459 -11.4733 0.599999
    endloop
  endfacet
  facet normal 0 0 1
    outer loop
      vertex 42.6311 -13.7525 0.599999
      vertex -58.3 4.8 0.599999
      vertex 42.5329 -14.3728 0.599999
    endloop
  endfacet
  facet normal 0 0 1
    outer loop
      vertex 42.7937 -13.1459 0.599999
      vertex -58.3 4.8 0.599999
      vertex 42.6311 -13.7525 0.599999
    endloop
  endfacet
  facet normal 0 0 1
    outer loop
      vertex 43.0187 -12.5596 0.599999
      vertex -58.3 4.8 0.599999
      vertex 42.7937 -13.1459 0.599999
    endloop
  endfacet
  facet normal -0 0 1
    outer loop
      vertex -58.3 4.8 0.599999
      vertex 43.0187 -12.5596 0.599999
      vertex -58.3 15.2 0.599999
    endloop
  endfacet
  facet normal 0 0 1
    outer loop
      vertex 43.3038 -12 0.599999
      vertex -58.3 15.2 0.599999
      vertex 43.0187 -12.5596 0.599999
    endloop
  endfacet
  facet normal 0 0 1
    outer loop
      vertex 43.6459 -11.4733 0.599999
      vertex -58.3 15.2 0.599999
      vertex 43.3038 -12 0.599999
    endloop
  endfacet
  facet normal 0 0 1
    outer loop
      vertex 108.5 48.3538 0.599999
      vertex -58.3 15.2 0.599999
      vertex 58.3 15.2 0.599999
    endloop
  endfacet
  facet normal -0 0 1
    outer loop
      vertex -108.5 35 0.599999
      vertex -58.3 15.2 0.599999
      vertex 108.5 48.3538 0.599999
    endloop
  endfacet
  facet normal 0 0 1
    outer loop
      vertex -58.3 15.2 0.599999
      vertex -108.5 35 0.599999
      vertex -108.5 15.2 0.599999
    endloop
  endfacet
  facet normal 0 0 1
    outer loop
      vertex 74.4671 -15.6272 0.599999
      vertex 108.5 4.8 0.599999
      vertex 74.5 -15 0.599999
    endloop
  endfacet
  facet normal 0 0 1
    outer loop
      vertex 108.5 4.8 0.599999
      vertex 74.4671 -14.3728 0.599999
      vertex 74.5 -15 0.599999
    endloop
  endfacet
  facet normal 0 0 1
    outer loop
      vertex 108.5 4.8 0.599999
      vertex 74.3689 -13.7525 0.599999
      vertex 74.4671 -14.3728 0.599999
    endloop
  endfacet
  facet normal 0 0 1
    outer loop
      vertex 108.5 4.8 0.599999
      vertex 74.2063 -13.1459 0.599999
      vertex 74.3689 -13.7525 0.599999
    endloop
  endfacet
  facet normal 0 0 1
    outer loop
      vertex 108.5 4.8 0.599999
      vertex 73.9813 -12.5596 0.599999
      vertex 74.2063 -13.1459 0.599999
    endloop
  endfacet
  facet normal 0 0 1
    outer loop
      vertex 108.5 4.8 0.599999
      vertex 73.6962 -12 0.599999
      vertex 73.9813 -12.5596 0.599999
    endloop
  endfacet
  facet normal 0 0 1
    outer loop
      vertex 108.5 4.8 0.599999
      vertex 73.3541 -11.4733 0.599999
      vertex 73.6962 -12 0.599999
    endloop
  endfacet
  facet normal 0 0 1
    outer loop
      vertex 108.5 4.8 0.599999
      vertex 72.9589 -10.9852 0.599999
      vertex 73.3541 -11.4733 0.599999
    endloop
  endfacet
  facet normal 0 0 1
    outer loop
      vertex 108.5 4.8 0.599999
      vertex 72.5148 -10.5411 0.599999
      vertex 72.9589 -10.9852 0.599999
    endloop
  endfacet
  facet normal 0 0 1
    outer loop
      vertex 108.5 4.8 0.599999
      vertex 72.0267 -10.1459 0.599999
      vertex 72.5148 -10.5411 0.599999
    endloop
  endfacet
  facet normal 0 0 1
    outer loop
      vertex 108.5 4.8 0.599999
      vertex 71.5 -9.80385 0.599999
      vertex 72.0267 -10.1459 0.599999
    endloop
  endfacet
  facet normal 0 0 1
    outer loop
      vertex 108.5 4.8 0.599999
      vertex 70.9404 -9.51873 0.599999
      vertex 71.5 -9.80385 0.599999
    endloop
  endfacet
  facet normal -0 0 1
    outer loop
      vertex 58.3 4.8 0.599999
      vertex 70.9404 -9.51873 0.599999
      vertex 108.5 4.8 0.599999
    endloop
  endfacet
  facet normal 0 0 1
    outer loop
      vertex 70.9404 -9.51873 0.599999
      vertex 58.3 4.8 0.599999
      vertex 70.3541 -9.29366 0.599999
    endloop
  endfacet
  facet normal 0 0 1
    outer loop
      vertex 70.3541 -9.29366 0.599999
      vertex 58.3 4.8 0.599999
      vertex 69.7475 -9.13111 0.599999
    endloop
  endfacet
  facet normal 0 0 1
    outer loop
      vertex 69.7475 -9.13111 0.599999
      vertex 58.3 4.8 0.599999
      vertex 69.1272 -9.03287 0.599999
    endloop
  endfacet
  facet normal 0 0 1
    outer loop
      vertex 69.1272 -9.03287 0.599999
      vertex 58.3 4.8 0.599999
      vertex 68.5 -9 0.599999
    endloop
  endfacet
  facet normal 0 0 1
    outer loop
      vertex 68.5 -9 0.599999
      vertex 58.3 4.8 0.599999
      vertex 48.5 -9 0.599999
    endloop
  endfacet
  facet normal 0 0 1
    outer loop
      vertex 74.3689 -16.2475 0.599999
      vertex 108.5 4.8 0.599999
      vertex 74.4671 -15.6272 0.599999
    endloop
  endfacet
  facet normal 0 0 1
    outer loop
      vertex 74.2063 -16.8541 0.599999
      vertex 108.5 4.8 0.599999
      vertex 74.3689 -16.2475 0.599999
    endloop
  endfacet
  facet normal 0 0 1
    outer loop
      vertex 108.5 4.8 0.599999
      vertex 74.2063 -16.8541 0.599999
      vertex 108.5 -55 0.599999
    endloop
  endfacet
  facet normal -0 0 1
    outer loop
      vertex 73.9813 -17.4404 0.599999
      vertex 108.5 -55 0.599999
      vertex 74.2063 -16.8541 0.599999
    endloop
  endfacet
  facet normal -0 0 1
    outer loop
      vertex 73.6962 -18 0.599999
      vertex 108.5 -55 0.599999
      vertex 73.9813 -17.4404 0.599999
    endloop
  endfacet
  facet normal -0 0 1
    outer loop
      vertex 73.3541 -18.5267 0.599999
      vertex 108.5 -55 0.599999
      vertex 73.6962 -18 0.599999
    endloop
  endfacet
  facet normal -0 0 1
    outer loop
      vertex 72.9589 -19.0148 0.599999
      vertex 108.5 -55 0.599999
      vertex 73.3541 -18.5267 0.599999
    endloop
  endfacet
  facet normal -0 0 1
    outer loop
      vertex 72.5148 -19.4589 0.599999
      vertex 108.5 -55 0.599999
      vertex 72.9589 -19.0148 0.599999
    endloop
  endfacet
  facet normal -0 0 1
    outer loop
      vertex 72.0267 -19.8541 0.599999
      vertex 108.5 -55 0.599999
      vertex 72.5148 -19.4589 0.599999
    endloop
  endfacet
  facet normal -0 0 1
    outer loop
      vertex 71.5 -20.1962 0.599999
      vertex 108.5 -55 0.599999
      vertex 72.0267 -19.8541 0.599999
    endloop
  endfacet
  facet normal -0 0 1
    outer loop
      vertex 70.9404 -20.4813 0.599999
      vertex 108.5 -55 0.599999
      vertex 71.5 -20.1962 0.599999
    endloop
  endfacet
  facet normal -0 0 1
    outer loop
      vertex 70.3541 -20.7063 0.599999
      vertex 108.5 -55 0.599999
      vertex 70.9404 -20.4813 0.599999
    endloop
  endfacet
  facet normal -0 0 1
    outer loop
      vertex 69.7475 -20.8689 0.599999
      vertex 108.5 -55 0.599999
      vertex 70.3541 -20.7063 0.599999
    endloop
  endfacet
  facet normal -0 0 1
    outer loop
      vertex 69.1272 -20.9671 0.599999
      vertex 108.5 -55 0.599999
      vertex 69.7475 -20.8689 0.599999
    endloop
  endfacet
  facet normal -0 0 1
    outer loop
      vertex 68.5 -21 0.599999
      vertex 108.5 -55 0.599999
      vertex 69.1272 -20.9671 0.599999
    endloop
  endfacet
  facet normal -0 0 1
    outer loop
      vertex 48.5 -21 0.599999
      vertex 108.5 -55 0.599999
      vertex 68.5 -21 0.599999
    endloop
  endfacet
  facet normal 0 0 1
    outer loop
      vertex 47.8728 -20.9671 0.599999
      vertex 108.5 -55 0.599999
      vertex 48.5 -21 0.599999
    endloop
  endfacet
  facet normal 0 0 1
    outer loop
      vertex 47.2525 -20.8689 0.599999
      vertex 108.5 -55 0.599999
      vertex 47.8728 -20.9671 0.599999
    endloop
  endfacet
  facet normal 0 0 1
    outer loop
      vertex 46.6459 -20.7063 0.599999
      vertex 108.5 -55 0.599999
      vertex 47.2525 -20.8689 0.599999
    endloop
  endfacet
  facet normal 0 0 1
    outer loop
      vertex -108.5 -55 0.599999
      vertex 46.6459 -20.7063 0.599999
      vertex 46.0596 -20.4813 0.599999
    endloop
  endfacet
  facet normal 0 0 1
    outer loop
      vertex -108.5 -55 0.599999
      vertex 46.0596 -20.4813 0.599999
      vertex 45.5 -20.1962 0.599999
    endloop
  endfacet
  facet normal 0 0 1
    outer loop
      vertex 42.5329 -14.3728 0.599999
      vertex -58.3 4.8 0.599999
      vertex 42.5 -15 0.599999
    endloop
  endfacet
  facet normal 0 0 1
    outer loop
      vertex 42.5 -15 0.599999
      vertex -58.3 4.8 0.599999
      vertex 42.5329 -15.6272 0.599999
    endloop
  endfacet
  facet normal 0 0 1
    outer loop
      vertex 42.5329 -15.6272 0.599999
      vertex -58.3 4.8 0.599999
      vertex 42.6311 -16.2475 0.599999
    endloop
  endfacet
  facet normal 0 0 1
    outer loop
      vertex 42.6311 -16.2475 0.599999
      vertex -58.3 4.8 0.599999
      vertex 42.7937 -16.8541 0.599999
    endloop
  endfacet
  facet normal 0 0 1
    outer loop
      vertex 42.7937 -16.8541 0.599999
      vertex -58.3 4.8 0.599999
      vertex 43.0187 -17.4404 0.599999
    endloop
  endfacet
  facet normal 0 0 1
    outer loop
      vertex 43.0187 -17.4404 0.599999
      vertex -58.3 4.8 0.599999
      vertex 43.3038 -18 0.599999
    endloop
  endfacet
  facet normal 0 0 1
    outer loop
      vertex 43.3038 -18 0.599999
      vertex -58.3 4.8 0.599999
      vertex 43.6459 -18.5267 0.599999
    endloop
  endfacet
  facet normal 0 0 1
    outer loop
      vertex 43.6459 -18.5267 0.599999
      vertex -58.3 4.8 0.599999
      vertex 44.0411 -19.0148 0.599999
    endloop
  endfacet
  facet normal 0 0 1
    outer loop
      vertex -108.5 -55 0.599999
      vertex 44.0411 -19.0148 0.599999
      vertex -58.3 4.8 0.599999
    endloop
  endfacet
  facet normal 0 0 1
    outer loop
      vertex 44.0411 -19.0148 0.599999
      vertex -108.5 -55 0.599999
      vertex 44.4852 -19.4589 0.599999
    endloop
  endfacet
  facet normal 0 0 1
    outer loop
      vertex 44.4852 -19.4589 0.599999
      vertex -108.5 -55 0.599999
      vertex 44.9733 -19.8541 0.599999
    endloop
  endfacet
  facet normal 0 0 1
    outer loop
      vertex 44.9733 -19.8541 0.599999
      vertex -108.5 -55 0.599999
      vertex 45.5 -20.1962 0.599999
    endloop
  endfacet
  facet normal 0 0 1
    outer loop
      vertex -108.5 -55 0.599999
      vertex -58.3 4.8 0.599999
      vertex -108.5 4.8 0.599999
    endloop
  endfacet
  facet normal 0 0 1
    outer loop
      vertex 46.6459 -20.7063 0.599999
      vertex -108.5 -55 0.599999
      vertex 108.5 -55 0.599999
    endloop
  endfacet
  facet normal -0.0614221 0.998112 0
    outer loop
      vertex 108.5 48.3538 0
      vertex -108.5 35 0.599999
      vertex 108.5 48.3538 0.599999
    endloop
  endfacet
  facet normal -0.0614221 0.998112 0
    outer loop
      vertex -108.5 35 0.599999
      vertex 108.5 48.3538 0
      vertex -108.5 35 0
    endloop
  endfacet
  facet normal 0 -1 0
    outer loop
      vertex -108.5 -55 0
      vertex 108.5 -55 0.599999
      vertex -108.5 -55 0.599999
    endloop
  endfacet
  facet normal 0 -1 -0
    outer loop
      vertex 108.5 -55 0.599999
      vertex -108.5 -55 0
      vertex 108.5 -55 0
    endloop
  endfacet
  facet normal 0.0523833 0.998627 -0
    outer loop
      vertex 48.5 -21 0
      vertex 47.8728 -20.9671 0.599999
      vertex 48.5 -21 0.599999
    endloop
  endfacet
  facet normal 0.0523833 0.998627 0
    outer loop
      vertex 47.8728 -20.9671 0.599999
      vertex 48.5 -21 0
      vertex 47.8728 -20.9671 0
    endloop
  endfacet
  facet normal 0.258911 0.965901 -0
    outer loop
      vertex 47.2525 -20.8689 0
      vertex 46.6459 -20.7063 0.599999
      vertex 47.2525 -20.8689 0.599999
    endloop
  endfacet
  facet normal 0.258911 0.965901 0
    outer loop
      vertex 46.6459 -20.7063 0.599999
      vertex 47.2525 -20.8689 0
      vertex 46.6459 -20.7063 0
    endloop
  endfacet
  facet normal 0.998627 0.0523833 0
    outer loop
      vertex 42.5329 -15.6272 0.599999
      vertex 42.5 -15 0
      vertex 42.5 -15 0.599999
    endloop
  endfacet
  facet normal 0.998627 0.0523833 0
    outer loop
      vertex 42.5 -15 0
      vertex 42.5329 -15.6272 0.599999
      vertex 42.5329 -15.6272 0
    endloop
  endfacet
  facet normal -0.9877 0.156363 0
    outer loop
      vertex 74.3689 -16.2475 0
      vertex 74.4671 -15.6272 0.599999
      vertex 74.4671 -15.6272 0
    endloop
  endfacet
  facet normal -0.9877 0.156363 0
    outer loop
      vertex 74.4671 -15.6272 0.599999
      vertex 74.3689 -16.2475 0
      vertex 74.3689 -16.2475 0.599999
    endloop
  endfacet
  facet normal -0.707107 0.707107 0
    outer loop
      vertex 72.5148 -19.4589 0
      vertex 72.9589 -19.0148 0.599999
      vertex 72.9589 -19.0148 0
    endloop
  endfacet
  facet normal -0.707107 0.707107 0
    outer loop
      vertex 72.9589 -19.0148 0.599999
      vertex 72.5148 -19.4589 0
      vertex 72.5148 -19.4589 0.599999
    endloop
  endfacet
  facet normal -0.358285 0.933612 0
    outer loop
      vertex 70.9404 -20.4813 0
      vertex 70.3541 -20.7063 0.599999
      vertex 70.9404 -20.4813 0.599999
    endloop
  endfacet
  facet normal -0.358285 0.933612 0
    outer loop
      vertex 70.3541 -20.7063 0.599999
      vertex 70.9404 -20.4813 0
      vertex 70.3541 -20.7063 0
    endloop
  endfacet
  facet normal 0 -1 0
    outer loop
      vertex 48.5 -9 0
      vertex 68.5 -9 0.599999
      vertex 48.5 -9 0.599999
    endloop
  endfacet
  facet normal 0 -1 -0
    outer loop
      vertex 68.5 -9 0.599999
      vertex 48.5 -9 0
      vertex 68.5 -9 0
    endloop
  endfacet
  facet normal -0.777189 -0.629267 0
    outer loop
      vertex 73.3541 -11.4733 0
      vertex 72.9589 -10.9852 0.599999
      vertex 72.9589 -10.9852 0
    endloop
  endfacet
  facet normal -0.777189 -0.629267 0
    outer loop
      vertex 72.9589 -10.9852 0.599999
      vertex 73.3541 -11.4733 0
      vertex 73.3541 -11.4733 0.599999
    endloop
  endfacet
  facet normal -0.891026 -0.453952 0
    outer loop
      vertex 73.9813 -12.5596 0
      vertex 73.6962 -12 0.599999
      vertex 73.6962 -12 0
    endloop
  endfacet
  facet normal -0.891026 -0.453952 0
    outer loop
      vertex 73.6962 -12 0.599999
      vertex 73.9813 -12.5596 0
      vertex 73.9813 -12.5596 0.599999
    endloop
  endfacet
  facet normal -0.453952 0.891026 0
    outer loop
      vertex 71.5 -20.1962 0
      vertex 70.9404 -20.4813 0.599999
      vertex 71.5 -20.1962 0.599999
    endloop
  endfacet
  facet normal -0.453952 0.891026 0
    outer loop
      vertex 70.9404 -20.4813 0.599999
      vertex 71.5 -20.1962 0
      vertex 70.9404 -20.4813 0
    endloop
  endfacet
  facet normal 0.891026 -0.453952 0
    outer loop
      vertex 43.0187 -12.5596 0.599999
      vertex 43.3038 -12 0
      vertex 43.3038 -12 0.599999
    endloop
  endfacet
  facet normal 0.891026 -0.453952 0
    outer loop
      vertex 43.3038 -12 0
      vertex 43.0187 -12.5596 0.599999
      vertex 43.0187 -12.5596 0
    endloop
  endfacet
  facet normal 0.891026 0.453952 0
    outer loop
      vertex 43.3038 -18 0.599999
      vertex 43.0187 -17.4404 0
      vertex 43.0187 -17.4404 0.599999
    endloop
  endfacet
  facet normal 0.891026 0.453952 0
    outer loop
      vertex 43.0187 -17.4404 0
      vertex 43.3038 -18 0.599999
      vertex 43.3038 -18 0
    endloop
  endfacet
  facet normal 0.156425 -0.98769 0
    outer loop
      vertex 47.2525 -9.13111 0
      vertex 47.8728 -9.03287 0.599999
      vertex 47.2525 -9.13111 0.599999
    endloop
  endfacet
  facet normal 0.156425 -0.98769 0
    outer loop
      vertex 47.8728 -9.03287 0.599999
      vertex 47.2525 -9.13111 0
      vertex 47.8728 -9.03287 0
    endloop
  endfacet
  facet normal -0.544703 0.838629 0
    outer loop
      vertex 72.0267 -19.8541 0
      vertex 71.5 -20.1962 0.599999
      vertex 72.0267 -19.8541 0.599999
    endloop
  endfacet
  facet normal -0.544703 0.838629 0
    outer loop
      vertex 71.5 -20.1962 0.599999
      vertex 72.0267 -19.8541 0
      vertex 71.5 -20.1962 0
    endloop
  endfacet
  facet normal -0.358383 -0.933575 0
    outer loop
      vertex 70.3541 -9.29366 0
      vertex 70.9404 -9.51873 0.599999
      vertex 70.3541 -9.29366 0.599999
    endloop
  endfacet
  facet normal -0.358383 -0.933575 -0
    outer loop
      vertex 70.9404 -9.51873 0.599999
      vertex 70.3541 -9.29366 0
      vertex 70.9404 -9.51873 0
    endloop
  endfacet
  facet normal 0 1 -0
    outer loop
      vertex 68.5 -21 0
      vertex 48.5 -21 0.599999
      vertex 68.5 -21 0.599999
    endloop
  endfacet
  facet normal 0 1 0
    outer loop
      vertex 48.5 -21 0.599999
      vertex 68.5 -21 0
      vertex 48.5 -21 0
    endloop
  endfacet
  facet normal -0.777189 0.629267 0
    outer loop
      vertex 72.9589 -19.0148 0
      vertex 73.3541 -18.5267 0.599999
      vertex 73.3541 -18.5267 0
    endloop
  endfacet
  facet normal -0.777189 0.629267 0
    outer loop
      vertex 73.3541 -18.5267 0.599999
      vertex 72.9589 -19.0148 0
      vertex 72.9589 -19.0148 0.599999
    endloop
  endfacet
  facet normal -0.933612 0.358285 0
    outer loop
      vertex 73.9813 -17.4404 0
      vertex 74.2063 -16.8541 0.599999
      vertex 74.2063 -16.8541 0
    endloop
  endfacet
  facet normal -0.933612 0.358285 0
    outer loop
      vertex 74.2063 -16.8541 0.599999
      vertex 73.9813 -17.4404 0
      vertex 73.9813 -17.4404 0.599999
    endloop
  endfacet
  facet normal 0.358383 -0.933575 0
    outer loop
      vertex 46.0596 -9.51873 0
      vertex 46.6459 -9.29366 0.599999
      vertex 46.0596 -9.51873 0.599999
    endloop
  endfacet
  facet normal 0.358383 -0.933575 0
    outer loop
      vertex 46.6459 -9.29366 0.599999
      vertex 46.0596 -9.51873 0
      vertex 46.6459 -9.29366 0
    endloop
  endfacet
  facet normal 0.998627 -0.0523833 0
    outer loop
      vertex 42.5 -15 0.599999
      vertex 42.5329 -14.3728 0
      vertex 42.5329 -14.3728 0.599999
    endloop
  endfacet
  facet normal 0.998627 -0.0523833 0
    outer loop
      vertex 42.5329 -14.3728 0
      vertex 42.5 -15 0.599999
      vertex 42.5 -15 0
    endloop
  endfacet
  facet normal 0.258837 -0.965921 0
    outer loop
      vertex 46.6459 -9.29366 0
      vertex 47.2525 -9.13111 0.599999
      vertex 46.6459 -9.29366 0.599999
    endloop
  endfacet
  facet normal 0.258837 -0.965921 0
    outer loop
      vertex 47.2525 -9.13111 0.599999
      vertex 46.6459 -9.29366 0
      vertex 47.2525 -9.13111 0
    endloop
  endfacet
  facet normal -0.0523833 0.998627 0
    outer loop
      vertex 69.1272 -20.9671 0
      vertex 68.5 -21 0.599999
      vertex 69.1272 -20.9671 0.599999
    endloop
  endfacet
  facet normal -0.0523833 0.998627 0
    outer loop
      vertex 68.5 -21 0.599999
      vertex 69.1272 -20.9671 0
      vertex 68.5 -21 0
    endloop
  endfacet
  facet normal 0.933612 -0.358285 0
    outer loop
      vertex 42.7937 -13.1459 0.599999
      vertex 43.0187 -12.5596 0
      vertex 43.0187 -12.5596 0.599999
    endloop
  endfacet
  facet normal 0.933612 -0.358285 0
    outer loop
      vertex 43.0187 -12.5596 0
      vertex 42.7937 -13.1459 0.599999
      vertex 42.7937 -13.1459 0
    endloop
  endfacet
  facet normal 0.933612 0.358285 0
    outer loop
      vertex 43.0187 -17.4404 0.599999
      vertex 42.7937 -16.8541 0
      vertex 42.7937 -16.8541 0.599999
    endloop
  endfacet
  facet normal 0.933612 0.358285 0
    outer loop
      vertex 42.7937 -16.8541 0
      vertex 43.0187 -17.4404 0.599999
      vertex 43.0187 -17.4404 0
    endloop
  endfacet
  facet normal 0.965901 0.258911 0
    outer loop
      vertex 42.7937 -16.8541 0.599999
      vertex 42.6311 -16.2475 0
      vertex 42.6311 -16.2475 0.599999
    endloop
  endfacet
  facet normal 0.965901 0.258911 0
    outer loop
      vertex 42.6311 -16.2475 0
      vertex 42.7937 -16.8541 0.599999
      vertex 42.7937 -16.8541 0
    endloop
  endfacet
  facet normal -0.156363 0.9877 0
    outer loop
      vertex 69.7475 -20.8689 0
      vertex 69.1272 -20.9671 0.599999
      vertex 69.7475 -20.8689 0.599999
    endloop
  endfacet
  facet normal -0.156363 0.9877 0
    outer loop
      vertex 69.1272 -20.9671 0.599999
      vertex 69.7475 -20.8689 0
      vertex 69.1272 -20.9671 0
    endloop
  endfacet
  facet normal 0.629267 0.777189 -0
    outer loop
      vertex 44.9733 -19.8541 0
      vertex 44.4852 -19.4589 0.599999
      vertex 44.9733 -19.8541 0.599999
    endloop
  endfacet
  facet normal 0.629267 0.777189 0
    outer loop
      vertex 44.4852 -19.4589 0.599999
      vertex 44.9733 -19.8541 0
      vertex 44.4852 -19.4589 0
    endloop
  endfacet
  facet normal 0.707107 0.707107 0
    outer loop
      vertex 44.4852 -19.4589 0.599999
      vertex 44.0411 -19.0148 0
      vertex 44.0411 -19.0148 0.599999
    endloop
  endfacet
  facet normal 0.707107 0.707107 0
    outer loop
      vertex 44.0411 -19.0148 0
      vertex 44.4852 -19.4589 0.599999
      vertex 44.4852 -19.4589 0
    endloop
  endfacet
  facet normal -0.258911 0.965901 0
    outer loop
      vertex 70.3541 -20.7063 0
      vertex 69.7475 -20.8689 0.599999
      vertex 70.3541 -20.7063 0.599999
    endloop
  endfacet
  facet normal -0.258911 0.965901 0
    outer loop
      vertex 69.7475 -20.8689 0.599999
      vertex 70.3541 -20.7063 0
      vertex 69.7475 -20.8689 0
    endloop
  endfacet
  facet normal 0.453952 0.891026 -0
    outer loop
      vertex 46.0596 -20.4813 0
      vertex 45.5 -20.1962 0.599999
      vertex 46.0596 -20.4813 0.599999
    endloop
  endfacet
  facet normal 0.453952 0.891026 0
    outer loop
      vertex 45.5 -20.1962 0.599999
      vertex 46.0596 -20.4813 0
      vertex 45.5 -20.1962 0
    endloop
  endfacet
  facet normal -0.965901 0.258911 0
    outer loop
      vertex 74.2063 -16.8541 0
      vertex 74.3689 -16.2475 0.599999
      vertex 74.3689 -16.2475 0
    endloop
  endfacet
  facet normal -0.965901 0.258911 0
    outer loop
      vertex 74.3689 -16.2475 0.599999
      vertex 74.2063 -16.8541 0
      vertex 74.2063 -16.8541 0.599999
    endloop
  endfacet
  facet normal 0.358285 0.933612 -0
    outer loop
      vertex 46.6459 -20.7063 0
      vertex 46.0596 -20.4813 0.599999
      vertex 46.6459 -20.7063 0.599999
    endloop
  endfacet
  facet normal 0.358285 0.933612 0
    outer loop
      vertex 46.0596 -20.4813 0.599999
      vertex 46.6459 -20.7063 0
      vertex 46.0596 -20.4813 0
    endloop
  endfacet
  facet normal -0.838629 -0.544703 0
    outer loop
      vertex 73.6962 -12 0
      vertex 73.3541 -11.4733 0.599999
      vertex 73.3541 -11.4733 0
    endloop
  endfacet
  facet normal -0.838629 -0.544703 0
    outer loop
      vertex 73.3541 -11.4733 0.599999
      vertex 73.6962 -12 0
      vertex 73.6962 -12 0.599999
    endloop
  endfacet
  facet normal 0.9877 -0.156363 0
    outer loop
      vertex 42.5329 -14.3728 0.599999
      vertex 42.6311 -13.7525 0
      vertex 42.6311 -13.7525 0.599999
    endloop
  endfacet
  facet normal 0.9877 -0.156363 0
    outer loop
      vertex 42.6311 -13.7525 0
      vertex 42.5329 -14.3728 0.599999
      vertex 42.5329 -14.3728 0
    endloop
  endfacet
  facet normal -0.9877 -0.156363 0
    outer loop
      vertex 74.4671 -14.3728 0
      vertex 74.3689 -13.7525 0.599999
      vertex 74.3689 -13.7525 0
    endloop
  endfacet
  facet normal -0.9877 -0.156363 0
    outer loop
      vertex 74.3689 -13.7525 0.599999
      vertex 74.4671 -14.3728 0
      vertex 74.4671 -14.3728 0.599999
    endloop
  endfacet
  facet normal -0.0523357 -0.99863 0
    outer loop
      vertex 68.5 -9 0
      vertex 69.1272 -9.03287 0.599999
      vertex 68.5 -9 0.599999
    endloop
  endfacet
  facet normal -0.0523357 -0.99863 -0
    outer loop
      vertex 69.1272 -9.03287 0.599999
      vertex 68.5 -9 0
      vertex 69.1272 -9.03287 0
    endloop
  endfacet
  facet normal -0.156425 -0.98769 0
    outer loop
      vertex 69.1272 -9.03287 0
      vertex 69.7475 -9.13111 0.599999
      vertex 69.1272 -9.03287 0.599999
    endloop
  endfacet
  facet normal -0.156425 -0.98769 -0
    outer loop
      vertex 69.7475 -9.13111 0.599999
      vertex 69.1272 -9.03287 0
      vertex 69.7475 -9.13111 0
    endloop
  endfacet
  facet normal 0.453977 -0.891013 0
    outer loop
      vertex 45.5 -9.80385 0
      vertex 46.0596 -9.51873 0.599999
      vertex 45.5 -9.80385 0.599999
    endloop
  endfacet
  facet normal 0.453977 -0.891013 0
    outer loop
      vertex 46.0596 -9.51873 0.599999
      vertex 45.5 -9.80385 0
      vertex 46.0596 -9.51873 0
    endloop
  endfacet
  facet normal 0.9877 0.156363 0
    outer loop
      vertex 42.6311 -16.2475 0.599999
      vertex 42.5329 -15.6272 0
      vertex 42.5329 -15.6272 0.599999
    endloop
  endfacet
  facet normal 0.9877 0.156363 0
    outer loop
      vertex 42.5329 -15.6272 0
      vertex 42.6311 -16.2475 0.599999
      vertex 42.6311 -16.2475 0
    endloop
  endfacet
  facet normal -0.453977 -0.891013 0
    outer loop
      vertex 70.9404 -9.51873 0
      vertex 71.5 -9.80385 0.599999
      vertex 70.9404 -9.51873 0.599999
    endloop
  endfacet
  facet normal -0.453977 -0.891013 -0
    outer loop
      vertex 71.5 -9.80385 0.599999
      vertex 70.9404 -9.51873 0
      vertex 71.5 -9.80385 0
    endloop
  endfacet
  facet normal 0.838629 0.544703 0
    outer loop
      vertex 43.6459 -18.5267 0.599999
      vertex 43.3038 -18 0
      vertex 43.3038 -18 0.599999
    endloop
  endfacet
  facet normal 0.838629 0.544703 0
    outer loop
      vertex 43.3038 -18 0
      vertex 43.6459 -18.5267 0.599999
      vertex 43.6459 -18.5267 0
    endloop
  endfacet
  facet normal -0.258837 -0.965921 0
    outer loop
      vertex 69.7475 -9.13111 0
      vertex 70.3541 -9.29366 0.599999
      vertex 69.7475 -9.13111 0.599999
    endloop
  endfacet
  facet normal -0.258837 -0.965921 -0
    outer loop
      vertex 70.3541 -9.29366 0.599999
      vertex 69.7475 -9.13111 0
      vertex 70.3541 -9.29366 0
    endloop
  endfacet
  facet normal 0.707107 -0.707107 0
    outer loop
      vertex 44.0411 -10.9852 0.599999
      vertex 44.4852 -10.5411 0
      vertex 44.4852 -10.5411 0.599999
    endloop
  endfacet
  facet normal 0.707107 -0.707107 0
    outer loop
      vertex 44.4852 -10.5411 0
      vertex 44.0411 -10.9852 0.599999
      vertex 44.0411 -10.9852 0
    endloop
  endfacet
  facet normal -0.933612 -0.358285 0
    outer loop
      vertex 74.2063 -13.1459 0
      vertex 73.9813 -12.5596 0.599999
      vertex 73.9813 -12.5596 0
    endloop
  endfacet
  facet normal -0.933612 -0.358285 0
    outer loop
      vertex 73.9813 -12.5596 0.599999
      vertex 74.2063 -13.1459 0
      vertex 74.2063 -13.1459 0.599999
    endloop
  endfacet
  facet normal -0.629267 0.777189 0
    outer loop
      vertex 72.5148 -19.4589 0
      vertex 72.0267 -19.8541 0.599999
      vertex 72.5148 -19.4589 0.599999
    endloop
  endfacet
  facet normal -0.629267 0.777189 0
    outer loop
      vertex 72.0267 -19.8541 0.599999
      vertex 72.5148 -19.4589 0
      vertex 72.0267 -19.8541 0
    endloop
  endfacet
  facet normal 0.777189 -0.629267 0
    outer loop
      vertex 43.6459 -11.4733 0.599999
      vertex 44.0411 -10.9852 0
      vertex 44.0411 -10.9852 0.599999
    endloop
  endfacet
  facet normal 0.777189 -0.629267 0
    outer loop
      vertex 44.0411 -10.9852 0
      vertex 43.6459 -11.4733 0.599999
      vertex 43.6459 -11.4733 0
    endloop
  endfacet
  facet normal -0.707107 -0.707107 0
    outer loop
      vertex 72.9589 -10.9852 0
      vertex 72.5148 -10.5411 0.599999
      vertex 72.5148 -10.5411 0
    endloop
  endfacet
  facet normal -0.707107 -0.707107 0
    outer loop
      vertex 72.5148 -10.5411 0.599999
      vertex 72.9589 -10.9852 0
      vertex 72.9589 -10.9852 0.599999
    endloop
  endfacet
  facet normal 0.0523357 -0.99863 0
    outer loop
      vertex 47.8728 -9.03287 0
      vertex 48.5 -9 0.599999
      vertex 47.8728 -9.03287 0.599999
    endloop
  endfacet
  facet normal 0.0523357 -0.99863 0
    outer loop
      vertex 48.5 -9 0.599999
      vertex 47.8728 -9.03287 0
      vertex 48.5 -9 0
    endloop
  endfacet
  facet normal 0.156363 0.9877 -0
    outer loop
      vertex 47.8728 -20.9671 0
      vertex 47.2525 -20.8689 0.599999
      vertex 47.8728 -20.9671 0.599999
    endloop
  endfacet
  facet normal 0.156363 0.9877 0
    outer loop
      vertex 47.2525 -20.8689 0.599999
      vertex 47.8728 -20.9671 0
      vertex 47.2525 -20.8689 0
    endloop
  endfacet
  facet normal 0.629267 -0.777189 0
    outer loop
      vertex 44.4852 -10.5411 0
      vertex 44.9733 -10.1459 0.599999
      vertex 44.4852 -10.5411 0.599999
    endloop
  endfacet
  facet normal 0.629267 -0.777189 0
    outer loop
      vertex 44.9733 -10.1459 0.599999
      vertex 44.4852 -10.5411 0
      vertex 44.9733 -10.1459 0
    endloop
  endfacet
  facet normal 0.777189 0.629267 0
    outer loop
      vertex 44.0411 -19.0148 0.599999
      vertex 43.6459 -18.5267 0
      vertex 43.6459 -18.5267 0.599999
    endloop
  endfacet
  facet normal 0.777189 0.629267 0
    outer loop
      vertex 43.6459 -18.5267 0
      vertex 44.0411 -19.0148 0.599999
      vertex 44.0411 -19.0148 0
    endloop
  endfacet
  facet normal 0.965901 -0.258911 0
    outer loop
      vertex 42.6311 -13.7525 0.599999
      vertex 42.7937 -13.1459 0
      vertex 42.7937 -13.1459 0.599999
    endloop
  endfacet
  facet normal 0.965901 -0.258911 0
    outer loop
      vertex 42.7937 -13.1459 0
      vertex 42.6311 -13.7525 0.599999
      vertex 42.6311 -13.7525 0
    endloop
  endfacet
  facet normal 0.544647 -0.838665 0
    outer loop
      vertex 44.9733 -10.1459 0
      vertex 45.5 -9.80385 0.599999
      vertex 44.9733 -10.1459 0.599999
    endloop
  endfacet
  facet normal 0.544647 -0.838665 0
    outer loop
      vertex 45.5 -9.80385 0.599999
      vertex 44.9733 -10.1459 0
      vertex 45.5 -9.80385 0
    endloop
  endfacet
  facet normal -0.838629 0.544703 0
    outer loop
      vertex 73.3541 -18.5267 0
      vertex 73.6962 -18 0.599999
      vertex 73.6962 -18 0
    endloop
  endfacet
  facet normal -0.838629 0.544703 0
    outer loop
      vertex 73.6962 -18 0.599999
      vertex 73.3541 -18.5267 0
      vertex 73.3541 -18.5267 0.599999
    endloop
  endfacet
  facet normal 0.544703 0.838629 -0
    outer loop
      vertex 45.5 -20.1962 0
      vertex 44.9733 -19.8541 0.599999
      vertex 45.5 -20.1962 0.599999
    endloop
  endfacet
  facet normal 0.544703 0.838629 0
    outer loop
      vertex 44.9733 -19.8541 0.599999
      vertex 45.5 -20.1962 0
      vertex 44.9733 -19.8541 0
    endloop
  endfacet
  facet normal -0.891026 0.453952 0
    outer loop
      vertex 73.6962 -18 0
      vertex 73.9813 -17.4404 0.599999
      vertex 73.9813 -17.4404 0
    endloop
  endfacet
  facet normal -0.891026 0.453952 0
    outer loop
      vertex 73.9813 -17.4404 0.599999
      vertex 73.6962 -18 0
      vertex 73.6962 -18 0.599999
    endloop
  endfacet
  facet normal -0.965901 -0.258911 0
    outer loop
      vertex 74.3689 -13.7525 0
      vertex 74.2063 -13.1459 0.599999
      vertex 74.2063 -13.1459 0
    endloop
  endfacet
  facet normal -0.965901 -0.258911 0
    outer loop
      vertex 74.2063 -13.1459 0.599999
      vertex 74.3689 -13.7525 0
      vertex 74.3689 -13.7525 0.599999
    endloop
  endfacet
  facet normal -0.544647 -0.838665 0
    outer loop
      vertex 71.5 -9.80385 0
      vertex 72.0267 -10.1459 0.599999
      vertex 71.5 -9.80385 0.599999
    endloop
  endfacet
  facet normal -0.544647 -0.838665 -0
    outer loop
      vertex 72.0267 -10.1459 0.599999
      vertex 71.5 -9.80385 0
      vertex 72.0267 -10.1459 0
    endloop
  endfacet
  facet normal -0.629267 -0.777189 0
    outer loop
      vertex 72.0267 -10.1459 0
      vertex 72.5148 -10.5411 0.599999
      vertex 72.0267 -10.1459 0.599999
    endloop
  endfacet
  facet normal -0.629267 -0.777189 -0
    outer loop
      vertex 72.5148 -10.5411 0.599999
      vertex 72.0267 -10.1459 0
      vertex 72.5148 -10.5411 0
    endloop
  endfacet
  facet normal -0.998627 0.0523833 0
    outer loop
      vertex 74.4671 -15.6272 0
      vertex 74.5 -15 0.599999
      vertex 74.5 -15 0
    endloop
  endfacet
  facet normal -0.998627 0.0523833 0
    outer loop
      vertex 74.5 -15 0.599999
      vertex 74.4671 -15.6272 0
      vertex 74.4671 -15.6272 0.599999
    endloop
  endfacet
  facet normal 0.838629 -0.544703 0
    outer loop
      vertex 43.3038 -12 0.599999
      vertex 43.6459 -11.4733 0
      vertex 43.6459 -11.4733 0.599999
    endloop
  endfacet
  facet normal 0.838629 -0.544703 0
    outer loop
      vertex 43.6459 -11.4733 0
      vertex 43.3038 -12 0.599999
      vertex 43.3038 -12 0
    endloop
  endfacet
  facet normal -0.998627 -0.0523833 0
    outer loop
      vertex 74.5 -15 0
      vertex 74.4671 -14.3728 0.599999
      vertex 74.4671 -14.3728 0
    endloop
  endfacet
  facet normal -0.998627 -0.0523833 0
    outer loop
      vertex 74.4671 -14.3728 0.599999
      vertex 74.5 -15 0
      vertex 74.5 -15 0.599999
    endloop
  endfacet
  facet normal 1 -0 0
    outer loop
      vertex 108.5 -55 0.599999
      vertex 108.5 4.8 0
      vertex 108.5 4.8 0.599999
    endloop
  endfacet
  facet normal 1 0 0
    outer loop
      vertex 108.5 4.8 0
      vertex 108.5 -55 0.599999
      vertex 108.5 -55 0
    endloop
  endfacet
  facet normal 1 -0 0
    outer loop
      vertex 108.5 15.2 0.599999
      vertex 108.5 48.3538 0
      vertex 108.5 48.3538 0.599999
    endloop
  endfacet
  facet normal 1 0 0
    outer loop
      vertex 108.5 48.3538 0
      vertex 108.5 15.2 0.599999
      vertex 108.5 15.2 0
    endloop
  endfacet
  facet normal -1 0 0
    outer loop
      vertex -108.5 15.2 0
      vertex -108.5 35 0.599999
      vertex -108.5 35 0
    endloop
  endfacet
  facet normal -1 -0 0
    outer loop
      vertex -108.5 35 0.599999
      vertex -108.5 15.2 0
      vertex -108.5 15.2 0.599999
    endloop
  endfacet
  facet normal -1 0 0
    outer loop
      vertex -108.5 -55 0
      vertex -108.5 4.8 0.599999
      vertex -108.5 4.8 0
    endloop
  endfacet
  facet normal -1 -0 0
    outer loop
      vertex -108.5 4.8 0.599999
      vertex -108.5 -55 0
      vertex -108.5 -55 0.599999
    endloop
  endfacet
  facet normal -1 0 0
    outer loop
      vertex -58.3 4.8 0
      vertex -58.3 15.2 0.599999
      vertex -58.3 15.2 0
    endloop
  endfacet
  facet normal -1 -0 0
    outer loop
      vertex -58.3 15.2 0.599999
      vertex -58.3 4.8 0
      vertex -58.3 4.8 0.599999
    endloop
  endfacet
  facet normal 0 -1 0
    outer loop
      vertex -108.5 15.2 0
      vertex -58.3 15.2 0.599999
      vertex -108.5 15.2 0.599999
    endloop
  endfacet
  facet normal 0 -1 -0
    outer loop
      vertex -58.3 15.2 0.599999
      vertex -108.5 15.2 0
      vertex -58.3 15.2 0
    endloop
  endfacet
  facet normal 0 1 -0
    outer loop
      vertex -58.3 4.8 0
      vertex -108.5 4.8 0.599999
      vertex -58.3 4.8 0.599999
    endloop
  endfacet
  facet normal 0 1 0
    outer loop
      vertex -108.5 4.8 0.599999
      vertex -58.3 4.8 0
      vertex -108.5 4.8 0
    endloop
  endfacet
  facet normal 1 -0 0
    outer loop
      vertex 58.3 4.8 0.599999
      vertex 58.3 15.2 0
      vertex 58.3 15.2 0.599999
    endloop
  endfacet
  facet normal 1 0 0
    outer loop
      vertex 58.3 15.2 0
      vertex 58.3 4.8 0.599999
      vertex 58.3 4.8 0
    endloop
  endfacet
  facet normal 0 -1 0
    outer loop
      vertex 58.3 15.2 0
      vertex 108.5 15.2 0.599999
      vertex 58.3 15.2 0.599999
    endloop
  endfacet
  facet normal 0 -1 -0
    outer loop
      vertex 108.5 15.2 0.599999
      vertex 58.3 15.2 0
      vertex 108.5 15.2 0
    endloop
  endfacet
  facet normal 0 1 -0
    outer loop
      vertex 108.5 4.8 0
      vertex 58.3 4.8 0.599999
      vertex 108.5 4.8 0.599999
    endloop
  endfacet
  facet normal 0 1 0
    outer loop
      vertex 58.3 4.8 0.599999
      vertex 108.5 4.8 0
      vertex 58.3 4.8 0
    endloop
  endfacet
  facet normal 1 -0 0
    outer loop
      vertex -8.5 -75 0.599999
      vertex -8.5 -65 0
      vertex -8.5 -65 0.599999
    endloop
  endfacet
  facet normal 1 0 0
    outer loop
      vertex -8.5 -65 0
      vertex -8.5 -75 0.599999
      vertex -8.5 -75 0
    endloop
  endfacet
  facet normal -0 0 1
    outer loop
      vertex -108.5 -65 0.599999
      vertex -8.5 -75 0.599999
      vertex -8.5 -65 0.599999
    endloop
  endfacet
  facet normal 0 0 1
    outer loop
      vertex -8.5 -75 0.599999
      vertex -108.5 -65 0.599999
      vertex -108.5 -75 0.599999
    endloop
  endfacet
  facet normal 0 0 -1
    outer loop
      vertex -108.5 -75 0
      vertex -8.5 -65 0
      vertex -8.5 -75 0
    endloop
  endfacet
  facet normal -0 0 -1
    outer loop
      vertex -8.5 -65 0
      vertex -108.5 -75 0
      vertex -108.5 -65 0
    endloop
  endfacet
  facet normal -1 0 0
    outer loop
      vertex -108.5 -75 0
      vertex -108.5 -65 0.599999
      vertex -108.5 -65 0
    endloop
  endfacet
  facet normal -1 -0 0
    outer loop
      vertex -108.5 -65 0.599999
      vertex -108.5 -75 0
      vertex -108.5 -75 0.599999
    endloop
  endfacet
  facet normal 0 1 -0
    outer loop
      vertex -8.5 -65 0
      vertex -108.5 -65 0.599999
      vertex -8.5 -65 0.599999
    endloop
  endfacet
  facet normal 0 1 0
    outer loop
      vertex -108.5 -65 0.599999
      vertex -8.5 -65 0
      vertex -108.5 -65 0
    endloop
  endfacet
  facet normal 0 -1 0
    outer loop
      vertex -108.5 -75 0
      vertex -8.5 -75 0.599999
      vertex -108.5 -75 0.599999
    endloop
  endfacet
  facet normal 0 -1 -0
    outer loop
      vertex -8.5 -75 0.599999
      vertex -108.5 -75 0
      vertex -8.5 -75 0
    endloop
  endfacet
endsolid OpenSCAD_Model
