<?xml version="1.0" encoding="utf-8" ?>
<svg baseProfile="full" height="425.0" version="1.1" width="550" xmlns="http://www.w3.org/2000/svg" xmlns:ev="http://www.w3.org/2001/xml-events" xmlns:xlink="http://www.w3.org/1999/xlink"><defs><marker id="arrowhead" markerHeight="2" markerUnits="strokeWidth" markerWidth="2" orient="auto" refX="1" refY="1"><path d="M0,0 L0,2 L2,1 z" fill="black" /></marker><marker id="arrowhead2" markerHeight="2" markerUnits="strokeWidth" markerWidth="2" orient="auto" refX="1" refY="1"><path d="M0,0 L0,2 L2,1 z" fill="white" /></marker></defs><rect fill="rgb(200,200,200)" height="100%" width="100%" x="0" y="0" /><path d="M 56.49519052838329,114.55127018922192 Q 50.0,118.30127018922192 43.50480947161671,114.55127018922192 L 13.193920339161352,97.05127018922192 Q 6.698729810778062,93.30127018922192 6.698729810778063,85.80127018922192 L 6.698729810778067,50.80127018922192 Q 6.698729810778069,43.30127018922192 13.193920339161355,39.55127018922192 L 43.5048094716167,22.051270189221924 Q 49.99999999999999,18.301270189221924 56.49519052838328,22.05127018922192 L 86.80607966083863,39.55127018922191 Q 93.30127018922192,43.3012701892219 93.30127018922192,50.80127018922191 L 93.30127018922194,85.80127018922192 Q 93.30127018922194,93.30127018922192 86.80607966083865,97.05127018922192 Z" fill="white" stroke="black" stroke-dasharray="5,5" stroke-linecap="round" stroke-width="3.0" /><text fill="black" font-family="Arial" font-size="8.5" text-anchor="middle" transform="rotate(-30, 50, 68.30127018922192)" x="50" y="51.63460352255525">Firebase</text><text fill="black" font-family="Arial" font-size="8.5" text-anchor="middle" transform="rotate(-30, 50, 68.30127018922192)" x="50" y="64.13460352255525">authentification</text><path d="M 156.4951905283833,114.55127018922192 Q 150.0,118.30127018922192 143.5048094716167,114.55127018922192 L 113.19392033916135,97.05127018922192 Q 106.69872981077806,93.30127018922192 106.69872981077806,85.80127018922192 L 106.69872981077808,50.80127018922192 Q 106.69872981077808,43.30127018922192 113.19392033916137,39.55127018922192 L 143.5048094716167,22.051270189221924 Q 150.0,18.301270189221924 156.4951905283833,22.05127018922192 L 186.80607966083863,39.55127018922191 Q 193.30127018922192,43.3012701892219 193.30127018922192,50.80127018922191 L 193.30127018922195,85.80127018922192 Q 193.30127018922195,93.30127018922192 186.80607966083866,97.05127018922192 Z" fill="white" stroke="black" stroke-dasharray="5,5" stroke-linecap="round" stroke-width="3.0" /><text fill="black" font-family="Arial" font-size="8.5" text-anchor="middle" transform="rotate(-30, 150, 68.30127018922192)" x="150" y="51.63460352255525">Firestore</text><text fill="black" font-family="Arial" font-size="8.5" text-anchor="middle" transform="rotate(-30, 150, 68.30127018922192)" x="150" y="64.13460352255525">requêtes</text><path d="M 256.4951905283833,114.55127018922192 Q 250.0,118.30127018922192 243.5048094716167,114.55127018922192 L 213.19392033916134,97.05127018922192 Q 206.69872981077805,93.30127018922192 206.69872981077805,85.80127018922192 L 206.69872981077808,50.80127018922192 Q 206.69872981077808,43.30127018922192 213.19392033916137,39.55127018922192 L 243.5048094716167,22.051270189221924 Q 250.0,18.301270189221924 256.49519052838326,22.05127018922192 L 286.8060796608386,39.55127018922191 Q 293.3012701892219,43.3012701892219 293.3012701892219,50.80127018922191 L 293.30127018922195,85.80127018922192 Q 293.30127018922195,93.30127018922192 286.8060796608387,97.05127018922192 Z" fill="white" stroke="black" stroke-dasharray="5,5" stroke-linecap="round" stroke-width="3.0" /><text fill="black" font-family="Arial" font-size="8.5" text-anchor="middle" transform="rotate(-30, 250, 68.30127018922192)" x="250" y="51.63460352255525">Firebase intro</text><path d="M 356.4951905283833,114.55127018922192 Q 350.0,118.30127018922192 343.5048094716167,114.55127018922192 L 313.1939203391613,97.05127018922192 Q 306.69872981077805,93.30127018922192 306.698729810778,85.80127018922192 L 306.698729810778,50.80127018922192 Q 306.69872981077805,43.30127018922192 313.1939203391613,39.55127018922192 L 343.5048094716167,22.051270189221924 Q 350.0,18.301270189221924 356.49519052838326,22.05127018922192 L 386.8060796608386,39.55127018922191 Q 393.3012701892219,43.3012701892219 393.3012701892219,50.80127018922191 L 393.3012701892219,85.80127018922192 Q 393.30127018922195,93.30127018922192 386.80607966083863,97.05127018922192 Z" fill="white" stroke="black" stroke-dasharray="1,1" stroke-linecap="round" stroke-width="3.0" /><text fill="black" font-family="Arial" font-size="8.5" text-anchor="middle" transform="rotate(-30, 350, 68.30127018922192)" x="350" y="51.63460352255525">DIO JSON</text><path d="M 456.4951905283833,114.55127018922192 Q 450.0,118.30127018922192 443.5048094716167,114.55127018922192 L 413.1939203391613,97.05127018922192 Q 406.69872981077805,93.30127018922192 406.698729810778,85.80127018922192 L 406.698729810778,50.80127018922192 Q 406.69872981077805,43.30127018922192 413.1939203391613,39.55127018922192 L 443.5048094716167,22.051270189221924 Q 450.0,18.301270189221924 456.49519052838326,22.05127018922192 L 486.8060796608386,39.55127018922191 Q 493.3012701892219,43.3012701892219 493.3012701892219,50.80127018922191 L 493.3012701892219,85.80127018922192 Q 493.30127018922195,93.30127018922192 486.80607966083863,97.05127018922192 Z" fill="white" stroke="black" stroke-dasharray="1,1" stroke-linecap="round" stroke-width="3.0" /><text fill="black" font-family="Arial" font-size="8.5" text-anchor="middle" transform="rotate(-30, 450, 68.30127018922192)" x="450" y="51.63460352255525">DIO cookie</text><path d="M 106.49519052838329,201.1538105676658 Q 100.0,204.9038105676658 93.50480947161671,201.1538105676658 L 63.19392033916135,183.6538105676658 Q 56.69872981077806,179.9038105676658 56.69872981077806,172.4038105676658 L 56.69872981077807,137.4038105676658 Q 56.69872981077807,129.9038105676658 63.19392033916135,126.1538105676658 L 93.5048094716167,108.6538105676658 Q 99.99999999999999,104.9038105676658 106.49519052838328,108.6538105676658 L 136.80607966083863,126.15381056766577 Q 143.30127018922192,129.90381056766577 143.30127018922192,137.40381056766577 L 143.30127018922195,172.4038105676658 Q 143.30127018922195,179.9038105676658 136.80607966083866,183.6538105676658 Z" fill="white" stroke="black" stroke-dasharray="5,5" stroke-linecap="round" stroke-width="3.0" /><text fill="black" font-family="Arial" font-size="8.5" text-anchor="middle" transform="rotate(-30, 100, 154.9038105676658)" x="100" y="138.23714390099914">Firestore</text><text fill="black" font-family="Arial" font-size="8.5" text-anchor="middle" transform="rotate(-30, 100, 154.9038105676658)" x="100" y="150.73714390099914">contrôle</text><text fill="black" font-family="Arial" font-size="8.5" text-anchor="middle" transform="rotate(-30, 100, 154.9038105676658)" x="100" y="163.23714390099914">d'accès</text><path d="M 206.4951905283833,201.1538105676658 Q 200.0,204.9038105676658 193.5048094716167,201.1538105676658 L 163.19392033916134,183.6538105676658 Q 156.69872981077805,179.9038105676658 156.69872981077805,172.4038105676658 L 156.69872981077808,137.4038105676658 Q 156.69872981077808,129.9038105676658 163.19392033916137,126.1538105676658 L 193.5048094716167,108.6538105676658 Q 200.0,104.9038105676658 206.4951905283833,108.6538105676658 L 236.80607966083863,126.15381056766577 Q 243.30127018922192,129.90381056766577 243.30127018922192,137.40381056766577 L 243.30127018922195,172.4038105676658 Q 243.30127018922195,179.9038105676658 236.80607966083866,183.6538105676658 Z" fill="white" stroke="black" stroke-dasharray="5,5" stroke-linecap="round" stroke-width="3.0" /><text fill="black" font-family="Arial" font-size="8.5" text-anchor="middle" transform="rotate(-30, 200, 154.9038105676658)" x="200" y="138.23714390099914">Firestore</text><text fill="black" font-family="Arial" font-size="8.5" text-anchor="middle" transform="rotate(-30, 200, 154.9038105676658)" x="200" y="150.73714390099914">intro</text><path d="M 306.4951905283833,201.1538105676658 Q 300.0,204.9038105676658 293.5048094716167,201.1538105676658 L 263.1939203391613,183.6538105676658 Q 256.69872981077805,179.9038105676658 256.69872981077805,172.4038105676658 L 256.69872981077805,137.4038105676658 Q 256.69872981077805,129.9038105676658 263.1939203391613,126.1538105676658 L 293.5048094716167,108.6538105676658 Q 300.0,104.9038105676658 306.49519052838326,108.6538105676658 L 336.8060796608386,126.15381056766577 Q 343.3012701892219,129.90381056766577 343.3012701892219,137.40381056766577 L 343.3012701892219,172.4038105676658 Q 343.30127018922195,179.9038105676658 336.80607966083863,183.6538105676658 Z" fill="white" stroke="black" stroke-dasharray="1,1" stroke-linecap="round" stroke-width="3.0" /><text fill="black" font-family="Arial" font-size="8.5" text-anchor="middle" transform="rotate(-30, 300, 154.9038105676658)" x="300" y="138.23714390099914">DIO erreurs</text><path d="M 406.4951905283833,201.1538105676658 Q 400.0,204.9038105676658 393.5048094716167,201.1538105676658 L 363.1939203391613,183.6538105676658 Q 356.69872981077805,179.9038105676658 356.698729810778,172.4038105676658 L 356.698729810778,137.4038105676658 Q 356.69872981077805,129.9038105676658 363.1939203391613,126.1538105676658 L 393.5048094716167,108.6538105676658 Q 400.0,104.9038105676658 406.49519052838326,108.6538105676658 L 436.8060796608386,126.15381056766577 Q 443.3012701892219,129.90381056766577 443.3012701892219,137.40381056766577 L 443.3012701892219,172.4038105676658 Q 443.30127018922195,179.9038105676658 436.80607966083863,183.6538105676658 Z" fill="white" stroke="black" stroke-dasharray="1,1" stroke-linecap="round" stroke-width="3.0" /><text fill="black" font-family="Arial" font-size="8.5" text-anchor="middle" transform="rotate(-30, 400, 154.9038105676658)" x="400" y="138.23714390099914">HTTP DIO</text><path d="M 56.49519052838329,287.75635094610965 Q 50.0,291.50635094610965 43.50480947161671,287.75635094610965 L 13.193920339161352,270.25635094610965 Q 6.698729810778062,266.50635094610965 6.698729810778063,259.00635094610965 L 6.698729810778067,224.00635094610965 Q 6.698729810778069,216.50635094610965 13.193920339161355,212.75635094610965 L 43.5048094716167,195.25635094610965 Q 49.99999999999999,191.50635094610965 56.49519052838328,195.25635094610965 L 86.80607966083863,212.75635094610962 Q 93.30127018922192,216.50635094610962 93.30127018922192,224.00635094610962 L 93.30127018922194,259.00635094610965 Q 93.30127018922194,266.50635094610965 86.80607966083865,270.25635094610965 Z" fill="black" stroke="white" stroke-dasharray="5,5" stroke-linecap="round" stroke-width="3.0" /><text fill="white" font-family="Arial" font-size="8.5" text-anchor="middle" transform="rotate(-30, 50, 241.50635094610965)" x="50" y="224.839684279443">Navigation</text><path d="M 156.4951905283833,287.75635094610965 Q 150.0,291.50635094610965 143.5048094716167,287.75635094610965 L 113.19392033916135,270.25635094610965 Q 106.69872981077806,266.50635094610965 106.69872981077806,259.00635094610965 L 106.69872981077808,224.00635094610965 Q 106.69872981077808,216.50635094610965 113.19392033916137,212.75635094610965 L 143.5048094716167,195.25635094610965 Q 150.0,191.50635094610965 156.4951905283833,195.25635094610965 L 186.80607966083863,212.75635094610962 Q 193.30127018922192,216.50635094610962 193.30127018922192,224.00635094610962 L 193.30127018922195,259.00635094610965 Q 193.30127018922195,266.50635094610965 186.80607966083866,270.25635094610965 Z" fill="white" stroke="black" stroke-dasharray="5,5" stroke-linecap="round" stroke-width="3.0" /><text fill="black" font-family="Arial" font-size="8.5" text-anchor="middle" transform="rotate(-30, 150, 241.50635094610965)" x="150" y="224.839684279443">Firestore</text><text fill="black" font-family="Arial" font-size="8.5" text-anchor="middle" transform="rotate(-30, 150, 241.50635094610965)" x="150" y="237.339684279443">typés</text><path d="M 256.4951905283833,287.75635094610965 Q 250.0,291.50635094610965 243.5048094716167,287.75635094610965 L 213.19392033916134,270.25635094610965 Q 206.69872981077805,266.50635094610965 206.69872981077805,259.00635094610965 L 206.69872981077808,224.00635094610965 Q 206.69872981077808,216.50635094610965 213.19392033916137,212.75635094610965 L 243.5048094716167,195.25635094610965 Q 250.0,191.50635094610965 256.49519052838326,195.25635094610965 L 286.8060796608386,212.75635094610962 Q 293.3012701892219,216.50635094610962 293.3012701892219,224.00635094610962 L 293.30127018922195,259.00635094610965 Q 293.30127018922195,266.50635094610965 286.8060796608387,270.25635094610965 Z" fill="black" stroke="white" stroke-dasharray="5,5" stroke-linecap="round" stroke-width="3.0" /><text fill="white" font-family="Arial" font-size="8.5" text-anchor="middle" transform="rotate(-30, 250, 241.50635094610965)" x="250" y="224.839684279443">Navigation</text><text fill="white" font-family="Arial" font-size="8.5" text-anchor="middle" transform="rotate(-30, 250, 241.50635094610965)" x="250" y="237.339684279443">tiroir</text><path d="M 356.4951905283833,287.75635094610965 Q 350.0,291.50635094610965 343.5048094716167,287.75635094610965 L 313.1939203391613,270.25635094610965 Q 306.69872981077805,266.50635094610965 306.698729810778,259.00635094610965 L 306.698729810778,224.00635094610965 Q 306.69872981077805,216.50635094610965 313.1939203391613,212.75635094610965 L 343.5048094716167,195.25635094610965 Q 350.0,191.50635094610965 356.49519052838326,195.25635094610965 L 386.8060796608386,212.75635094610962 Q 393.3012701892219,216.50635094610962 393.3012701892219,224.00635094610962 L 393.3012701892219,259.00635094610965 Q 393.30127018922195,266.50635094610965 386.80607966083863,270.25635094610965 Z" fill="black" stroke="white" stroke-dasharray="1,1" stroke-linecap="round" stroke-width="3.0" /><text fill="white" font-family="Arial" font-size="8.5" text-anchor="middle" transform="rotate(-30, 350, 241.50635094610965)" x="350" y="224.839684279443">Flutter Column</text><text fill="white" font-family="Arial" font-size="8.5" text-anchor="middle" transform="rotate(-30, 350, 241.50635094610965)" x="350" y="237.339684279443">et Row</text><path d="M 456.4951905283833,287.75635094610965 Q 450.0,291.50635094610965 443.5048094716167,287.75635094610965 L 413.1939203391613,270.25635094610965 Q 406.69872981077805,266.50635094610965 406.698729810778,259.00635094610965 L 406.698729810778,224.00635094610965 Q 406.69872981077805,216.50635094610965 413.1939203391613,212.75635094610965 L 443.5048094716167,195.25635094610965 Q 450.0,191.50635094610965 456.49519052838326,195.25635094610965 L 486.8060796608386,212.75635094610962 Q 493.3012701892219,216.50635094610962 493.3012701892219,224.00635094610962 L 493.3012701892219,259.00635094610965 Q 493.30127018922195,266.50635094610965 486.80607966083863,270.25635094610965 Z" fill="black" stroke="white" stroke-dasharray="1,1" stroke-linecap="round" stroke-width="3.0" /><text fill="white" font-family="Arial" font-size="8.5" text-anchor="middle" transform="rotate(-30, 450, 241.50635094610965)" x="450" y="224.839684279443">UI basique</text><path d="M 206.4951905283833,374.35889132455344 Q 200.0,378.1088913245535 193.5048094716167,374.35889132455344 L 163.19392033916134,356.85889132455344 Q 156.69872981077805,353.1088913245535 156.69872981077805,345.60889132455344 L 156.69872981077808,310.60889132455344 Q 156.69872981077808,303.1088913245535 163.19392033916137,299.35889132455344 L 193.5048094716167,281.8588913245535 Q 200.0,278.1088913245535 206.4951905283833,281.8588913245535 L 236.80607966083863,299.35889132455344 Q 243.30127018922192,303.1088913245535 243.30127018922192,310.60889132455344 L 243.30127018922195,345.60889132455344 Q 243.30127018922195,353.1088913245535 236.80607966083866,356.85889132455344 Z" fill="black" stroke="white" stroke-dasharray="10,10" stroke-linecap="round" stroke-width="3.0" /><text fill="white" font-family="Arial" font-size="8.5" text-anchor="middle" transform="rotate(-30, 200, 328.1088913245535)" x="200" y="311.4422246578868">ListView</text><text fill="white" font-family="Arial" font-size="8.5" text-anchor="middle" transform="rotate(-30, 200, 328.1088913245535)" x="200" y="323.9422246578868">explicite</text><path d="M 306.4951905283833,374.35889132455344 Q 300.0,378.1088913245535 293.5048094716167,374.35889132455344 L 263.1939203391613,356.85889132455344 Q 256.69872981077805,353.1088913245535 256.69872981077805,345.60889132455344 L 256.69872981077805,310.60889132455344 Q 256.69872981077805,303.1088913245535 263.1939203391613,299.35889132455344 L 293.5048094716167,281.8588913245535 Q 300.0,278.1088913245535 306.49519052838326,281.8588913245535 L 336.8060796608386,299.35889132455344 Q 343.3012701892219,303.1088913245535 343.3012701892219,310.60889132455344 L 343.3012701892219,345.60889132455344 Q 343.30127018922195,353.1088913245535 336.80607966083863,356.85889132455344 Z" fill="black" stroke="white" stroke-dasharray="1,1" stroke-linecap="round" stroke-width="3.0" /><text fill="white" font-family="Arial" font-size="8.5" text-anchor="middle" transform="rotate(-30, 300, 328.1088913245535)" x="300" y="311.4422246578868">Dimensions,</text><text fill="white" font-family="Arial" font-size="8.5" text-anchor="middle" transform="rotate(-30, 300, 328.1088913245535)" x="300" y="323.9422246578868">flex et</text><text fill="white" font-family="Arial" font-size="8.5" text-anchor="middle" transform="rotate(-30, 300, 328.1088913245535)" x="300" y="336.4422246578868">enfants</text><path d="M 406.4951905283833,374.35889132455344 Q 400.0,378.1088913245535 393.5048094716167,374.35889132455344 L 363.1939203391613,356.85889132455344 Q 356.69872981077805,353.1088913245535 356.698729810778,345.60889132455344 L 356.698729810778,310.60889132455344 Q 356.69872981077805,303.1088913245535 363.1939203391613,299.35889132455344 L 393.5048094716167,281.8588913245535 Q 400.0,278.1088913245535 406.49519052838326,281.8588913245535 L 436.8060796608386,299.35889132455344 Q 443.3012701892219,303.1088913245535 443.3012701892219,310.60889132455344 L 443.3012701892219,345.60889132455344 Q 443.30127018922195,353.1088913245535 436.80607966083863,356.85889132455344 Z" fill="black" stroke="white" stroke-dasharray="1,1" stroke-linecap="round" stroke-width="3.0" /><text fill="white" font-family="Arial" font-size="8.5" text-anchor="middle" transform="rotate(-30, 400, 328.1088913245535)" x="400" y="311.4422246578868">Multilingue</text><line marker-end="url(#arrowhead)" stroke="black" stroke-linecap="round" stroke-width="5" x1="410.0" x2="390.0" y1="241.50635094610965" y2="241.50635094610965" /><line marker-end="url(#arrowhead2)" stroke="white" stroke-linecap="round" stroke-width="3" x1="410.0" x2="390.0" y1="241.50635094610965" y2="241.50635094610965" /><line marker-end="url(#arrowhead)" stroke="black" stroke-linecap="round" stroke-width="5" x1="430.0" x2="420.0" y1="276.1473670974872" y2="293.46787517317597" /><line marker-end="url(#arrowhead2)" stroke="white" stroke-linecap="round" stroke-width="3" x1="430.0" x2="420.0" y1="276.1473670974872" y2="293.46787517317597" /><line marker-end="url(#arrowhead)" stroke="black" stroke-linecap="round" stroke-width="5" x1="330.0" x2="320.0" y1="276.1473670974872" y2="293.46787517317597" /><line marker-end="url(#arrowhead2)" stroke="white" stroke-linecap="round" stroke-width="3" x1="330.0" x2="320.0" y1="276.1473670974872" y2="293.46787517317597" /><line marker-end="url(#arrowhead)" stroke="black" stroke-linecap="round" stroke-width="5" x1="130.0" x2="170.0" y1="241.50635094610965" y2="241.50635094610965" /><line marker-end="url(#arrowhead2)" stroke="white" stroke-linecap="round" stroke-width="3" x1="130.0" x2="170.0" y1="241.50635094610965" y2="241.50635094610965" /><line marker-end="url(#arrowhead)" stroke="black" stroke-linecap="round" stroke-width="5" x1="380.0" x2="370.0" y1="120.26279441628824" y2="102.94228634059948" /><line marker-end="url(#arrowhead2)" stroke="white" stroke-linecap="round" stroke-width="3" x1="380.0" x2="370.0" y1="120.26279441628824" y2="102.94228634059948" /><line marker-end="url(#arrowhead)" stroke="black" stroke-linecap="round" stroke-width="5" x1="420.0" x2="430.0" y1="120.26279441628824" y2="102.94228634059948" /><line marker-end="url(#arrowhead2)" stroke="white" stroke-linecap="round" stroke-width="3" x1="420.0" x2="430.0" y1="120.26279441628824" y2="102.94228634059948" /><line marker-end="url(#arrowhead)" stroke="black" stroke-linecap="round" stroke-width="5" x1="360.0" x2="340.0" y1="154.9038105676658" y2="154.9038105676658" /><line marker-end="url(#arrowhead2)" stroke="white" stroke-linecap="round" stroke-width="3" x1="360.0" x2="340.0" y1="154.9038105676658" y2="154.9038105676658" /><line marker-end="url(#arrowhead)" stroke="black" stroke-linecap="round" stroke-width="5" x1="170.0" x2="130.0" y1="68.30127018922192" y2="68.30127018922192" /><line marker-end="url(#arrowhead2)" stroke="white" stroke-linecap="round" stroke-width="3" x1="170.0" x2="130.0" y1="68.30127018922192" y2="68.30127018922192" /><line marker-end="url(#arrowhead)" stroke="black" stroke-linecap="round" stroke-width="5" x1="230.0" x2="220.0" y1="102.94228634059948" y2="120.26279441628824" /><line marker-end="url(#arrowhead2)" stroke="white" stroke-linecap="round" stroke-width="3" x1="230.0" x2="220.0" y1="102.94228634059948" y2="120.26279441628824" /><line marker-end="url(#arrowhead)" stroke="black" stroke-linecap="round" stroke-width="5" x1="180.0" x2="170.0" y1="189.54482671904333" y2="206.86533479473212" /><line marker-end="url(#arrowhead2)" stroke="white" stroke-linecap="round" stroke-width="3" x1="180.0" x2="170.0" y1="189.54482671904333" y2="206.86533479473212" /><line marker-end="url(#arrowhead)" stroke="black" stroke-linecap="round" stroke-width="5" x1="160.0" x2="140.0" y1="154.9038105676658" y2="154.9038105676658" /><line marker-end="url(#arrowhead2)" stroke="white" stroke-linecap="round" stroke-width="3" x1="160.0" x2="140.0" y1="154.9038105676658" y2="154.9038105676658" /><line marker-end="url(#arrowhead)" stroke="black" stroke-linecap="round" stroke-width="5" x1="180.0" x2="170.0" y1="120.26279441628824" y2="102.94228634059948" /><line marker-end="url(#arrowhead2)" stroke="white" stroke-linecap="round" stroke-width="3" x1="180.0" x2="170.0" y1="120.26279441628824" y2="102.94228634059948" /></svg>