<?xml version="1.0" encoding="utf-8" ?>
<svg baseProfile="tiny" height="450" version="1.2" width="450" xmlns="http://www.w3.org/2000/svg" xmlns:ev="http://www.w3.org/2001/xml-events" xmlns:xlink="http://www.w3.org/1999/xlink"><defs /><rect fill="rgb(150,150,150)" height="100%" width="100%" x="0" y="0" /><polygon fill="tomato" points="93.3013,93.3013 50.0,118.3013 6.6987,93.3013 6.6987,43.3013 50.0,18.3013 93.3013,43.3013" stroke="black" /><text font-family="Arial" font-size="5.0" transform="rotate(-30, 50, 68.30127018922192)" x="20.0" y="78.30127018922192">___</text><text font-size="5.0" transform="rotate(-30, 50, 68.30127018922192)" x="20.0" y="58.301270189221924">row: 0 col: 0</text><polygon fill="aquamarine" points="193.3013,93.3013 150.0,118.3013 106.6987,93.3013 106.6987,43.3013 150.0,18.3013 193.3013,43.3013" stroke="black" /><text font-family="Arial" font-size="5.0" transform="rotate(-30, 150, 68.30127018922192)" x="120.0" y="78.30127018922192">Firebase authentification</text><text font-size="5.0" transform="rotate(-30, 150, 68.30127018922192)" x="120.0" y="58.301270189221924">row: 0 col: 1</text><polygon fill="lightgreen" points="93.3013,93.3013 50.0,118.3013 6.6987,93.3013 6.6987,43.3013 50.0,18.3013 93.3013,43.3013" stroke="black" /><text font-family="Arial" font-size="5.0" transform="rotate(-30, 50, 68.30127018922192)" x="20.0" y="78.30127018922192">___</text><text font-size="5.0" transform="rotate(-30, 50, 68.30127018922192)" x="20.0" y="58.301270189221924">row: 0 col: 0</text><polygon fill="lightgreen" points="393.3013,93.3013 350.0,118.3013 306.6987,93.3013 306.6987,43.3013 350.0,18.3013 393.3013,43.3013" stroke="black" /><text font-family="Arial" font-size="5.0" transform="rotate(-30, 350, 68.30127018922192)" x="320.0" y="78.30127018922192">Liste</text><text font-size="5.0" transform="rotate(-30, 350, 68.30127018922192)" x="320.0" y="58.301270189221924">row: 0 col: 3</text><polygon fill="lightgreen" points="93.3013,93.3013 50.0,118.3013 6.6987,93.3013 6.6987,43.3013 50.0,18.3013 93.3013,43.3013" stroke="black" /><text font-family="Arial" font-size="5.0" transform="rotate(-30, 50, 68.30127018922192)" x="20.0" y="78.30127018922192">___</text><text font-size="5.0" transform="rotate(-30, 50, 68.30127018922192)" x="20.0" y="58.301270189221924">row: 0 col: 0</text><polygon fill="lightgreen" points="243.3013,179.9038 200.0,204.9038 156.6987,179.9038 156.6987,129.9038 200.0,104.9038 243.3013,129.9038" stroke="black" /><text font-family="Arial" font-size="5.0" transform="rotate(-30, 200, 154.9038105676658)" x="170.0" y="164.9038105676658">Firestore intro</text><text font-size="5.0" transform="rotate(-30, 200, 154.9038105676658)" x="170.0" y="144.9038105676658">row: 1 col: 1</text><polygon fill="tomato" points="343.3013,179.9038 300.0,204.9038 256.6987,179.9038 256.6987,129.9038 300.0,104.9038 343.3013,129.9038" stroke="black" /><text font-family="Arial" font-size="5.0" transform="rotate(-30, 300, 154.9038105676658)" x="270.0" y="164.9038105676658">Firebase intro</text><text font-size="5.0" transform="rotate(-30, 300, 154.9038105676658)" x="270.0" y="144.9038105676658">row: 1 col: 2</text><polygon fill="lightblue" points="93.3013,93.3013 50.0,118.3013 6.6987,93.3013 6.6987,43.3013 50.0,18.3013 93.3013,43.3013" stroke="black" /><text font-family="Arial" font-size="5.0" transform="rotate(-30, 50, 68.30127018922192)" x="20.0" y="78.30127018922192">___</text><text font-size="5.0" transform="rotate(-30, 50, 68.30127018922192)" x="20.0" y="58.301270189221924">row: 0 col: 0</text><polygon fill="tomato" points="93.3013,266.5064 50.0,291.5064 6.6987,266.5064 6.6987,216.5064 50.0,191.5064 93.3013,216.5064" stroke="black" /><text font-family="Arial" font-size="5.0" transform="rotate(-30, 50, 241.50635094610965)" x="20.0" y="251.50635094610965">Navigation</text><text font-size="5.0" transform="rotate(-30, 50, 241.50635094610965)" x="20.0" y="231.50635094610965">row: 2 col: 0</text><polygon fill="blue" points="193.3013,266.5064 150.0,291.5064 106.6987,266.5064 106.6987,216.5064 150.0,191.5064 193.3013,216.5064" stroke="black" /><text font-family="Arial" font-size="5.0" transform="rotate(-30, 150, 241.50635094610965)" x="120.0" y="251.50635094610965">Navigation tiroir</text><text font-size="5.0" transform="rotate(-30, 150, 241.50635094610965)" x="120.0" y="231.50635094610965">row: 2 col: 1</text><polygon fill="blue" points="293.3013,266.5064 250.0,291.5064 206.6987,266.5064 206.6987,216.5064 250.0,191.5064 293.3013,216.5064" stroke="black" /><text font-family="Arial" font-size="5.0" transform="rotate(-30, 250, 241.50635094610965)" x="220.0" y="251.50635094610965">UI basique</text><text font-size="5.0" transform="rotate(-30, 250, 241.50635094610965)" x="220.0" y="231.50635094610965">row: 2 col: 2</text><polygon fill="lightblue" points="393.3013,266.5064 350.0,291.5064 306.6987,266.5064 306.6987,216.5064 350.0,191.5064 393.3013,216.5064" stroke="black" /><text font-family="Arial" font-size="5.0" transform="rotate(-30, 350, 241.50635094610965)" x="320.0" y="251.50635094610965">HTTP DIO base</text><text font-size="5.0" transform="rotate(-30, 350, 241.50635094610965)" x="320.0" y="231.50635094610965">row: 2 col: 3</text><polygon fill="aquamarine" points="143.3013,353.1089 100.0,378.1089 56.6987,353.1089 56.6987,303.1089 100.0,278.1089 143.3013,303.1089" stroke="black" /><text font-family="Arial" font-size="5.0" transform="rotate(-30, 100, 328.1088913245535)" x="70.0" y="338.1088913245535">DIO JSON</text><text font-size="5.0" transform="rotate(-30, 100, 328.1088913245535)" x="70.0" y="318.1088913245535">row: 3 col: 0</text><polygon fill="tomato" points="243.3013,353.1089 200.0,378.1089 156.6987,353.1089 156.6987,303.1089 200.0,278.1089 243.3013,303.1089" stroke="black" /><text font-family="Arial" font-size="5.0" transform="rotate(-30, 200, 328.1088913245535)" x="170.0" y="338.1088913245535">Layout base</text><text font-size="5.0" transform="rotate(-30, 200, 328.1088913245535)" x="170.0" y="318.1088913245535">row: 3 col: 1</text><polygon fill="lightgreen" points="343.3013,353.1089 300.0,378.1089 256.6987,353.1089 256.6987,303.1089 300.0,278.1089 343.3013,303.1089" stroke="black" /><text font-family="Arial" font-size="5.0" transform="rotate(-30, 300, 328.1088913245535)" x="270.0" y="338.1088913245535">Firestore intermédiaire</text><text font-size="5.0" transform="rotate(-30, 300, 328.1088913245535)" x="270.0" y="318.1088913245535">row: 3 col: 2</text><polygon fill="blue" points="443.3013,353.1089 400.0,378.1089 356.6987,353.1089 356.6987,303.1089 400.0,278.1089 443.3013,303.1089" stroke="black" /><text font-family="Arial" font-size="5.0" transform="rotate(-30, 400, 328.1088913245535)" x="370.0" y="338.1088913245535">HTTP DIO Cookie</text><text font-size="5.0" transform="rotate(-30, 400, 328.1088913245535)" x="370.0" y="318.1088913245535">row: 3 col: 3</text><polygon fill="red" points="93.3013,439.7114 50.0,464.7114 6.6987,439.7114 6.6987,389.7114 50.0,364.7114 93.3013,389.7114" stroke="black" /><text font-family="Arial" font-size="5.0" transform="rotate(-30, 50, 414.7114317029974)" x="20.0" y="424.7114317029974">HTTP DIO Erreurs</text><text font-size="5.0" transform="rotate(-30, 50, 414.7114317029974)" x="20.0" y="404.7114317029974">row: 4 col: 0</text><polygon fill="lightblue" points="93.3013,93.3013 50.0,118.3013 6.6987,93.3013 6.6987,43.3013 50.0,18.3013 93.3013,43.3013" stroke="black" /><text font-family="Arial" font-size="5.0" transform="rotate(-30, 50, 68.30127018922192)" x="20.0" y="78.30127018922192">___</text><text font-size="5.0" transform="rotate(-30, 50, 68.30127018922192)" x="20.0" y="58.301270189221924">row: 0 col: 0</text><polygon fill="tomato" points="293.3013,439.7114 250.0,464.7114 206.6987,439.7114 206.6987,389.7114 250.0,364.7114 293.3013,389.7114" stroke="black" /><text font-family="Arial" font-size="5.0" transform="rotate(-30, 250, 414.7114317029974)" x="220.0" y="424.7114317029974">Layout avancé</text><text font-size="5.0" transform="rotate(-30, 250, 414.7114317029974)" x="220.0" y="404.7114317029974">row: 4 col: 2</text><polygon fill="aquamarine" points="93.3013,93.3013 50.0,118.3013 6.6987,93.3013 6.6987,43.3013 50.0,18.3013 93.3013,43.3013" stroke="black" /><text font-family="Arial" font-size="5.0" transform="rotate(-30, 50, 68.30127018922192)" x="20.0" y="78.30127018922192">___</text><text font-size="5.0" transform="rotate(-30, 50, 68.30127018922192)" x="20.0" y="58.301270189221924">row: 0 col: 0</text></svg>