solid OpenSCAD_Model
  facet normal 0.443185 0.89643 -0
    outer loop
      vertex 51.5359 239.329 0
      vertex 50.832 239.677 5
      vertex 51.5359 239.329 5
    endloop
  endfacet
  facet normal 0.443185 0.89643 0
    outer loop
      vertex 50.832 239.677 5
      vertex 51.5359 239.329 0
      vertex 50.832 239.677 0
    endloop
  endfacet
  facet normal 0.0653605 -0.997862 0
    outer loop
      vertex 48.5359 60 0
      vertex 49.3191 60.0513 5
      vertex 48.5359 60 5
    endloop
  endfacet
  facet normal 0.0653605 -0.997862 0
    outer loop
      vertex 49.3191 60.0513 5
      vertex 48.5359 60 0
      vertex 49.3191 60.0513 0
    endloop
  endfacet
  facet normal 0 1 -0
    outer loop
      vertex 48.5359 240.133 0
      vertex -48.5359 240.133 5
      vertex 48.5359 240.133 5
    endloop
  endfacet
  facet normal 0 1 0
    outer loop
      vertex -48.5359 240.133 5
      vertex 48.5359 240.133 0
      vertex -48.5359 240.133 0
    endloop
  endfacet
  facet normal 0.866044 0.499967 0
    outer loop
      vertex 53.7321 237.133 5
      vertex 54.3094 236.133 2.5
      vertex 53.7321 237.133 0
    endloop
  endfacet
  facet normal 0.866475 0.499221 0.000398148
    outer loop
      vertex 53.7321 237.133 5
      vertex 54.3168 236.12 2.69579
      vertex 54.3094 236.133 2.5
    endloop
  endfacet
  facet normal 0.865573 0.500782 -0.00051689
    outer loop
      vertex 53.7321 237.133 5
      vertex 54.3389 236.082 2.88823
      vertex 54.3168 236.12 2.69579
    endloop
  endfacet
  facet normal 0.865959 0.500114 -7.38543e-05
    outer loop
      vertex 53.7321 237.133 5
      vertex 54.3753 236.019 3.07402
      vertex 54.3389 236.082 2.88823
    endloop
  endfacet
  facet normal 0.866277 0.499564 0.000350225
    outer loop
      vertex 53.7321 237.133 5
      vertex 54.4254 235.932 3.25
      vertex 54.3753 236.019 3.07402
    endloop
  endfacet
  facet normal 0.865924 0.500175 -0.000208934
    outer loop
      vertex 53.7321 237.133 5
      vertex 54.4884 235.823 3.41314
      vertex 54.4254 235.932 3.25
    endloop
  endfacet
  facet normal 0.865697 0.500567 -0.000640208
    outer loop
      vertex 53.7321 237.133 5
      vertex 54.5631 235.694 3.56066
      vertex 54.4884 235.823 3.41314
    endloop
  endfacet
  facet normal 0.866472 0.499225 0.00114846
    outer loop
      vertex 53.7321 237.133 5
      vertex 54.6482 235.546 3.69003
      vertex 54.5631 235.694 3.56066
    endloop
  endfacet
  facet normal 0.865925 0.500174 -0.000383313
    outer loop
      vertex 53.7321 237.133 5
      vertex 54.7424 235.383 3.79904
      vertex 54.6482 235.546 3.69003
    endloop
  endfacet
  facet normal 0.866048 0.499961 3.05187e-05
    outer loop
      vertex 53.7321 237.133 5
      vertex 54.844 235.207 3.88582
      vertex 54.7424 235.383 3.79904
    endloop
  endfacet
  facet normal 0.865403 0.501071 -0.00253152
    outer loop
      vertex 53.7321 237.133 5
      vertex 54.9513 235.022 3.94889
      vertex 54.844 235.207 3.88582
    endloop
  endfacet
  facet normal 0.866459 0.499243 0.0023626
    outer loop
      vertex 53.7321 237.133 5
      vertex 55.0624 234.829 3.98717
      vertex 54.9513 235.022 3.94889
    endloop
  endfacet
  facet normal 0.86629 0.499539 0.00146917
    outer loop
      vertex 53.7321 237.133 5
      vertex 55.1754 234.633 4
      vertex 55.0624 234.829 3.98717
    endloop
  endfacet
  facet normal 0.860763 0.508223 -0.0282196
    outer loop
      vertex 53.7321 237.133 5
      vertex 55.1854 234.616 3.99886
      vertex 55.1754 234.633 4
    endloop
  endfacet
  facet normal 0.866024 0.500002 0
    outer loop
      vertex 55.1854 234.616 3.99886
      vertex 102.268 153.067 5
      vertex 55.1854 234.616 1.00114
    endloop
  endfacet
  facet normal 0.866024 0.500003 8.49695e-05
    outer loop
      vertex 102.268 153.067 5
      vertex 55.1854 234.616 3.99886
      vertex 53.7321 237.133 5
    endloop
  endfacet
  facet normal 0.866475 0.499221 -0.000398148
    outer loop
      vertex 54.3168 236.12 2.30421
      vertex 53.7321 237.133 0
      vertex 54.3094 236.133 2.5
    endloop
  endfacet
  facet normal 0.865573 0.500782 0.00051689
    outer loop
      vertex 54.3389 236.082 2.11177
      vertex 53.7321 237.133 0
      vertex 54.3168 236.12 2.30421
    endloop
  endfacet
  facet normal 0.865959 0.500114 7.38519e-05
    outer loop
      vertex 54.3753 236.019 1.92597
      vertex 53.7321 237.133 0
      vertex 54.3389 236.082 2.11177
    endloop
  endfacet
  facet normal 0.866277 0.499564 -0.000350237
    outer loop
      vertex 54.4254 235.932 1.75
      vertex 53.7321 237.133 0
      vertex 54.3753 236.019 1.92597
    endloop
  endfacet
  facet normal 0.865924 0.500175 0.000208934
    outer loop
      vertex 54.4884 235.823 1.58686
      vertex 53.7321 237.133 0
      vertex 54.4254 235.932 1.75
    endloop
  endfacet
  facet normal 0.865697 0.500567 0.000640208
    outer loop
      vertex 54.5631 235.694 1.43934
      vertex 53.7321 237.133 0
      vertex 54.4884 235.823 1.58686
    endloop
  endfacet
  facet normal 0.866472 0.499225 -0.00114846
    outer loop
      vertex 54.6482 235.546 1.30997
      vertex 53.7321 237.133 0
      vertex 54.5631 235.694 1.43934
    endloop
  endfacet
  facet normal 0.865925 0.500174 0.000383313
    outer loop
      vertex 54.7424 235.383 1.20096
      vertex 53.7321 237.133 0
      vertex 54.6482 235.546 1.30997
    endloop
  endfacet
  facet normal 0.866048 0.499961 -3.05187e-05
    outer loop
      vertex 54.844 235.207 1.11418
      vertex 53.7321 237.133 0
      vertex 54.7424 235.383 1.20096
    endloop
  endfacet
  facet normal 0.865403 0.501071 0.00253152
    outer loop
      vertex 54.9513 235.022 1.05111
      vertex 53.7321 237.133 0
      vertex 54.844 235.207 1.11418
    endloop
  endfacet
  facet normal 0.866459 0.499243 -0.0023626
    outer loop
      vertex 55.0624 234.829 1.01283
      vertex 53.7321 237.133 0
      vertex 54.9513 235.022 1.05111
    endloop
  endfacet
  facet normal 0.86629 0.499539 -0.00146917
    outer loop
      vertex 55.1754 234.633 1
      vertex 53.7321 237.133 0
      vertex 55.0624 234.829 1.01283
    endloop
  endfacet
  facet normal 0.860763 0.508223 0.0282196
    outer loop
      vertex 55.1854 234.616 1.00114
      vertex 53.7321 237.133 0
      vertex 55.1754 234.633 1
    endloop
  endfacet
  facet normal 0.866024 0.500002 -0
    outer loop
      vertex 102.268 153.067 0
      vertex 55.1854 234.616 1.00114
      vertex 102.268 153.067 5
    endloop
  endfacet
  facet normal 0.866024 0.500003 -8.49695e-05
    outer loop
      vertex 55.1854 234.616 1.00114
      vertex 102.268 153.067 0
      vertex 53.7321 237.133 0
    endloop
  endfacet
  facet normal -0.866026 -0.499998 0
    outer loop
      vertex -53.7321 63 0
      vertex -102.268 147.067 5
      vertex -102.268 147.067 0
    endloop
  endfacet
  facet normal -0.866026 -0.499998 0
    outer loop
      vertex -102.268 147.067 5
      vertex -53.7321 63 0
      vertex -53.7321 63 5
    endloop
  endfacet
  facet normal -0.980825 0.194891 0
    outer loop
      vertex -103.02 150.85 0
      vertex -102.867 151.62 5
      vertex -102.867 151.62 0
    endloop
  endfacet
  facet normal -0.980825 0.194891 0
    outer loop
      vertex -102.867 151.62 5
      vertex -103.02 150.85 0
      vertex -103.02 150.85 5
    endloop
  endfacet
  facet normal 0.896961 -0.44211 0
    outer loop
      vertex 102.268 147.067 5
      vertex 102.615 147.771 0
      vertex 102.615 147.771 5
    endloop
  endfacet
  facet normal 0.896961 -0.44211 0
    outer loop
      vertex 102.615 147.771 0
      vertex 102.268 147.067 5
      vertex 102.268 147.067 0
    endloop
  endfacet
  facet normal 0.751787 -0.659406 0
    outer loop
      vertex 52.7785 61.7574 5
      vertex 53.296 62.3474 0
      vertex 53.296 62.3474 5
    endloop
  endfacet
  facet normal 0.751787 -0.659406 0
    outer loop
      vertex 53.296 62.3474 0
      vertex 52.7785 61.7574 5
      vertex 52.7785 61.7574 0
    endloop
  endfacet
  facet normal -0.555523 -0.831501 0
    outer loop
      vertex -52.1885 61.2399 0
      vertex -51.5359 60.8039 5
      vertex -52.1885 61.2399 5
    endloop
  endfacet
  facet normal -0.555523 -0.831501 -0
    outer loop
      vertex -51.5359 60.8039 5
      vertex -52.1885 61.2399 0
      vertex -51.5359 60.8039 0
    endloop
  endfacet
  facet normal -0.866044 0.499967 0
    outer loop
      vertex -53.7321 237.133 0
      vertex -54.3094 236.133 2.5
      vertex -53.7321 237.133 5
    endloop
  endfacet
  facet normal -0.866475 0.499221 -0.000398148
    outer loop
      vertex -53.7321 237.133 0
      vertex -54.3168 236.12 2.30421
      vertex -54.3094 236.133 2.5
    endloop
  endfacet
  facet normal -0.865573 0.500782 0.00051689
    outer loop
      vertex -53.7321 237.133 0
      vertex -54.3389 236.082 2.11177
      vertex -54.3168 236.12 2.30421
    endloop
  endfacet
  facet normal -0.865959 0.500114 7.38519e-05
    outer loop
      vertex -53.7321 237.133 0
      vertex -54.3753 236.019 1.92597
      vertex -54.3389 236.082 2.11177
    endloop
  endfacet
  facet normal -0.866277 0.499564 -0.000350237
    outer loop
      vertex -53.7321 237.133 0
      vertex -54.4254 235.932 1.75
      vertex -54.3753 236.019 1.92597
    endloop
  endfacet
  facet normal -0.865924 0.500175 0.000208934
    outer loop
      vertex -53.7321 237.133 0
      vertex -54.4884 235.823 1.58686
      vertex -54.4254 235.932 1.75
    endloop
  endfacet
  facet normal -0.865697 0.500567 0.000640208
    outer loop
      vertex -53.7321 237.133 0
      vertex -54.5631 235.694 1.43934
      vertex -54.4884 235.823 1.58686
    endloop
  endfacet
  facet normal -0.866472 0.499225 -0.00114846
    outer loop
      vertex -53.7321 237.133 0
      vertex -54.6482 235.546 1.30997
      vertex -54.5631 235.694 1.43934
    endloop
  endfacet
  facet normal -0.865925 0.500174 0.000383313
    outer loop
      vertex -53.7321 237.133 0
      vertex -54.7424 235.383 1.20096
      vertex -54.6482 235.546 1.30997
    endloop
  endfacet
  facet normal -0.866048 0.499961 -3.05187e-05
    outer loop
      vertex -53.7321 237.133 0
      vertex -54.844 235.207 1.11418
      vertex -54.7424 235.383 1.20096
    endloop
  endfacet
  facet normal -0.865403 0.501071 0.00253152
    outer loop
      vertex -53.7321 237.133 0
      vertex -54.9513 235.022 1.05111
      vertex -54.844 235.207 1.11418
    endloop
  endfacet
  facet normal -0.866459 0.499243 -0.0023626
    outer loop
      vertex -53.7321 237.133 0
      vertex -55.0624 234.829 1.01283
      vertex -54.9513 235.022 1.05111
    endloop
  endfacet
  facet normal -0.86629 0.499539 -0.00146917
    outer loop
      vertex -53.7321 237.133 0
      vertex -55.1754 234.633 1
      vertex -55.0624 234.829 1.01283
    endloop
  endfacet
  facet normal -0.860763 0.508223 0.0282196
    outer loop
      vertex -53.7321 237.133 0
      vertex -55.1854 234.616 1.00114
      vertex -55.1754 234.633 1
    endloop
  endfacet
  facet normal -0.866024 0.500002 0
    outer loop
      vertex -55.1854 234.616 1.00114
      vertex -102.268 153.067 0
      vertex -55.1854 234.616 3.99886
    endloop
  endfacet
  facet normal -0.866024 0.500003 -8.49695e-05
    outer loop
      vertex -102.268 153.067 0
      vertex -55.1854 234.616 1.00114
      vertex -53.7321 237.133 0
    endloop
  endfacet
  facet normal -0.866475 0.499221 0.000398148
    outer loop
      vertex -54.3168 236.12 2.69579
      vertex -53.7321 237.133 5
      vertex -54.3094 236.133 2.5
    endloop
  endfacet
  facet normal -0.865573 0.500782 -0.00051689
    outer loop
      vertex -54.3389 236.082 2.88823
      vertex -53.7321 237.133 5
      vertex -54.3168 236.12 2.69579
    endloop
  endfacet
  facet normal -0.865959 0.500114 -7.38543e-05
    outer loop
      vertex -54.3753 236.019 3.07402
      vertex -53.7321 237.133 5
      vertex -54.3389 236.082 2.88823
    endloop
  endfacet
  facet normal -0.866277 0.499564 0.000350225
    outer loop
      vertex -54.4254 235.932 3.25
      vertex -53.7321 237.133 5
      vertex -54.3753 236.019 3.07402
    endloop
  endfacet
  facet normal -0.865924 0.500175 -0.000208934
    outer loop
      vertex -54.4884 235.823 3.41314
      vertex -53.7321 237.133 5
      vertex -54.4254 235.932 3.25
    endloop
  endfacet
  facet normal -0.865697 0.500567 -0.000640208
    outer loop
      vertex -54.5631 235.694 3.56066
      vertex -53.7321 237.133 5
      vertex -54.4884 235.823 3.41314
    endloop
  endfacet
  facet normal -0.866472 0.499225 0.00114846
    outer loop
      vertex -54.6482 235.546 3.69003
      vertex -53.7321 237.133 5
      vertex -54.5631 235.694 3.56066
    endloop
  endfacet
  facet normal -0.865925 0.500174 -0.000383313
    outer loop
      vertex -54.7424 235.383 3.79904
      vertex -53.7321 237.133 5
      vertex -54.6482 235.546 3.69003
    endloop
  endfacet
  facet normal -0.866048 0.499961 3.05187e-05
    outer loop
      vertex -54.844 235.207 3.88582
      vertex -53.7321 237.133 5
      vertex -54.7424 235.383 3.79904
    endloop
  endfacet
  facet normal -0.865403 0.501071 -0.00253152
    outer loop
      vertex -54.9513 235.022 3.94889
      vertex -53.7321 237.133 5
      vertex -54.844 235.207 3.88582
    endloop
  endfacet
  facet normal -0.866459 0.499243 0.0023626
    outer loop
      vertex -55.0624 234.829 3.98717
      vertex -53.7321 237.133 5
      vertex -54.9513 235.022 3.94889
    endloop
  endfacet
  facet normal -0.86629 0.499539 0.00146917
    outer loop
      vertex -55.1754 234.633 4
      vertex -53.7321 237.133 5
      vertex -55.0624 234.829 3.98717
    endloop
  endfacet
  facet normal -0.860763 0.508223 -0.0282196
    outer loop
      vertex -55.1854 234.616 3.99886
      vertex -53.7321 237.133 5
      vertex -55.1754 234.633 4
    endloop
  endfacet
  facet normal -0.866024 0.500002 0
    outer loop
      vertex -102.268 153.067 5
      vertex -55.1854 234.616 3.99886
      vertex -102.268 153.067 0
    endloop
  endfacet
  facet normal -0.866024 0.500003 8.49695e-05
    outer loop
      vertex -55.1854 234.616 3.99886
      vertex -102.268 153.067 5
      vertex -53.7321 237.133 5
    endloop
  endfacet
  facet normal -0.896961 -0.44211 0
    outer loop
      vertex -102.268 147.067 0
      vertex -102.615 147.771 5
      vertex -102.615 147.771 0
    endloop
  endfacet
  facet normal -0.896961 -0.44211 0
    outer loop
      vertex -102.615 147.771 5
      vertex -102.268 147.067 0
      vertex -102.268 147.067 5
    endloop
  endfacet
  facet normal -0.831442 -0.555611 0
    outer loop
      vertex -53.296 62.3474 0
      vertex -53.7321 63 5
      vertex -53.7321 63 0
    endloop
  endfacet
  facet normal -0.831442 -0.555611 0
    outer loop
      vertex -53.7321 63 5
      vertex -53.296 62.3474 0
      vertex -53.296 62.3474 5
    endloop
  endfacet
  facet normal -0.0653605 -0.997862 0
    outer loop
      vertex -49.3191 60.0513 0
      vertex -48.5359 60 5
      vertex -49.3191 60.0513 5
    endloop
  endfacet
  facet normal -0.0653605 -0.997862 -0
    outer loop
      vertex -48.5359 60 5
      vertex -49.3191 60.0513 0
      vertex -48.5359 60 0
    endloop
  endfacet
  facet normal -0.980776 -0.195135 0
    outer loop
      vertex -102.867 148.514 0
      vertex -103.02 149.283 5
      vertex -103.02 149.283 0
    endloop
  endfacet
  facet normal -0.980776 -0.195135 0
    outer loop
      vertex -103.02 149.283 5
      vertex -102.867 148.514 0
      vertex -102.867 148.514 5
    endloop
  endfacet
  facet normal -0.947013 0.321194 0
    outer loop
      vertex -102.867 151.62 0
      vertex -102.615 152.363 5
      vertex -102.615 152.363 0
    endloop
  endfacet
  facet normal -0.947013 0.321194 0
    outer loop
      vertex -102.615 152.363 5
      vertex -102.867 151.62 0
      vertex -102.867 151.62 5
    endloop
  endfacet
  facet normal -0.194964 0.98081 0
    outer loop
      vertex -49.3191 240.082 0
      vertex -50.0888 239.929 5
      vertex -49.3191 240.082 5
    endloop
  endfacet
  facet normal -0.194964 0.98081 0
    outer loop
      vertex -50.0888 239.929 5
      vertex -49.3191 240.082 0
      vertex -50.0888 239.929 0
    endloop
  endfacet
  facet normal 0.659406 -0.751787 0
    outer loop
      vertex 52.1885 61.2399 0
      vertex 52.7785 61.7574 5
      vertex 52.1885 61.2399 5
    endloop
  endfacet
  facet normal 0.659406 -0.751787 0
    outer loop
      vertex 52.7785 61.7574 5
      vertex 52.1885 61.2399 0
      vertex 52.7785 61.7574 0
    endloop
  endfacet
  facet normal -0.659406 -0.751787 0
    outer loop
      vertex -52.7785 61.7574 0
      vertex -52.1885 61.2399 5
      vertex -52.7785 61.7574 5
    endloop
  endfacet
  facet normal -0.659406 -0.751787 -0
    outer loop
      vertex -52.1885 61.2399 5
      vertex -52.7785 61.7574 0
      vertex -52.1885 61.2399 0
    endloop
  endfacet
  facet normal 0.896961 0.44211 0
    outer loop
      vertex 102.615 152.363 5
      vertex 102.268 153.067 0
      vertex 102.268 153.067 5
    endloop
  endfacet
  facet normal 0.896961 0.44211 0
    outer loop
      vertex 102.268 153.067 0
      vertex 102.615 152.363 5
      vertex 102.615 152.363 0
    endloop
  endfacet
  facet normal 0 -1 0
    outer loop
      vertex -48.5359 60 0
      vertex 48.5359 60 5
      vertex -48.5359 60 5
    endloop
  endfacet
  facet normal 0 -1 -0
    outer loop
      vertex 48.5359 60 5
      vertex -48.5359 60 0
      vertex 48.5359 60 0
    endloop
  endfacet
  facet normal 0.831442 -0.555611 0
    outer loop
      vertex 53.296 62.3474 5
      vertex 53.7321 63 0
      vertex 53.7321 63 5
    endloop
  endfacet
  facet normal 0.831442 -0.555611 0
    outer loop
      vertex 53.7321 63 0
      vertex 53.296 62.3474 5
      vertex 53.296 62.3474 0
    endloop
  endfacet
  facet normal 0.866026 -0.499998 0
    outer loop
      vertex 53.7321 63 5
      vertex 102.268 147.067 0
      vertex 102.268 147.067 5
    endloop
  endfacet
  facet normal 0.866026 -0.499998 0
    outer loop
      vertex 102.268 147.067 0
      vertex 53.7321 63 5
      vertex 53.7321 63 0
    endloop
  endfacet
  facet normal -0.997808 -0.0661811 0
    outer loop
      vertex -103.02 149.283 0
      vertex -103.072 150.067 5
      vertex -103.072 150.067 0
    endloop
  endfacet
  facet normal -0.997808 -0.0661811 0
    outer loop
      vertex -103.072 150.067 5
      vertex -103.02 149.283 0
      vertex -103.02 149.283 5
    endloop
  endfacet
  facet normal -0.321345 -0.946962 0
    outer loop
      vertex -50.832 60.4567 0
      vertex -50.0888 60.2045 5
      vertex -50.832 60.4567 5
    endloop
  endfacet
  facet normal -0.321345 -0.946962 -0
    outer loop
      vertex -50.0888 60.2045 5
      vertex -50.832 60.4567 0
      vertex -50.0888 60.2045 0
    endloop
  endfacet
  facet normal 0 0 -1
    outer loop
      vertex 103.02 149.283 0
      vertex 103.02 150.85 0
      vertex 103.072 150.067 0
    endloop
  endfacet
  facet normal 0 0 -1
    outer loop
      vertex 102.867 148.514 0
      vertex 103.02 150.85 0
      vertex 103.02 149.283 0
    endloop
  endfacet
  facet normal 0 0 -1
    outer loop
      vertex 102.867 148.514 0
      vertex 102.867 151.62 0
      vertex 103.02 150.85 0
    endloop
  endfacet
  facet normal 0 0 -1
    outer loop
      vertex 102.615 147.771 0
      vertex 102.867 151.62 0
      vertex 102.867 148.514 0
    endloop
  endfacet
  facet normal 0 0 -1
    outer loop
      vertex 102.615 147.771 0
      vertex 102.615 152.363 0
      vertex 102.867 151.62 0
    endloop
  endfacet
  facet normal 0 0 -1
    outer loop
      vertex 102.268 147.067 0
      vertex 102.615 152.363 0
      vertex 102.615 147.771 0
    endloop
  endfacet
  facet normal 0 0 -1
    outer loop
      vertex 102.268 147.067 0
      vertex 102.268 153.067 0
      vertex 102.615 152.363 0
    endloop
  endfacet
  facet normal 0 0 -1
    outer loop
      vertex 53.7321 63 0
      vertex 102.268 153.067 0
      vertex 102.268 147.067 0
    endloop
  endfacet
  facet normal 0 0 -1
    outer loop
      vertex 53.7321 63 0
      vertex 53.7321 237.133 0
      vertex 102.268 153.067 0
    endloop
  endfacet
  facet normal 0 0 -1
    outer loop
      vertex 48.5359 60 0
      vertex 53.7321 63 0
      vertex 53.296 62.3474 0
    endloop
  endfacet
  facet normal -0 0 -1
    outer loop
      vertex 53.7321 63 0
      vertex 48.5359 60 0
      vertex 53.7321 237.133 0
    endloop
  endfacet
  facet normal 0 0 -1
    outer loop
      vertex 48.5359 60 0
      vertex 53.296 62.3474 0
      vertex 52.7785 61.7574 0
    endloop
  endfacet
  facet normal 0 0 -1
    outer loop
      vertex 48.5359 240.133 0
      vertex 53.7321 237.133 0
      vertex 48.5359 60 0
    endloop
  endfacet
  facet normal 0 0 -1
    outer loop
      vertex 48.5359 60 0
      vertex 52.7785 61.7574 0
      vertex 52.1885 61.2399 0
    endloop
  endfacet
  facet normal 0 0 -1
    outer loop
      vertex 53.7321 237.133 0
      vertex 48.5359 240.133 0
      vertex 53.296 237.786 0
    endloop
  endfacet
  facet normal 0 0 -1
    outer loop
      vertex 48.5359 60 0
      vertex 52.1885 61.2399 0
      vertex 51.5359 60.8039 0
    endloop
  endfacet
  facet normal 0 0 -1
    outer loop
      vertex 53.296 237.786 0
      vertex 48.5359 240.133 0
      vertex 52.7785 238.376 0
    endloop
  endfacet
  facet normal 0 0 -1
    outer loop
      vertex 48.5359 60 0
      vertex 51.5359 60.8039 0
      vertex 50.832 60.4567 0
    endloop
  endfacet
  facet normal 0 0 -1
    outer loop
      vertex 52.7785 238.376 0
      vertex 48.5359 240.133 0
      vertex 52.1885 238.893 0
    endloop
  endfacet
  facet normal 0 0 -1
    outer loop
      vertex 48.5359 60 0
      vertex 50.832 60.4567 0
      vertex 50.0888 60.2045 0
    endloop
  endfacet
  facet normal 0 0 -1
    outer loop
      vertex 52.1885 238.893 0
      vertex 48.5359 240.133 0
      vertex 51.5359 239.329 0
    endloop
  endfacet
  facet normal 0 0 -1
    outer loop
      vertex 48.5359 60 0
      vertex 50.0888 60.2045 0
      vertex 49.3191 60.0513 0
    endloop
  endfacet
  facet normal 0 0 -1
    outer loop
      vertex 51.5359 239.329 0
      vertex 48.5359 240.133 0
      vertex 50.832 239.677 0
    endloop
  endfacet
  facet normal 0 0 -1
    outer loop
      vertex 50.832 239.677 0
      vertex 48.5359 240.133 0
      vertex 50.0888 239.929 0
    endloop
  endfacet
  facet normal 0 0 -1
    outer loop
      vertex 50.0888 239.929 0
      vertex 48.5359 240.133 0
      vertex 49.3191 240.082 0
    endloop
  endfacet
  facet normal 0 0 -1
    outer loop
      vertex -48.5359 60 0
      vertex 48.5359 240.133 0
      vertex 48.5359 60 0
    endloop
  endfacet
  facet normal 0 0 -1
    outer loop
      vertex -48.5359 60 0
      vertex -48.5359 240.133 0
      vertex 48.5359 240.133 0
    endloop
  endfacet
  facet normal 0 0 -1
    outer loop
      vertex -53.7321 63 0
      vertex -48.5359 60 0
      vertex -49.3191 60.0513 0
    endloop
  endfacet
  facet normal 0 0 -1
    outer loop
      vertex -48.5359 60 0
      vertex -53.7321 63 0
      vertex -48.5359 240.133 0
    endloop
  endfacet
  facet normal 0 0 -1
    outer loop
      vertex -53.7321 63 0
      vertex -49.3191 60.0513 0
      vertex -50.0888 60.2045 0
    endloop
  endfacet
  facet normal 0 0 -1
    outer loop
      vertex -53.7321 237.133 0
      vertex -48.5359 240.133 0
      vertex -53.7321 63 0
    endloop
  endfacet
  facet normal 0 0 -1
    outer loop
      vertex -53.7321 63 0
      vertex -50.0888 60.2045 0
      vertex -50.832 60.4567 0
    endloop
  endfacet
  facet normal 0 0 -1
    outer loop
      vertex -48.5359 240.133 0
      vertex -53.7321 237.133 0
      vertex -49.3191 240.082 0
    endloop
  endfacet
  facet normal 0 0 -1
    outer loop
      vertex -53.7321 63 0
      vertex -50.832 60.4567 0
      vertex -51.5359 60.8039 0
    endloop
  endfacet
  facet normal 0 0 -1
    outer loop
      vertex -49.3191 240.082 0
      vertex -53.7321 237.133 0
      vertex -50.0888 239.929 0
    endloop
  endfacet
  facet normal 0 0 -1
    outer loop
      vertex -53.7321 63 0
      vertex -51.5359 60.8039 0
      vertex -52.1885 61.2399 0
    endloop
  endfacet
  facet normal 0 0 -1
    outer loop
      vertex -50.0888 239.929 0
      vertex -53.7321 237.133 0
      vertex -50.832 239.677 0
    endloop
  endfacet
  facet normal 0 0 -1
    outer loop
      vertex -53.7321 63 0
      vertex -52.1885 61.2399 0
      vertex -52.7785 61.7574 0
    endloop
  endfacet
  facet normal 0 0 -1
    outer loop
      vertex -50.832 239.677 0
      vertex -53.7321 237.133 0
      vertex -51.5359 239.329 0
    endloop
  endfacet
  facet normal 0 0 -1
    outer loop
      vertex -53.7321 63 0
      vertex -52.7785 61.7574 0
      vertex -53.296 62.3474 0
    endloop
  endfacet
  facet normal 0 0 -1
    outer loop
      vertex -51.5359 239.329 0
      vertex -53.7321 237.133 0
      vertex -52.1885 238.893 0
    endloop
  endfacet
  facet normal 0 0 -1
    outer loop
      vertex -52.1885 238.893 0
      vertex -53.7321 237.133 0
      vertex -52.7785 238.376 0
    endloop
  endfacet
  facet normal 0 0 -1
    outer loop
      vertex -52.7785 238.376 0
      vertex -53.7321 237.133 0
      vertex -53.296 237.786 0
    endloop
  endfacet
  facet normal 0 0 -1
    outer loop
      vertex -102.268 147.067 0
      vertex -53.7321 237.133 0
      vertex -53.7321 63 0
    endloop
  endfacet
  facet normal 0 0 -1
    outer loop
      vertex -102.268 147.067 0
      vertex -102.268 153.067 0
      vertex -53.7321 237.133 0
    endloop
  endfacet
  facet normal 0 0 -1
    outer loop
      vertex -102.615 147.771 0
      vertex -102.268 153.067 0
      vertex -102.268 147.067 0
    endloop
  endfacet
  facet normal 0 0 -1
    outer loop
      vertex -102.615 147.771 0
      vertex -102.615 152.363 0
      vertex -102.268 153.067 0
    endloop
  endfacet
  facet normal 0 0 -1
    outer loop
      vertex -102.867 148.514 0
      vertex -102.615 152.363 0
      vertex -102.615 147.771 0
    endloop
  endfacet
  facet normal 0 0 -1
    outer loop
      vertex -102.867 148.514 0
      vertex -102.867 151.62 0
      vertex -102.615 152.363 0
    endloop
  endfacet
  facet normal 0 0 -1
    outer loop
      vertex -103.02 149.283 0
      vertex -102.867 151.62 0
      vertex -102.867 148.514 0
    endloop
  endfacet
  facet normal 0 0 -1
    outer loop
      vertex -103.02 149.283 0
      vertex -103.02 150.85 0
      vertex -102.867 151.62 0
    endloop
  endfacet
  facet normal 0 -0 -1
    outer loop
      vertex -103.02 150.85 0
      vertex -103.02 149.283 0
      vertex -103.072 150.067 0
    endloop
  endfacet
  facet normal -0.0649798 0.997887 0
    outer loop
      vertex -48.5359 240.133 0
      vertex -49.3191 240.082 5
      vertex -48.5359 240.133 5
    endloop
  endfacet
  facet normal -0.0649798 0.997887 0
    outer loop
      vertex -49.3191 240.082 5
      vertex -48.5359 240.133 0
      vertex -49.3191 240.082 0
    endloop
  endfacet
  facet normal 0.997808 -0.0661811 0
    outer loop
      vertex 103.02 149.283 5
      vertex 103.072 150.067 0
      vertex 103.072 150.067 5
    endloop
  endfacet
  facet normal 0.997808 -0.0661811 0
    outer loop
      vertex 103.072 150.067 0
      vertex 103.02 149.283 5
      vertex 103.02 149.283 0
    endloop
  endfacet
  facet normal 0.321117 0.94704 -0
    outer loop
      vertex 50.832 239.677 0
      vertex 50.0888 239.929 5
      vertex 50.832 239.677 5
    endloop
  endfacet
  facet normal 0.321117 0.94704 0
    outer loop
      vertex 50.0888 239.929 5
      vertex 50.832 239.677 0
      vertex 50.0888 239.929 0
    endloop
  endfacet
  facet normal 0.980825 0.194891 0
    outer loop
      vertex 103.02 150.85 5
      vertex 102.867 151.62 0
      vertex 102.867 151.62 5
    endloop
  endfacet
  facet normal 0.980825 0.194891 0
    outer loop
      vertex 102.867 151.62 0
      vertex 103.02 150.85 5
      vertex 103.02 150.85 0
    endloop
  endfacet
  facet normal -0.195209 -0.980762 0
    outer loop
      vertex -50.0888 60.2045 0
      vertex -49.3191 60.0513 5
      vertex -50.0888 60.2045 5
    endloop
  endfacet
  facet normal -0.195209 -0.980762 -0
    outer loop
      vertex -49.3191 60.0513 5
      vertex -50.0888 60.2045 0
      vertex -49.3191 60.0513 0
    endloop
  endfacet
  facet normal 0.659046 0.752103 -0
    outer loop
      vertex 52.7785 238.376 0
      vertex 52.1885 238.893 5
      vertex 52.7785 238.376 5
    endloop
  endfacet
  facet normal 0.659046 0.752103 0
    outer loop
      vertex 52.1885 238.893 5
      vertex 52.7785 238.376 0
      vertex 52.1885 238.893 0
    endloop
  endfacet
  facet normal -0.896961 0.44211 0
    outer loop
      vertex -102.615 152.363 0
      vertex -102.268 153.067 5
      vertex -102.268 153.067 0
    endloop
  endfacet
  facet normal -0.896961 0.44211 0
    outer loop
      vertex -102.268 153.067 5
      vertex -102.615 152.363 0
      vertex -102.615 152.363 5
    endloop
  endfacet
  facet normal -0.443185 0.89643 0
    outer loop
      vertex -50.832 239.677 0
      vertex -51.5359 239.329 5
      vertex -50.832 239.677 5
    endloop
  endfacet
  facet normal -0.443185 0.89643 0
    outer loop
      vertex -51.5359 239.329 5
      vertex -50.832 239.677 0
      vertex -51.5359 239.329 0
    endloop
  endfacet
  facet normal -0.751787 -0.659406 0
    outer loop
      vertex -52.7785 61.7574 0
      vertex -53.296 62.3474 5
      vertex -53.296 62.3474 0
    endloop
  endfacet
  facet normal -0.751787 -0.659406 0
    outer loop
      vertex -53.296 62.3474 5
      vertex -52.7785 61.7574 0
      vertex -52.7785 61.7574 5
    endloop
  endfacet
  facet normal -0.659046 0.752103 0
    outer loop
      vertex -52.1885 238.893 0
      vertex -52.7785 238.376 5
      vertex -52.1885 238.893 5
    endloop
  endfacet
  facet normal -0.659046 0.752103 0
    outer loop
      vertex -52.7785 238.376 5
      vertex -52.1885 238.893 0
      vertex -52.7785 238.376 0
    endloop
  endfacet
  facet normal 0.0649798 0.997887 -0
    outer loop
      vertex 49.3191 240.082 0
      vertex 48.5359 240.133 5
      vertex 49.3191 240.082 5
    endloop
  endfacet
  facet normal 0.0649798 0.997887 0
    outer loop
      vertex 48.5359 240.133 5
      vertex 49.3191 240.082 0
      vertex 48.5359 240.133 0
    endloop
  endfacet
  facet normal 0.194964 0.98081 -0
    outer loop
      vertex 50.0888 239.929 0
      vertex 49.3191 240.082 5
      vertex 50.0888 239.929 5
    endloop
  endfacet
  facet normal 0.194964 0.98081 0
    outer loop
      vertex 49.3191 240.082 5
      vertex 50.0888 239.929 0
      vertex 49.3191 240.082 0
    endloop
  endfacet
  facet normal -0.751787 0.659406 0
    outer loop
      vertex -53.296 237.786 0
      vertex -52.7785 238.376 5
      vertex -52.7785 238.376 0
    endloop
  endfacet
  facet normal -0.751787 0.659406 0
    outer loop
      vertex -52.7785 238.376 5
      vertex -53.296 237.786 0
      vertex -53.296 237.786 5
    endloop
  endfacet
  facet normal -0.831599 0.555376 0
    outer loop
      vertex -53.7321 237.133 0
      vertex -53.296 237.786 5
      vertex -53.296 237.786 0
    endloop
  endfacet
  facet normal -0.831599 0.555376 0
    outer loop
      vertex -53.296 237.786 5
      vertex -53.7321 237.133 0
      vertex -53.7321 237.133 5
    endloop
  endfacet
  facet normal 0.555523 0.831501 -0
    outer loop
      vertex 52.1885 238.893 0
      vertex 51.5359 239.329 5
      vertex 52.1885 238.893 5
    endloop
  endfacet
  facet normal 0.555523 0.831501 0
    outer loop
      vertex 51.5359 239.329 5
      vertex 52.1885 238.893 0
      vertex 51.5359 239.329 0
    endloop
  endfacet
  facet normal -0.321117 0.94704 0
    outer loop
      vertex -50.0888 239.929 0
      vertex -50.832 239.677 5
      vertex -50.0888 239.929 5
    endloop
  endfacet
  facet normal -0.321117 0.94704 0
    outer loop
      vertex -50.832 239.677 5
      vertex -50.0888 239.929 0
      vertex -50.832 239.677 0
    endloop
  endfacet
  facet normal -0.442365 -0.896835 0
    outer loop
      vertex -51.5359 60.8039 0
      vertex -50.832 60.4567 5
      vertex -51.5359 60.8039 5
    endloop
  endfacet
  facet normal -0.442365 -0.896835 -0
    outer loop
      vertex -50.832 60.4567 5
      vertex -51.5359 60.8039 0
      vertex -50.832 60.4567 0
    endloop
  endfacet
  facet normal -0.947013 -0.321194 0
    outer loop
      vertex -102.615 147.771 0
      vertex -102.867 148.514 5
      vertex -102.867 148.514 0
    endloop
  endfacet
  facet normal -0.947013 -0.321194 0
    outer loop
      vertex -102.867 148.514 5
      vertex -102.615 147.771 0
      vertex -102.615 147.771 5
    endloop
  endfacet
  facet normal 0.555523 -0.831501 0
    outer loop
      vertex 51.5359 60.8039 0
      vertex 52.1885 61.2399 5
      vertex 51.5359 60.8039 5
    endloop
  endfacet
  facet normal 0.555523 -0.831501 0
    outer loop
      vertex 52.1885 61.2399 5
      vertex 51.5359 60.8039 0
      vertex 52.1885 61.2399 0
    endloop
  endfacet
  facet normal 0.947013 -0.321194 0
    outer loop
      vertex 102.615 147.771 5
      vertex 102.867 148.514 0
      vertex 102.867 148.514 5
    endloop
  endfacet
  facet normal 0.947013 -0.321194 0
    outer loop
      vertex 102.867 148.514 0
      vertex 102.615 147.771 5
      vertex 102.615 147.771 0
    endloop
  endfacet
  facet normal 0.195209 -0.980762 0
    outer loop
      vertex 49.3191 60.0513 0
      vertex 50.0888 60.2045 5
      vertex 49.3191 60.0513 5
    endloop
  endfacet
  facet normal 0.195209 -0.980762 0
    outer loop
      vertex 50.0888 60.2045 5
      vertex 49.3191 60.0513 0
      vertex 50.0888 60.2045 0
    endloop
  endfacet
  facet normal 0.831599 0.555376 0
    outer loop
      vertex 53.7321 237.133 5
      vertex 53.296 237.786 0
      vertex 53.296 237.786 5
    endloop
  endfacet
  facet normal 0.831599 0.555376 0
    outer loop
      vertex 53.296 237.786 0
      vertex 53.7321 237.133 5
      vertex 53.7321 237.133 0
    endloop
  endfacet
  facet normal -0.997802 0.0662653 0
    outer loop
      vertex -103.072 150.067 0
      vertex -103.02 150.85 5
      vertex -103.02 150.85 0
    endloop
  endfacet
  facet normal -0.997802 0.0662653 0
    outer loop
      vertex -103.02 150.85 5
      vertex -103.072 150.067 0
      vertex -103.072 150.067 5
    endloop
  endfacet
  facet normal 0.947013 0.321194 0
    outer loop
      vertex 102.867 151.62 5
      vertex 102.615 152.363 0
      vertex 102.615 152.363 5
    endloop
  endfacet
  facet normal 0.947013 0.321194 0
    outer loop
      vertex 102.615 152.363 0
      vertex 102.867 151.62 5
      vertex 102.867 151.62 0
    endloop
  endfacet
  facet normal 0.442365 -0.896835 0
    outer loop
      vertex 50.832 60.4567 0
      vertex 51.5359 60.8039 5
      vertex 50.832 60.4567 5
    endloop
  endfacet
  facet normal 0.442365 -0.896835 0
    outer loop
      vertex 51.5359 60.8039 5
      vertex 50.832 60.4567 0
      vertex 51.5359 60.8039 0
    endloop
  endfacet
  facet normal 0.751787 0.659406 0
    outer loop
      vertex 53.296 237.786 5
      vertex 52.7785 238.376 0
      vertex 52.7785 238.376 5
    endloop
  endfacet
  facet normal 0.751787 0.659406 0
    outer loop
      vertex 52.7785 238.376 0
      vertex 53.296 237.786 5
      vertex 53.296 237.786 0
    endloop
  endfacet
  facet normal 0.997802 0.0662653 0
    outer loop
      vertex 103.072 150.067 5
      vertex 103.02 150.85 0
      vertex 103.02 150.85 5
    endloop
  endfacet
  facet normal 0.997802 0.0662653 0
    outer loop
      vertex 103.02 150.85 0
      vertex 103.072 150.067 5
      vertex 103.072 150.067 0
    endloop
  endfacet
  facet normal 0 0 1
    outer loop
      vertex 103.02 150.85 5
      vertex 103.02 149.283 5
      vertex 103.072 150.067 5
    endloop
  endfacet
  facet normal 0 0 1
    outer loop
      vertex 102.867 151.62 5
      vertex 103.02 149.283 5
      vertex 103.02 150.85 5
    endloop
  endfacet
  facet normal 0 0 1
    outer loop
      vertex 102.867 151.62 5
      vertex 102.867 148.514 5
      vertex 103.02 149.283 5
    endloop
  endfacet
  facet normal 0 0 1
    outer loop
      vertex 102.615 152.363 5
      vertex 102.867 148.514 5
      vertex 102.867 151.62 5
    endloop
  endfacet
  facet normal 0 0 1
    outer loop
      vertex 102.615 152.363 5
      vertex 102.615 147.771 5
      vertex 102.867 148.514 5
    endloop
  endfacet
  facet normal 0 0 1
    outer loop
      vertex 102.268 153.067 5
      vertex 102.615 147.771 5
      vertex 102.615 152.363 5
    endloop
  endfacet
  facet normal 0 0 1
    outer loop
      vertex 102.268 153.067 5
      vertex 102.268 147.067 5
      vertex 102.615 147.771 5
    endloop
  endfacet
  facet normal 0 0 1
    outer loop
      vertex 53.7321 237.133 5
      vertex 102.268 147.067 5
      vertex 102.268 153.067 5
    endloop
  endfacet
  facet normal 0 0 1
    outer loop
      vertex 53.7321 237.133 5
      vertex 53.7321 63 5
      vertex 102.268 147.067 5
    endloop
  endfacet
  facet normal 0 0 1
    outer loop
      vertex 48.5359 240.133 5
      vertex 53.7321 237.133 5
      vertex 53.296 237.786 5
    endloop
  endfacet
  facet normal 0 0 1
    outer loop
      vertex 53.7321 237.133 5
      vertex 48.5359 240.133 5
      vertex 53.7321 63 5
    endloop
  endfacet
  facet normal 0 0 1
    outer loop
      vertex 48.5359 240.133 5
      vertex 53.296 237.786 5
      vertex 52.7785 238.376 5
    endloop
  endfacet
  facet normal 0 0 1
    outer loop
      vertex 48.5359 60 5
      vertex 53.7321 63 5
      vertex 48.5359 240.133 5
    endloop
  endfacet
  facet normal 0 0 1
    outer loop
      vertex 48.5359 240.133 5
      vertex 52.7785 238.376 5
      vertex 52.1885 238.893 5
    endloop
  endfacet
  facet normal 0 0 1
    outer loop
      vertex 53.7321 63 5
      vertex 48.5359 60 5
      vertex 53.296 62.3474 5
    endloop
  endfacet
  facet normal 0 0 1
    outer loop
      vertex 48.5359 240.133 5
      vertex 52.1885 238.893 5
      vertex 51.5359 239.329 5
    endloop
  endfacet
  facet normal 0 0 1
    outer loop
      vertex 53.296 62.3474 5
      vertex 48.5359 60 5
      vertex 52.7785 61.7574 5
    endloop
  endfacet
  facet normal 0 0 1
    outer loop
      vertex 48.5359 240.133 5
      vertex 51.5359 239.329 5
      vertex 50.832 239.677 5
    endloop
  endfacet
  facet normal 0 0 1
    outer loop
      vertex 52.7785 61.7574 5
      vertex 48.5359 60 5
      vertex 52.1885 61.2399 5
    endloop
  endfacet
  facet normal 0 0 1
    outer loop
      vertex 48.5359 240.133 5
      vertex 50.832 239.677 5
      vertex 50.0888 239.929 5
    endloop
  endfacet
  facet normal 0 0 1
    outer loop
      vertex 52.1885 61.2399 5
      vertex 48.5359 60 5
      vertex 51.5359 60.8039 5
    endloop
  endfacet
  facet normal 0 0 1
    outer loop
      vertex 48.5359 240.133 5
      vertex 50.0888 239.929 5
      vertex 49.3191 240.082 5
    endloop
  endfacet
  facet normal 0 0 1
    outer loop
      vertex 51.5359 60.8039 5
      vertex 48.5359 60 5
      vertex 50.832 60.4567 5
    endloop
  endfacet
  facet normal 0 0 1
    outer loop
      vertex 50.832 60.4567 5
      vertex 48.5359 60 5
      vertex 50.0888 60.2045 5
    endloop
  endfacet
  facet normal 0 0 1
    outer loop
      vertex 50.0888 60.2045 5
      vertex 48.5359 60 5
      vertex 49.3191 60.0513 5
    endloop
  endfacet
  facet normal -0 0 1
    outer loop
      vertex -48.5359 240.133 5
      vertex 48.5359 60 5
      vertex 48.5359 240.133 5
    endloop
  endfacet
  facet normal 0 0 1
    outer loop
      vertex -48.5359 240.133 5
      vertex -48.5359 60 5
      vertex 48.5359 60 5
    endloop
  endfacet
  facet normal 0 0 1
    outer loop
      vertex -53.7321 237.133 5
      vertex -48.5359 240.133 5
      vertex -49.3191 240.082 5
    endloop
  endfacet
  facet normal 0 0 1
    outer loop
      vertex -48.5359 240.133 5
      vertex -53.7321 237.133 5
      vertex -48.5359 60 5
    endloop
  endfacet
  facet normal 0 0 1
    outer loop
      vertex -53.7321 237.133 5
      vertex -49.3191 240.082 5
      vertex -50.0888 239.929 5
    endloop
  endfacet
  facet normal -0 0 1
    outer loop
      vertex -53.7321 63 5
      vertex -48.5359 60 5
      vertex -53.7321 237.133 5
    endloop
  endfacet
  facet normal 0 0 1
    outer loop
      vertex -53.7321 237.133 5
      vertex -50.0888 239.929 5
      vertex -50.832 239.677 5
    endloop
  endfacet
  facet normal 0 0 1
    outer loop
      vertex -48.5359 60 5
      vertex -53.7321 63 5
      vertex -49.3191 60.0513 5
    endloop
  endfacet
  facet normal 0 0 1
    outer loop
      vertex -53.7321 237.133 5
      vertex -50.832 239.677 5
      vertex -51.5359 239.329 5
    endloop
  endfacet
  facet normal 0 0 1
    outer loop
      vertex -49.3191 60.0513 5
      vertex -53.7321 63 5
      vertex -50.0888 60.2045 5
    endloop
  endfacet
  facet normal 0 0 1
    outer loop
      vertex -53.7321 237.133 5
      vertex -51.5359 239.329 5
      vertex -52.1885 238.893 5
    endloop
  endfacet
  facet normal 0 0 1
    outer loop
      vertex -50.0888 60.2045 5
      vertex -53.7321 63 5
      vertex -50.832 60.4567 5
    endloop
  endfacet
  facet normal 0 0 1
    outer loop
      vertex -53.7321 237.133 5
      vertex -52.1885 238.893 5
      vertex -52.7785 238.376 5
    endloop
  endfacet
  facet normal 0 0 1
    outer loop
      vertex -50.832 60.4567 5
      vertex -53.7321 63 5
      vertex -51.5359 60.8039 5
    endloop
  endfacet
  facet normal 0 0 1
    outer loop
      vertex -53.7321 237.133 5
      vertex -52.7785 238.376 5
      vertex -53.296 237.786 5
    endloop
  endfacet
  facet normal 0 0 1
    outer loop
      vertex -51.5359 60.8039 5
      vertex -53.7321 63 5
      vertex -52.1885 61.2399 5
    endloop
  endfacet
  facet normal 0 0 1
    outer loop
      vertex -52.1885 61.2399 5
      vertex -53.7321 63 5
      vertex -52.7785 61.7574 5
    endloop
  endfacet
  facet normal 0 0 1
    outer loop
      vertex -52.7785 61.7574 5
      vertex -53.7321 63 5
      vertex -53.296 62.3474 5
    endloop
  endfacet
  facet normal -0 0 1
    outer loop
      vertex -102.268 153.067 5
      vertex -53.7321 63 5
      vertex -53.7321 237.133 5
    endloop
  endfacet
  facet normal 0 0 1
    outer loop
      vertex -102.268 153.067 5
      vertex -102.268 147.067 5
      vertex -53.7321 63 5
    endloop
  endfacet
  facet normal -0 0 1
    outer loop
      vertex -102.615 152.363 5
      vertex -102.268 147.067 5
      vertex -102.268 153.067 5
    endloop
  endfacet
  facet normal 0 0 1
    outer loop
      vertex -102.615 152.363 5
      vertex -102.615 147.771 5
      vertex -102.268 147.067 5
    endloop
  endfacet
  facet normal -0 0 1
    outer loop
      vertex -102.867 151.62 5
      vertex -102.615 147.771 5
      vertex -102.615 152.363 5
    endloop
  endfacet
  facet normal 0 0 1
    outer loop
      vertex -102.867 151.62 5
      vertex -102.867 148.514 5
      vertex -102.615 147.771 5
    endloop
  endfacet
  facet normal -0 0 1
    outer loop
      vertex -103.02 150.85 5
      vertex -102.867 148.514 5
      vertex -102.867 151.62 5
    endloop
  endfacet
  facet normal 0 0 1
    outer loop
      vertex -103.02 150.85 5
      vertex -103.02 149.283 5
      vertex -102.867 148.514 5
    endloop
  endfacet
  facet normal 0 -0 1
    outer loop
      vertex -103.02 149.283 5
      vertex -103.02 150.85 5
      vertex -103.072 150.067 5
    endloop
  endfacet
  facet normal 0.321345 -0.946962 0
    outer loop
      vertex 50.0888 60.2045 0
      vertex 50.832 60.4567 5
      vertex 50.0888 60.2045 5
    endloop
  endfacet
  facet normal 0.321345 -0.946962 0
    outer loop
      vertex 50.832 60.4567 5
      vertex 50.0888 60.2045 0
      vertex 50.832 60.4567 0
    endloop
  endfacet
  facet normal -0.555523 0.831501 0
    outer loop
      vertex -51.5359 239.329 0
      vertex -52.1885 238.893 5
      vertex -51.5359 239.329 5
    endloop
  endfacet
  facet normal -0.555523 0.831501 0
    outer loop
      vertex -52.1885 238.893 5
      vertex -51.5359 239.329 0
      vertex -52.1885 238.893 0
    endloop
  endfacet
  facet normal 0.980776 -0.195135 0
    outer loop
      vertex 102.867 148.514 5
      vertex 103.02 149.283 0
      vertex 103.02 149.283 5
    endloop
  endfacet
  facet normal 0.980776 -0.195135 0
    outer loop
      vertex 103.02 149.283 0
      vertex 102.867 148.514 5
      vertex 102.867 148.514 0
    endloop
  endfacet
  facet normal 0 -0.947034 -0.321132
    outer loop
      vertex -54.3389 236.082 2.88823
      vertex 54.3753 236.019 3.07402
      vertex -54.3753 236.019 3.07402
    endloop
  endfacet
  facet normal 0 -0.947034 -0.321132
    outer loop
      vertex 54.3753 236.019 3.07402
      vertex -54.3389 236.082 2.88823
      vertex 54.3389 236.082 2.88823
    endloop
  endfacet
  facet normal 0 -0.94704 0.321117
    outer loop
      vertex -54.3753 236.019 1.92597
      vertex 54.3389 236.082 2.11177
      vertex -54.3389 236.082 2.11177
    endloop
  endfacet
  facet normal 0 -0.94704 0.321117
    outer loop
      vertex 54.3389 236.082 2.11177
      vertex -54.3753 236.019 1.92597
      vertex 54.3753 236.019 1.92597
    endloop
  endfacet
  facet normal 0 -0.555912 -0.831241
    outer loop
      vertex 54.7424 235.383 3.79904
      vertex -54.6482 235.546 3.69003
      vertex 54.6482 235.546 3.69003
    endloop
  endfacet
  facet normal 0 -0.555912 -0.831241
    outer loop
      vertex -54.6482 235.546 3.69003
      vertex 54.7424 235.383 3.79904
      vertex -54.7424 235.383 3.79904
    endloop
  endfacet
  facet normal 0 0.981056 0.193723
    outer loop
      vertex 55.1854 233.184 2.11177
      vertex -55.1854 233.146 2.30421
      vertex 55.1854 233.146 2.30421
    endloop
  endfacet
  facet normal 0 0.981056 0.193723
    outer loop
      vertex -55.1854 233.146 2.30421
      vertex 55.1854 233.184 2.11177
      vertex -55.1854 233.184 2.11177
    endloop
  endfacet
  facet normal 0 -0.0653194 0.997864
    outer loop
      vertex -55.0624 234.829 1.01283
      vertex 55.1754 234.633 1
      vertex 55.0624 234.829 1.01283
    endloop
  endfacet
  facet normal 0 -0.0653194 0.997864
    outer loop
      vertex 55.1754 234.633 1
      vertex -55.0624 234.829 1.01283
      vertex -55.1754 234.633 1
    endloop
  endfacet
  facet normal 0 -0.65813 0.752904
    outer loop
      vertex -54.5631 235.694 1.43934
      vertex 54.6482 235.546 1.30997
      vertex 54.5631 235.694 1.43934
    endloop
  endfacet
  facet normal 0 -0.65813 0.752904
    outer loop
      vertex 54.6482 235.546 1.30997
      vertex -54.5631 235.694 1.43934
      vertex -54.6482 235.546 1.30997
    endloop
  endfacet
  facet normal -0.00234887 0.0655328 0.997848
    outer loop
      vertex 55.1754 234.633 1
      vertex 55.1854 234.438 1.01283
      vertex 55.1854 234.616 1.00114
    endloop
  endfacet
  facet normal -0 0.0656529 0.997843
    outer loop
      vertex -55.1754 234.633 1
      vertex 55.1854 234.438 1.01283
      vertex 55.1754 234.633 1
    endloop
  endfacet
  facet normal 0.00234887 0.0655328 0.997848
    outer loop
      vertex -55.1854 234.438 1.01283
      vertex -55.1754 234.633 1
      vertex -55.1854 234.616 1.00114
    endloop
  endfacet
  facet normal 0 0.0656529 0.997843
    outer loop
      vertex -55.1754 234.633 1
      vertex -55.1854 234.438 1.01283
      vertex 55.1854 234.438 1.01283
    endloop
  endfacet
  facet normal 0 0.831485 0.555547
    outer loop
      vertex 55.1854 233.443 1.58686
      vertex -55.1854 233.334 1.75
      vertex 55.1854 233.334 1.75
    endloop
  endfacet
  facet normal 0 0.831485 0.555547
    outer loop
      vertex -55.1854 233.334 1.75
      vertex 55.1854 233.443 1.58686
      vertex -55.1854 233.443 1.58686
    endloop
  endfacet
  facet normal 0 -0.981056 0.193723
    outer loop
      vertex -54.3389 236.082 2.11177
      vertex 54.3168 236.12 2.30421
      vertex -54.3168 236.12 2.30421
    endloop
  endfacet
  facet normal 0 -0.981056 0.193723
    outer loop
      vertex 54.3168 236.12 2.30421
      vertex -54.3389 236.082 2.11177
      vertex 54.3389 236.082 2.11177
    endloop
  endfacet
  facet normal -0 0.660657 0.750688
    outer loop
      vertex -55.1854 233.72 1.30997
      vertex 55.1854 233.573 1.43934
      vertex 55.1854 233.72 1.30997
    endloop
  endfacet
  facet normal 0 0.660657 0.750688
    outer loop
      vertex 55.1854 233.573 1.43934
      vertex -55.1854 233.72 1.30997
      vertex -55.1854 233.573 1.43934
    endloop
  endfacet
  facet normal 0 0.896425 0.443195
    outer loop
      vertex 55.1854 233.334 1.75
      vertex -55.1854 233.247 1.92597
      vertex 55.1854 233.247 1.92597
    endloop
  endfacet
  facet normal 0 0.896425 0.443195
    outer loop
      vertex -55.1854 233.247 1.92597
      vertex 55.1854 233.334 1.75
      vertex -55.1854 233.334 1.75
    endloop
  endfacet
  facet normal 0 -0.831485 0.555547
    outer loop
      vertex -54.4884 235.823 1.58686
      vertex 54.4254 235.932 1.75
      vertex -54.4254 235.932 1.75
    endloop
  endfacet
  facet normal 0 -0.831485 0.555547
    outer loop
      vertex 54.4254 235.932 1.75
      vertex -54.4884 235.823 1.58686
      vertex 54.4884 235.823 1.58686
    endloop
  endfacet
  facet normal 0 0.442233 -0.8969
    outer loop
      vertex -55.1854 233.883 3.79904
      vertex 55.1854 234.059 3.88582
      vertex 55.1854 233.883 3.79904
    endloop
  endfacet
  facet normal 0 0.442233 -0.8969
    outer loop
      vertex 55.1854 234.059 3.88582
      vertex -55.1854 233.883 3.79904
      vertex -55.1854 234.059 3.88582
    endloop
  endfacet
  facet normal 0 -0.194552 0.980892
    outer loop
      vertex -54.9513 235.022 1.05111
      vertex 55.0624 234.829 1.01283
      vertex 54.9513 235.022 1.05111
    endloop
  endfacet
  facet normal 0 -0.194552 0.980892
    outer loop
      vertex 55.0624 234.829 1.01283
      vertex -54.9513 235.022 1.05111
      vertex -55.0624 234.829 1.01283
    endloop
  endfacet
  facet normal 0 0.750253 -0.661151
    outer loop
      vertex 55.1854 233.443 3.41314
      vertex -55.1854 233.573 3.56066
      vertex 55.1854 233.573 3.56066
    endloop
  endfacet
  facet normal 0 0.750253 -0.661151
    outer loop
      vertex -55.1854 233.573 3.56066
      vertex 55.1854 233.443 3.41314
      vertex -55.1854 233.443 3.41314
    endloop
  endfacet
  facet normal 0 0.750253 0.661151
    outer loop
      vertex 55.1854 233.573 1.43934
      vertex -55.1854 233.443 1.58686
      vertex 55.1854 233.443 1.58686
    endloop
  endfacet
  facet normal 0 0.750253 0.661151
    outer loop
      vertex -55.1854 233.443 1.58686
      vertex 55.1854 233.573 1.43934
      vertex -55.1854 233.573 1.43934
    endloop
  endfacet
  facet normal 0 -0.831485 -0.555547
    outer loop
      vertex -54.4254 235.932 3.25
      vertex 54.4884 235.823 3.41314
      vertex -54.4884 235.823 3.41314
    endloop
  endfacet
  facet normal 0 -0.831485 -0.555547
    outer loop
      vertex 54.4884 235.823 3.41314
      vertex -54.4254 235.932 3.25
      vertex 54.4254 235.932 3.25
    endloop
  endfacet
  facet normal 1 -0 0
    outer loop
      vertex -55.1854 234.438 3.98717
      vertex -55.1854 234.616 1.00114
      vertex -55.1854 234.616 3.99886
    endloop
  endfacet
  facet normal 1 0 0
    outer loop
      vertex -55.1854 234.438 3.98717
      vertex -55.1854 234.438 1.01283
      vertex -55.1854 234.616 1.00114
    endloop
  endfacet
  facet normal 1 -0 0
    outer loop
      vertex -55.1854 234.245 3.94889
      vertex -55.1854 234.438 1.01283
      vertex -55.1854 234.438 3.98717
    endloop
  endfacet
  facet normal 1 0 0
    outer loop
      vertex -55.1854 234.245 3.94889
      vertex -55.1854 234.245 1.05111
      vertex -55.1854 234.438 1.01283
    endloop
  endfacet
  facet normal 1 -0 0
    outer loop
      vertex -55.1854 234.059 3.88582
      vertex -55.1854 234.245 1.05111
      vertex -55.1854 234.245 3.94889
    endloop
  endfacet
  facet normal 1 0 0
    outer loop
      vertex -55.1854 234.059 3.88582
      vertex -55.1854 234.059 1.11418
      vertex -55.1854 234.245 1.05111
    endloop
  endfacet
  facet normal 1 -0 0
    outer loop
      vertex -55.1854 233.883 3.79904
      vertex -55.1854 234.059 1.11418
      vertex -55.1854 234.059 3.88582
    endloop
  endfacet
  facet normal 1 0 0
    outer loop
      vertex -55.1854 233.883 3.79904
      vertex -55.1854 233.883 1.20096
      vertex -55.1854 234.059 1.11418
    endloop
  endfacet
  facet normal 1 -0 0
    outer loop
      vertex -55.1854 233.72 3.69003
      vertex -55.1854 233.883 1.20096
      vertex -55.1854 233.883 3.79904
    endloop
  endfacet
  facet normal 1 0 0
    outer loop
      vertex -55.1854 233.72 3.69003
      vertex -55.1854 233.72 1.30997
      vertex -55.1854 233.883 1.20096
    endloop
  endfacet
  facet normal 1 -0 0
    outer loop
      vertex -55.1854 233.573 3.56066
      vertex -55.1854 233.72 1.30997
      vertex -55.1854 233.72 3.69003
    endloop
  endfacet
  facet normal 1 0 0
    outer loop
      vertex -55.1854 233.573 3.56066
      vertex -55.1854 233.573 1.43934
      vertex -55.1854 233.72 1.30997
    endloop
  endfacet
  facet normal 1 -0 0
    outer loop
      vertex -55.1854 233.443 3.41314
      vertex -55.1854 233.573 1.43934
      vertex -55.1854 233.573 3.56066
    endloop
  endfacet
  facet normal 1 0 0
    outer loop
      vertex -55.1854 233.443 3.41314
      vertex -55.1854 233.443 1.58686
      vertex -55.1854 233.573 1.43934
    endloop
  endfacet
  facet normal 1 -0 0
    outer loop
      vertex -55.1854 233.334 3.25
      vertex -55.1854 233.443 1.58686
      vertex -55.1854 233.443 3.41314
    endloop
  endfacet
  facet normal 1 0 0
    outer loop
      vertex -55.1854 233.334 3.25
      vertex -55.1854 233.334 1.75
      vertex -55.1854 233.443 1.58686
    endloop
  endfacet
  facet normal 1 -0 0
    outer loop
      vertex -55.1854 233.247 3.07402
      vertex -55.1854 233.334 1.75
      vertex -55.1854 233.334 3.25
    endloop
  endfacet
  facet normal 1 0 0
    outer loop
      vertex -55.1854 233.247 3.07402
      vertex -55.1854 233.247 1.92597
      vertex -55.1854 233.334 1.75
    endloop
  endfacet
  facet normal 1 -0 0
    outer loop
      vertex -55.1854 233.184 2.88823
      vertex -55.1854 233.247 1.92597
      vertex -55.1854 233.247 3.07402
    endloop
  endfacet
  facet normal 1 0 0
    outer loop
      vertex -55.1854 233.184 2.88823
      vertex -55.1854 233.184 2.11177
      vertex -55.1854 233.247 1.92597
    endloop
  endfacet
  facet normal 1 -0 0
    outer loop
      vertex -55.1854 233.146 2.69579
      vertex -55.1854 233.184 2.11177
      vertex -55.1854 233.184 2.88823
    endloop
  endfacet
  facet normal 1 0 0
    outer loop
      vertex -55.1854 233.146 2.69579
      vertex -55.1854 233.146 2.30421
      vertex -55.1854 233.184 2.11177
    endloop
  endfacet
  facet normal 1 0 -0
    outer loop
      vertex -55.1854 233.146 2.30421
      vertex -55.1854 233.146 2.69579
      vertex -55.1854 233.133 2.5
    endloop
  endfacet
  facet normal 0 -0.555912 0.831241
    outer loop
      vertex -54.6482 235.546 1.30997
      vertex 54.7424 235.383 1.20096
      vertex 54.6482 235.546 1.30997
    endloop
  endfacet
  facet normal 0 -0.555912 0.831241
    outer loop
      vertex 54.7424 235.383 1.20096
      vertex -54.6482 235.546 1.30997
      vertex -54.7424 235.383 1.20096
    endloop
  endfacet
  facet normal 0 -0.442233 0.8969
    outer loop
      vertex -54.7424 235.383 1.20096
      vertex 54.844 235.207 1.11418
      vertex 54.7424 235.383 1.20096
    endloop
  endfacet
  facet normal 0 -0.442233 0.8969
    outer loop
      vertex 54.844 235.207 1.11418
      vertex -54.7424 235.383 1.20096
      vertex -54.844 235.207 1.11418
    endloop
  endfacet
  facet normal 0 0.194552 -0.980892
    outer loop
      vertex -55.1854 234.245 3.94889
      vertex 55.1854 234.438 3.98717
      vertex 55.1854 234.245 3.94889
    endloop
  endfacet
  facet normal 0 0.194552 -0.980892
    outer loop
      vertex 55.1854 234.438 3.98717
      vertex -55.1854 234.245 3.94889
      vertex -55.1854 234.438 3.98717
    endloop
  endfacet
  facet normal 0 0.997803 -0.0662518
    outer loop
      vertex 55.1854 233.133 2.5
      vertex -55.1854 233.146 2.69579
      vertex 55.1854 233.146 2.69579
    endloop
  endfacet
  facet normal 0 0.997803 -0.0662518
    outer loop
      vertex -55.1854 233.146 2.69579
      vertex 55.1854 233.133 2.5
      vertex -55.1854 233.133 2.5
    endloop
  endfacet
  facet normal 0 0.94704 0.321117
    outer loop
      vertex 55.1854 233.247 1.92597
      vertex -55.1854 233.184 2.11177
      vertex 55.1854 233.184 2.11177
    endloop
  endfacet
  facet normal 0 0.94704 0.321117
    outer loop
      vertex -55.1854 233.184 2.11177
      vertex 55.1854 233.247 1.92597
      vertex -55.1854 233.247 1.92597
    endloop
  endfacet
  facet normal 0 -0.896435 -0.443175
    outer loop
      vertex -54.3753 236.019 3.07402
      vertex 54.4254 235.932 3.25
      vertex -54.4254 235.932 3.25
    endloop
  endfacet
  facet normal 0 -0.896435 -0.443175
    outer loop
      vertex 54.4254 235.932 3.25
      vertex -54.3753 236.019 3.07402
      vertex 54.3753 236.019 3.07402
    endloop
  endfacet
  facet normal 0 0.555912 -0.831241
    outer loop
      vertex -55.1854 233.72 3.69003
      vertex 55.1854 233.883 3.79904
      vertex 55.1854 233.72 3.69003
    endloop
  endfacet
  facet normal 0 0.555912 -0.831241
    outer loop
      vertex 55.1854 233.883 3.79904
      vertex -55.1854 233.72 3.69003
      vertex -55.1854 233.883 3.79904
    endloop
  endfacet
  facet normal 0 -0.322682 -0.946507
    outer loop
      vertex 54.9513 235.022 3.94889
      vertex -54.844 235.207 3.88582
      vertex 54.844 235.207 3.88582
    endloop
  endfacet
  facet normal 0 -0.322682 -0.946507
    outer loop
      vertex -54.844 235.207 3.88582
      vertex 54.9513 235.022 3.94889
      vertex -54.9513 235.022 3.94889
    endloop
  endfacet
  facet normal 0 -0.997803 0.0662518
    outer loop
      vertex -54.3168 236.12 2.30421
      vertex 54.3094 236.133 2.5
      vertex -54.3094 236.133 2.5
    endloop
  endfacet
  facet normal 0 -0.997803 0.0662518
    outer loop
      vertex 54.3094 236.133 2.5
      vertex -54.3168 236.12 2.30421
      vertex 54.3168 236.12 2.30421
    endloop
  endfacet
  facet normal 0 -0.65813 -0.752904
    outer loop
      vertex 54.6482 235.546 3.69003
      vertex -54.5631 235.694 3.56066
      vertex 54.5631 235.694 3.56066
    endloop
  endfacet
  facet normal 0 -0.65813 -0.752904
    outer loop
      vertex -54.5631 235.694 3.56066
      vertex 54.6482 235.546 3.69003
      vertex -54.6482 235.546 3.69003
    endloop
  endfacet
  facet normal 0 -0.981056 -0.193723
    outer loop
      vertex -54.3168 236.12 2.69579
      vertex 54.3389 236.082 2.88823
      vertex -54.3389 236.082 2.88823
    endloop
  endfacet
  facet normal 0 -0.981056 -0.193723
    outer loop
      vertex 54.3389 236.082 2.88823
      vertex -54.3168 236.12 2.69579
      vertex 54.3168 236.12 2.69579
    endloop
  endfacet
  facet normal -0.00234887 0.0655328 -0.997848
    outer loop
      vertex 55.1854 234.438 3.98717
      vertex 55.1754 234.633 4
      vertex 55.1854 234.616 3.99886
    endloop
  endfacet
  facet normal 0 0.0656529 -0.997843
    outer loop
      vertex 55.1854 234.438 3.98717
      vertex -55.1754 234.633 4
      vertex 55.1754 234.633 4
    endloop
  endfacet
  facet normal 0 0.0656529 -0.997843
    outer loop
      vertex -55.1854 234.438 3.98717
      vertex -55.1754 234.633 4
      vertex 55.1854 234.438 3.98717
    endloop
  endfacet
  facet normal 0.00234887 0.0655328 -0.997848
    outer loop
      vertex -55.1754 234.633 4
      vertex -55.1854 234.438 3.98717
      vertex -55.1854 234.616 3.99886
    endloop
  endfacet
  facet normal -0 0.194552 0.980892
    outer loop
      vertex -55.1854 234.438 1.01283
      vertex 55.1854 234.245 1.05111
      vertex 55.1854 234.438 1.01283
    endloop
  endfacet
  facet normal 0 0.194552 0.980892
    outer loop
      vertex 55.1854 234.245 1.05111
      vertex -55.1854 234.438 1.01283
      vertex -55.1854 234.245 1.05111
    endloop
  endfacet
  facet normal 0 0.321127 -0.947036
    outer loop
      vertex -55.1854 234.059 3.88582
      vertex 55.1854 234.245 3.94889
      vertex 55.1854 234.059 3.88582
    endloop
  endfacet
  facet normal 0 0.321127 -0.947036
    outer loop
      vertex 55.1854 234.245 3.94889
      vertex -55.1854 234.059 3.88582
      vertex -55.1854 234.245 3.94889
    endloop
  endfacet
  facet normal -0 0.555912 0.831241
    outer loop
      vertex -55.1854 233.883 1.20096
      vertex 55.1854 233.72 1.30997
      vertex 55.1854 233.883 1.20096
    endloop
  endfacet
  facet normal 0 0.555912 0.831241
    outer loop
      vertex 55.1854 233.72 1.30997
      vertex -55.1854 233.883 1.20096
      vertex -55.1854 233.72 1.30997
    endloop
  endfacet
  facet normal 0 -0.194552 -0.980892
    outer loop
      vertex 55.0624 234.829 3.98717
      vertex -54.9513 235.022 3.94889
      vertex 54.9513 235.022 3.94889
    endloop
  endfacet
  facet normal 0 -0.194552 -0.980892
    outer loop
      vertex -54.9513 235.022 3.94889
      vertex 55.0624 234.829 3.98717
      vertex -55.0624 234.829 3.98717
    endloop
  endfacet
  facet normal 0 -0.896425 0.443195
    outer loop
      vertex -54.4254 235.932 1.75
      vertex 54.3753 236.019 1.92597
      vertex -54.3753 236.019 1.92597
    endloop
  endfacet
  facet normal 0 -0.896425 0.443195
    outer loop
      vertex 54.3753 236.019 1.92597
      vertex -54.4254 235.932 1.75
      vertex 54.4254 235.932 1.75
    endloop
  endfacet
  facet normal 0 0.997803 0.0662518
    outer loop
      vertex 55.1854 233.146 2.30421
      vertex -55.1854 233.133 2.5
      vertex 55.1854 233.133 2.5
    endloop
  endfacet
  facet normal 0 0.997803 0.0662518
    outer loop
      vertex -55.1854 233.133 2.5
      vertex 55.1854 233.146 2.30421
      vertex -55.1854 233.146 2.30421
    endloop
  endfacet
  facet normal -1 0 0
    outer loop
      vertex 55.1854 234.438 1.01283
      vertex 55.1854 234.616 3.99886
      vertex 55.1854 234.616 1.00114
    endloop
  endfacet
  facet normal -1 0 0
    outer loop
      vertex 55.1854 234.438 1.01283
      vertex 55.1854 234.438 3.98717
      vertex 55.1854 234.616 3.99886
    endloop
  endfacet
  facet normal -1 0 0
    outer loop
      vertex 55.1854 234.245 1.05111
      vertex 55.1854 234.438 3.98717
      vertex 55.1854 234.438 1.01283
    endloop
  endfacet
  facet normal -1 0 0
    outer loop
      vertex 55.1854 234.245 1.05111
      vertex 55.1854 234.245 3.94889
      vertex 55.1854 234.438 3.98717
    endloop
  endfacet
  facet normal -1 0 0
    outer loop
      vertex 55.1854 234.059 1.11418
      vertex 55.1854 234.245 3.94889
      vertex 55.1854 234.245 1.05111
    endloop
  endfacet
  facet normal -1 0 0
    outer loop
      vertex 55.1854 234.059 1.11418
      vertex 55.1854 234.059 3.88582
      vertex 55.1854 234.245 3.94889
    endloop
  endfacet
  facet normal -1 0 0
    outer loop
      vertex 55.1854 233.883 1.20096
      vertex 55.1854 234.059 3.88582
      vertex 55.1854 234.059 1.11418
    endloop
  endfacet
  facet normal -1 0 0
    outer loop
      vertex 55.1854 233.883 1.20096
      vertex 55.1854 233.883 3.79904
      vertex 55.1854 234.059 3.88582
    endloop
  endfacet
  facet normal -1 0 0
    outer loop
      vertex 55.1854 233.72 1.30997
      vertex 55.1854 233.883 3.79904
      vertex 55.1854 233.883 1.20096
    endloop
  endfacet
  facet normal -1 0 0
    outer loop
      vertex 55.1854 233.72 1.30997
      vertex 55.1854 233.72 3.69003
      vertex 55.1854 233.883 3.79904
    endloop
  endfacet
  facet normal -1 0 0
    outer loop
      vertex 55.1854 233.573 1.43934
      vertex 55.1854 233.72 3.69003
      vertex 55.1854 233.72 1.30997
    endloop
  endfacet
  facet normal -1 0 0
    outer loop
      vertex 55.1854 233.573 1.43934
      vertex 55.1854 233.573 3.56066
      vertex 55.1854 233.72 3.69003
    endloop
  endfacet
  facet normal -1 0 0
    outer loop
      vertex 55.1854 233.443 1.58686
      vertex 55.1854 233.573 3.56066
      vertex 55.1854 233.573 1.43934
    endloop
  endfacet
  facet normal -1 0 0
    outer loop
      vertex 55.1854 233.443 1.58686
      vertex 55.1854 233.443 3.41314
      vertex 55.1854 233.573 3.56066
    endloop
  endfacet
  facet normal -1 0 0
    outer loop
      vertex 55.1854 233.334 1.75
      vertex 55.1854 233.443 3.41314
      vertex 55.1854 233.443 1.58686
    endloop
  endfacet
  facet normal -1 0 0
    outer loop
      vertex 55.1854 233.334 1.75
      vertex 55.1854 233.334 3.25
      vertex 55.1854 233.443 3.41314
    endloop
  endfacet
  facet normal -1 0 0
    outer loop
      vertex 55.1854 233.247 1.92597
      vertex 55.1854 233.334 3.25
      vertex 55.1854 233.334 1.75
    endloop
  endfacet
  facet normal -1 0 0
    outer loop
      vertex 55.1854 233.247 1.92597
      vertex 55.1854 233.247 3.07402
      vertex 55.1854 233.334 3.25
    endloop
  endfacet
  facet normal -1 0 0
    outer loop
      vertex 55.1854 233.184 2.11177
      vertex 55.1854 233.247 3.07402
      vertex 55.1854 233.247 1.92597
    endloop
  endfacet
  facet normal -1 0 0
    outer loop
      vertex 55.1854 233.184 2.11177
      vertex 55.1854 233.184 2.88823
      vertex 55.1854 233.247 3.07402
    endloop
  endfacet
  facet normal -1 0 0
    outer loop
      vertex 55.1854 233.146 2.30421
      vertex 55.1854 233.184 2.88823
      vertex 55.1854 233.184 2.11177
    endloop
  endfacet
  facet normal -1 0 0
    outer loop
      vertex 55.1854 233.146 2.30421
      vertex 55.1854 233.146 2.69579
      vertex 55.1854 233.184 2.88823
    endloop
  endfacet
  facet normal -1 0 -0
    outer loop
      vertex 55.1854 233.146 2.69579
      vertex 55.1854 233.146 2.30421
      vertex 55.1854 233.133 2.5
    endloop
  endfacet
  facet normal 0 0.947034 -0.321132
    outer loop
      vertex 55.1854 233.184 2.88823
      vertex -55.1854 233.247 3.07402
      vertex 55.1854 233.247 3.07402
    endloop
  endfacet
  facet normal 0 0.947034 -0.321132
    outer loop
      vertex -55.1854 233.247 3.07402
      vertex 55.1854 233.184 2.88823
      vertex -55.1854 233.184 2.88823
    endloop
  endfacet
  facet normal 0 -0.752779 -0.658273
    outer loop
      vertex -54.4884 235.823 3.41314
      vertex 54.5631 235.694 3.56066
      vertex -54.5631 235.694 3.56066
    endloop
  endfacet
  facet normal 0 -0.752779 -0.658273
    outer loop
      vertex 54.5631 235.694 3.56066
      vertex -54.4884 235.823 3.41314
      vertex 54.4884 235.823 3.41314
    endloop
  endfacet
  facet normal 0 0.831485 -0.555547
    outer loop
      vertex 55.1854 233.334 3.25
      vertex -55.1854 233.443 3.41314
      vertex 55.1854 233.443 3.41314
    endloop
  endfacet
  facet normal 0 0.831485 -0.555547
    outer loop
      vertex -55.1854 233.443 3.41314
      vertex 55.1854 233.334 3.25
      vertex -55.1854 233.334 3.25
    endloop
  endfacet
  facet normal 0 -0.752779 0.658273
    outer loop
      vertex -54.5631 235.694 1.43934
      vertex 54.4884 235.823 1.58686
      vertex -54.4884 235.823 1.58686
    endloop
  endfacet
  facet normal 0 -0.752779 0.658273
    outer loop
      vertex 54.4884 235.823 1.58686
      vertex -54.5631 235.694 1.43934
      vertex 54.5631 235.694 1.43934
    endloop
  endfacet
  facet normal 0 -0.322682 0.946507
    outer loop
      vertex -54.844 235.207 1.11418
      vertex 54.9513 235.022 1.05111
      vertex 54.844 235.207 1.11418
    endloop
  endfacet
  facet normal 0 -0.322682 0.946507
    outer loop
      vertex 54.9513 235.022 1.05111
      vertex -54.844 235.207 1.11418
      vertex -54.9513 235.022 1.05111
    endloop
  endfacet
  facet normal 0 0.660657 -0.750688
    outer loop
      vertex -55.1854 233.573 3.56066
      vertex 55.1854 233.72 3.69003
      vertex 55.1854 233.573 3.56066
    endloop
  endfacet
  facet normal 0 0.660657 -0.750688
    outer loop
      vertex 55.1854 233.72 3.69003
      vertex -55.1854 233.573 3.56066
      vertex -55.1854 233.72 3.69003
    endloop
  endfacet
  facet normal -0 0.442233 0.8969
    outer loop
      vertex -55.1854 234.059 1.11418
      vertex 55.1854 233.883 1.20096
      vertex 55.1854 234.059 1.11418
    endloop
  endfacet
  facet normal 0 0.442233 0.8969
    outer loop
      vertex 55.1854 233.883 1.20096
      vertex -55.1854 234.059 1.11418
      vertex -55.1854 233.883 1.20096
    endloop
  endfacet
  facet normal 0 0.896435 -0.443175
    outer loop
      vertex 55.1854 233.247 3.07402
      vertex -55.1854 233.334 3.25
      vertex 55.1854 233.334 3.25
    endloop
  endfacet
  facet normal 0 0.896435 -0.443175
    outer loop
      vertex -55.1854 233.334 3.25
      vertex 55.1854 233.247 3.07402
      vertex -55.1854 233.247 3.07402
    endloop
  endfacet
  facet normal 0 0.981056 -0.193723
    outer loop
      vertex 55.1854 233.146 2.69579
      vertex -55.1854 233.184 2.88823
      vertex 55.1854 233.184 2.88823
    endloop
  endfacet
  facet normal 0 0.981056 -0.193723
    outer loop
      vertex -55.1854 233.184 2.88823
      vertex 55.1854 233.146 2.69579
      vertex -55.1854 233.146 2.69579
    endloop
  endfacet
  facet normal 0 -0.997803 -0.0662518
    outer loop
      vertex -54.3094 236.133 2.5
      vertex 54.3168 236.12 2.69579
      vertex -54.3168 236.12 2.69579
    endloop
  endfacet
  facet normal 0 -0.997803 -0.0662518
    outer loop
      vertex 54.3168 236.12 2.69579
      vertex -54.3094 236.133 2.5
      vertex 54.3094 236.133 2.5
    endloop
  endfacet
  facet normal 0 -0.0653194 -0.997864
    outer loop
      vertex 55.1754 234.633 4
      vertex -55.0624 234.829 3.98717
      vertex 55.0624 234.829 3.98717
    endloop
  endfacet
  facet normal 0 -0.0653194 -0.997864
    outer loop
      vertex -55.0624 234.829 3.98717
      vertex 55.1754 234.633 4
      vertex -55.1754 234.633 4
    endloop
  endfacet
  facet normal -0 0.321127 0.947036
    outer loop
      vertex -55.1854 234.245 1.05111
      vertex 55.1854 234.059 1.11418
      vertex 55.1854 234.245 1.05111
    endloop
  endfacet
  facet normal 0 0.321127 0.947036
    outer loop
      vertex 55.1854 234.059 1.11418
      vertex -55.1854 234.245 1.05111
      vertex -55.1854 234.059 1.11418
    endloop
  endfacet
  facet normal 0 -0.442233 -0.8969
    outer loop
      vertex 54.844 235.207 3.88582
      vertex -54.7424 235.383 3.79904
      vertex 54.7424 235.383 3.79904
    endloop
  endfacet
  facet normal 0 -0.442233 -0.8969
    outer loop
      vertex -54.7424 235.383 3.79904
      vertex 54.844 235.207 3.88582
      vertex -54.844 235.207 3.88582
    endloop
  endfacet
endsolid OpenSCAD_Model
